/* XPM */
static char * closeA_xpm[] = {
"20 20 214 2",
"  	c None",
". 	c #0175FF",
"+ 	c #035CEC",
"@ 	c #4D8DF2",
"# 	c #7DAEF6",
"$ 	c #97BFF8",
"% 	c #98BFF8",
"& 	c #98C0F8",
"* 	c #99C0F8",
"= 	c #9AC1F8",
"- 	c #9BC1F8",
"; 	c #9CC1F8",
"> 	c #9CC2F8",
", 	c #9DC2F8",
"' 	c #9EC3F8",
") 	c #9FC3F8",
"! 	c #7FAEF4",
"~ 	c #4C8DF0",
"{ 	c #0156E5",
"] 	c #7CABF3",
"^ 	c #FFB57A",
"/ 	c #FFB175",
"( 	c #FFA66D",
"_ 	c #FF9A62",
": 	c #FF9059",
"< 	c #FF8751",
"[ 	c #FC8049",
"} 	c #F67A44",
"| 	c #F27640",
"1 	c #EF743E",
"2 	c #EC723B",
"3 	c #E86F3A",
"4 	c #E76E3A",
"5 	c #D16234",
"6 	c #C75B31",
"7 	c #78A8F0",
"8 	c #0053E1",
"9 	c #96BCF4",
"0 	c #FFAF75",
"a 	c #FFA56E",
"b 	c #FF9A66",
"c 	c #FF8F5C",
"d 	c #FF8552",
"e 	c #F77C4B",
"f 	c #F07544",
"g 	c #EB703F",
"h 	c #E76C3B",
"i 	c #E46A39",
"j 	c #E16737",
"k 	c #DC6436",
"l 	c #DC6435",
"m 	c #C0562E",
"n 	c #B4512D",
"o 	c #8AB5EF",
"p 	c #0653DF",
"q 	c #99BCF4",
"r 	c #FFA96E",
"s 	c #FF9F69",
"t 	c #FF9561",
"u 	c #FF8B57",
"v 	c #FC814F",
"w 	c #F47A49",
"x 	c #EE7343",
"y 	c #E96F3E",
"z 	c #E66B3B",
"A 	c #E36939",
"B 	c #E16736",
"C 	c #DB6435",
"D 	c #8CB5EE",
"E 	c #0051E8",
"F 	c #97BCF7",
"G 	c #FF9B63",
"H 	c #FF915F",
"I 	c #FC8857",
"J 	c #F68150",
"K 	c #FFFFFF",
"L 	c #E36E3D",
"M 	c #DF6A39",
"N 	c #DC6737",
"O 	c #DA6635",
"P 	c #D15F32",
"Q 	c #B7522D",
"R 	c #AD4D2C",
"S 	c #8AB4F1",
"T 	c #0151E4",
"U 	c #98BCF5",
"V 	c #FF925B",
"W 	c #FF8956",
"X 	c #F5804F",
"Y 	c #F27B4B",
"Z 	c #EC7645",
"` 	c #DF6939",
" .	c #DD6737",
"..	c #D36033",
"+.	c #B8522D",
"@.	c #AD4D2B",
"#.	c #8AB4F0",
"$.	c #0153E7",
"%.	c #99BEF6",
"&.	c #FF8952",
"*.	c #F9804D",
"=.	c #EE7848",
"-.	c #EB7545",
";.	c #E77141",
">.	c #E36D3D",
",.	c #D86433",
"'.	c #D26033",
").	c #B7522C",
"!.	c #8AB5F1",
"~.	c #9ABEF6",
"{.	c #FB8049",
"].	c #F17846",
"^.	c #E77241",
"/.	c #E6703F",
"(.	c #E06A3A",
"_.	c #DE6838",
":.	c #DA6535",
"<.	c #D76333",
"[.	c #AC4D2B",
"}.	c #0053E9",
"|.	c #9BBEF7",
"1.	c #F47A43",
"2.	c #EA7240",
"3.	c #E16D3C",
"4.	c #E16C3B",
"5.	c #DD6838",
"6.	c #D66333",
"7.	c #D25F33",
"8.	c #8AB5F2",
"9.	c #0055ED",
"0.	c #9BBFF8",
"a.	c #EF753E",
"b.	c #E66E3B",
"c.	c #DD6938",
"d.	c #DE6938",
"e.	c #D96535",
"f.	c #D96434",
"g.	c #B6522C",
"h.	c #AC4C2B",
"i.	c #8AB6F3",
"j.	c #0057F1",
"k.	c #9CC0FA",
"l.	c #EA703A",
"m.	c #E26B38",
"n.	c #DA6636",
"o.	c #DA6536",
"p.	c #D86334",
"q.	c #D76334",
"r.	c #D76234",
"s.	c #CF5F32",
"t.	c #B6512C",
"u.	c #AB4C2B",
"v.	c #8AB6F4",
"w.	c #015AF4",
"x.	c #9DC1FB",
"y.	c #E86E38",
"z.	c #DF6837",
"A.	c #D96435",
"B.	c #D86435",
"C.	c #D66234",
"D.	c #D66233",
"E.	c #D26132",
"F.	c #CA5C31",
"G.	c #AE4E2A",
"H.	c #A74A2A",
"I.	c #8AB7F5",
"J.	c #035DF9",
"K.	c #9EC3FC",
"L.	c #E26B36",
"M.	c #D86535",
"N.	c #D56133",
"O.	c #D96335",
"P.	c #D86335",
"Q.	c #D76235",
"R.	c #D26032",
"S.	c #CA5B31",
"T.	c #C95B31",
"U.	c #AF502C",
"V.	c #A34A2C",
"W.	c #8BB8F7",
"X.	c #0465FF",
"Y.	c #9FC6FE",
"Z.	c #D86734",
"`.	c #C45A2F",
" +	c #B8542D",
".+	c #BA552D",
"++	c #BA552C",
"@+	c #B9552C",
"#+	c #B9542C",
"$+	c #B2512B",
"%+	c #A15D47",
"&+	c #A46854",
"*+	c #8BBBF9",
"=+	c #046EFF",
"-+	c #80B6FD",
";+	c #C5DFFB",
">+	c #CB6132",
",+	c #C15C2E",
"'+	c #C35D2F",
")+	c #C25D2F",
"!+	c #C15C2F",
"~+	c #C25C2F",
"{+	c #BF5B2E",
"]+	c #CA6031",
"^+	c #72AFF9",
"/+	c #0072F2",
"(+	c #4A9BF4",
"_+	c #77B4F5",
":+	c #8ABFF5",
"<+	c #70B0F4",
"[+	c #4397F3",
"}+	c #006BFF",
"|+	c #075AFF",
"1+	c #0024CA",
". . . . . . . . . . . . . . . . . . . . ",
"+ + @ # $ % & * = = - ; > , ' ' ) ! ~ + ",
"{ { ] ^ / ( _ : < [ } | 1 2 3 4 5 6 7 { ",
"8 8 9 0 a b c d e f g h i j k l m n o 8 ",
"p p q r s t u v w x y z A B k C m n D p ",
"E E F G H I J K K L M N O K K P Q R S E ",
"T T U V W X Y Z K K `  .K K ....+.@.#.T ",
"$.$.%.&.*.=.-.;.>.K K K K ,...'.).@.!.$.",
"$.$.~.{.].^./.>.(._.K K :.<.'.'.).[.!.$.",
"}.}.|.1.2.3.4.M 5.K K K K 6.7.P ).[.8.}.",
"9.9.0.a.b.c.d. .K K e.f.K K P P g.h.i.9.",
"j.j.k.l.m.n.o.K K p.q.q.r.K K s.t.u.v.j.",
"w.w.x.y.z.q.A.B.p.q.q.C.D.E.F.F.G.H.I.w.",
"J.J.K.L.M.N.O.P.P.Q.r.r.C.R.S.T.U.V.W.J.",
"X.X.Y.Z.`. +.+++++@+@+@+#+g.$+$+%+&+*+X.",
"=+=+-+;+>+,+'+)+)+)+)+!+!+!+~+!+{+]+^+=+",
"/+/+(+_+:+:+:+:+:+:+:+:+:+:+:+:+:+<+[+/+",
"}+}+}+}+}+}+}+}+}+}+}+}+}+}+}+}+}+}+}+}+",
"|+|+|+|+|+|+|+|+|+|+|+|+|+|+|+|+|+|+|+|+",
"1+1+1+1+1+1+1+1+1+1+1+1+1+1+1+1+1+1+1+1+"};
