/* XPM */
static char * minD_xpm[] = {
"20 20 3 1",
" 	c None",
".	c #8199B1",
"+	c #E0E6EC",
"....................",
"....................",
"..+++++++++++++++++.",
"..+...............+.",
"..+...............+.",
"..+...............+.",
"..+...............+.",
"..+...............+.",
"..+...............+.",
"..+...............+.",
"..+...............+.",
"..+...............+.",
"..+...............+.",
"..+.++++++++++++..+.",
"..+.++++++++++++..+.",
"..+.++++++++++++..+.",
"..+...............+.",
"..+...............+.",
"..+++++++++++++++++.",
"...................."};
