/* XPM */
static char * closeD_xpm[] = {
"20 20 73 1",
" 	c #5B6592",
".	c #55608C",
"+	c #505B87",
"@	c #000000",
"#	c #4C5681",
"$	c #333333",
"%	c #404040",
"&	c #484848",
"*	c #4A4B4A",
"=	c #4B4B4B",
"-	c #48527D",
";	c #3D3D3D",
">	c #585958",
",	c #6A6B6A",
"'	c #6F706F",
")	c #424C77",
"!	c #444444",
"~	c #686968",
"{	c #7F807F",
"]	c #878887",
"^	c #878787",
"/	c #404973",
"(	c #454545",
"_	c #6B6C6B",
":	c #8C8C8C",
"<	c #3A446D",
"[	c #696969",
"}	c #818281",
"|	c #898A89",
"1	c #363E67",
"2	c #424242",
"3	c #666766",
"4	c #7E7F7D",
"5	c #848584",
"6	c #858685",
"7	c #313962",
"8	c #646564",
"9	c #7A7B7A",
"0	c #818181",
"a	c #828382",
"b	c #2D355C",
"c	c #3E3F3E",
"d	c #636362",
"e	c #787978",
"f	c #272F56",
"g	c #3E3E3E",
"h	c #5F5F5F",
"i	c #7C7C7C",
"j	c #232B52",
"k	c #3C3C3C",
"l	c #5C5C5C",
"m	c #717271",
"n	c #787878",
"o	c #20274D",
"p	c #3A3A3A",
"q	c #5A5A5A",
"r	c #6E6F6E",
"s	c #747474",
"t	c #757575",
"u	c #757675",
"v	c #1B234A",
"w	c #363636",
"x	c #555555",
"y	c #686868",
"z	c #6C6D6D",
"A	c #6D6E6D",
"B	c #6D6F6E",
"C	c #6D6E6E",
"D	c #6E6E6D",
"E	c #6E6E6E",
"F	c #182045",
"G	c #161F43",
"H	c #0E132B",
"                    ",
"....................",
"+++@@@@@@@@@@@@@@+++",
"###@$%&*========@###",
"---@;>,'''''''''@---",
")))@!~{@]^]]@^^^@)))",
"///@(_@@@::@@@::@///",
"<<<@![}@@@@@@|||@<<<",
"111@2345@@@@6666@111",
"777@%890@@@@aaaa@777",
"bbb@cde@@@@@@{{{@bbb",
"fff@gh@@@ii@@@ii@fff",
"jjj@klm@nnen@eee@jjj",
"ooo@pqrsttuuuttt@ooo",
"vvv@wxyzABBCAADE@vvv",
"FFF@@@@@@@@@@@@@@FFF",
"GGGGGGGGGGGGGGGGGGGG",
"GGGGGGGGGGGGGGGGGGGG",
"HHHHHHHHHHHHHHHHHHHH",
"@@@@@@@@@@@@@@@@@@@@"};
