/* XPM */
static char * max_xpm[] = {
"20 20 50 1",
" 	c #5B6592",
".	c #55608C",
"+	c #505B87",
"@	c #000000",
"#	c #4C5681",
"$	c #FFFFFF",
"%	c #CCCCCC",
"&	c #48527D",
"*	c #DFE0DF",
"=	c #7F7F7F",
"-	c #424C77",
";	c #DCDCDC",
">	c #DBDDDC",
",	c #DCDDDC",
"'	c #404973",
")	c #D8D8D8",
"!	c #D8D9D8",
"~	c #D8D9D7",
"{	c #D7D9D8",
"]	c #3A446D",
"^	c #D2D4D3",
"/	c #D3D3D3",
"(	c #363E67",
"_	c #CDCECD",
":	c #CDCFCD",
"<	c #313962",
"[	c #C8C9C8",
"}	c #2D355C",
"|	c #C3C4C3",
"1	c #272F56",
"2	c #BEBFBE",
"3	c #BDBFBE",
"4	c #232B52",
"5	c #B9BAB9",
"6	c #B8B9B8",
"7	c #B8BAB8",
"8	c #B8BAB9",
"9	c #B9B9B8",
"0	c #B9BAB8",
"a	c #B8B9B9",
"b	c #20274D",
"c	c #B4B4B4",
"d	c #B3B4B4",
"e	c #B3B4B3",
"f	c #B3B5B4",
"g	c #B4B4B3",
"h	c #1B234A",
"i	c #182045",
"j	c #161F43",
"k	c #0E132B",
"                    ",
"....................",
"+++@@@@@@@@@@@@@@+++",
"###@$$$$$$$$$$$%@###",
"&&&@$**********=@&&&",
"---@$;>,>;,,,,,=@---",
"'''@$)!======~{=@'''",
"]]]@$^/@@@@@@//=@]]]",
"(((@$_:@_:_:@:_=@(((",
"<<<@$[[@::::@[[=@<<<",
"}}}@$||@||||@||=@}}}",
"111@$22@@@@@@32=@111",
"444@$567890980a=@444",
"bbb@$ccdeffdeeg=@bbb",
"hhh@%===========@hhh",
"iii@@@@@@@@@@@@@@iii",
"jjjjjjjjjjjjjjjjjjjj",
"jjjjjjjjjjjjjjjjjjjj",
"kkkkkkkkkkkkkkkkkkkk",
"@@@@@@@@@@@@@@@@@@@@"};
