/* XPM */
static char * minD_xpm[] = {
"20 20 82 1",
" 	c #5B6592",
".	c #55608C",
"+	c #505B87",
"@	c #000000",
"#	c #4C5681",
"$	c #333333",
"%	c #404040",
"&	c #484848",
"*	c #4A4B4A",
"=	c #4B4B4B",
"-	c #48527D",
";	c #3D3D3D",
">	c #585958",
",	c #6A6B6A",
"'	c #6F706F",
")	c #424C77",
"!	c #444444",
"~	c #686868",
"{	c #7F807F",
"]	c #868786",
"^	c #878887",
"/	c #878787",
"(	c #404973",
"_	c #454545",
":	c #6C6C6C",
"<	c #848484",
"[	c #8A8B8B",
"}	c #8C8C8B",
"|	c #8B8C8C",
"1	c #8C8C8C",
"2	c #3A446D",
"3	c #696A69",
"4	c #818181",
"5	c #888988",
"6	c #898A89",
"7	c #898989",
"8	c #363E67",
"9	c #424242",
"0	c #666766",
"a	c #7D7F7D",
"b	c #848584",
"c	c #858686",
"d	c #858785",
"e	c #858685",
"f	c #313962",
"g	c #646564",
"h	c #7A7B7A",
"i	c #818281",
"j	c #828382",
"k	c #2D355C",
"l	c #3E3F3E",
"m	c #626362",
"n	c #787978",
"o	c #272F56",
"p	c #3E3E3E",
"q	c #5F5F5F",
"r	c #757575",
"s	c #7B7C7C",
"t	c #7C7C7C",
"u	c #232B52",
"v	c #3C3C3C",
"w	c #5C5D5C",
"x	c #717171",
"y	c #777877",
"z	c #787878",
"A	c #20274D",
"B	c #3A3A3A",
"C	c #5A5A5A",
"D	c #6E6E6E",
"E	c #747474",
"F	c #757675",
"G	c #1B234A",
"H	c #363636",
"I	c #555555",
"J	c #6C6D6D",
"K	c #6D6E6D",
"L	c #6D6F6E",
"M	c #6D6E6E",
"N	c #6E6E6D",
"O	c #182045",
"P	c #161F43",
"Q	c #0E132B",
"                    ",
"....................",
"+++@@@@@@@@@@@@@@+++",
"###@$%&*========@###",
"---@;>,'''''''''@---",
")))@!~{]^/^^^^^/@)))",
"(((@_:<[}||}}}|1@(((",
"222@!34567776676@222",
"888@90abcdeeedee@888",
"fff@%ghijjjjjjjj@fff",
"kkk@lmn@@@@@@{{{@kkk",
"ooo@pqr@@@@@@stt@ooo",
"uuu@vwxynznznnzn@uuu",
"AAA@BCDErFFrrrrr@AAA",
"GGG@HI~JKLLMKKND@GGG",
"OOO@@@@@@@@@@@@@@OOO",
"PPPPPPPPPPPPPPPPPPPP",
"PPPPPPPPPPPPPPPPPPPP",
"QQQQQQQQQQQQQQQQQQQQ",
"@@@@@@@@@@@@@@@@@@@@"};
