/* XPM */
static const char * pause_xpm[] = {
"16 16 7 1",
" 	c None",
".	c #000000",
"+	c #FFFFFF",
"@	c #E3E3E3",
"#	c #B2B2B2",
"$	c #CBCBCB",
"%	c #777777",
"                ",
"   ....  ....   ",
"   .+@.  .+@.   ",
"   .+#.  .+#.   ",
"   .+#.  .+#.   ",
"   .@#.  .@#.   ",
"   .@#.  .@#.   ",
"   .@#.  .@#.   ",
"   .$#.  .$#.   ",
"   .$#.  .$#.   ",
"   .##.  .##.   ",
"   .#%.  .#%.   ",
"   .#%.  .#%.   ",
"   .%%.  .%%.   ",
"   ....  ....   ",
"                "};

