/* XPM */
static char * closeD_xpm[] = {
"20 20 61 1",
" 	c None",
".	c #000000",
"+	c #252525",
"@	c #0A0A0A",
"#	c #090909",
"$	c #939393",
"%	c #8C8C8C",
"&	c #1B1B1B",
"*	c #121212",
"=	c #616161",
"-	c #C3C3C3",
";	c #B7B7B7",
">	c #646464",
",	c #0C0C0C",
"'	c #070707",
")	c #282828",
"!	c #7E7E7E",
"~	c #B0B0B0",
"{	c #A5A5A5",
"]	c #3F3F3F",
"^	c #151515",
"/	c #4A4A4A",
"(	c #888888",
"_	c #B6B6B6",
":	c #919191",
"<	c #404040",
"[	c #BABABA",
"}	c #8A8A8A",
"|	c #454545",
"1	c #6F6F6F",
"2	c #989898",
"3	c #9D9D9D",
"4	c #848484",
"5	c #6D6D6D",
"6	c #5A5A5A",
"7	c #AFAFAF",
"8	c #BEBEBE",
"9	c #9C9C9C",
"0	c #7A7A7A",
"a	c #535353",
"b	c #8F8F8F",
"c	c #6C6C6C",
"d	c #393939",
"e	c #868686",
"f	c #AEAEAE",
"g	c #8B8B8B",
"h	c #999999",
"i	c #A0A0A0",
"j	c #858585",
"k	c #9F9F9F",
"l	c #959595",
"m	c #7C7C7C",
"n	c #A3A3A3",
"o	c #A8A8A8",
"p	c #6A6A6A",
"q	c #8E8E8E",
"r	c #B8B8B8",
"s	c #545454",
"t	c #B4B4B4",
"u	c #606060",
"v	c #696969",
"                    ",
"                    ",
"                    ",
"      .+@           ",
"     #$%&     *     ",
"    *=-;>,  ')=#    ",
"     )!~{].^/(_:.   ",
"     '<%[}|12345+   ",
"      ^678[9$0a&@   ",
"      .|[bb%cd,     ",
"     ,]efgge|.      ",
"   @&>hijegb1^      ",
"   +%klm6|cno/'     ",
"   .pq1<^.derb)     ",
"    's+'  ,a3tu*    ",
"     *     &5v'     ",
"           @+.      ",
"                    ",
"                    ",
"                    "};
