/* XPM */
static char * min_xpm[] = {
"20 20 4 1",
" 	c None",
".	c #000000",
"+	c #C3C3C3",
"@	c #8B8B8B",
"                    ",
"                    ",
"                    ",
"                    ",
"                    ",
"                    ",
"                    ",
"       ......       ",
"       .++++.       ",
"       .+@@@.       ",
"       .+@@@.       ",
"       .+@@@.       ",
"       ......       ",
"                    ",
"                    ",
"                    ",
"                    ",
"                    ",
"                    ",
"                    "};
