/* XPM */
static char * min_pressed_xpm[] = {
"14 17 4 1",
" 	c None",
".	c #FFFFFF",
"+	c #C8C8C8",
"@	c #ADADAD",
"..............",
"..............",
".++++++++++++.",
".+..........+.",
".+..........+.",
".+..........+.",
".+..........+.",
".+..........+.",
".+..........+.",
".+..++++++..+.",
".+..++++++..+.",
".+..........+.",
".+..........+.",
".++++++++++++.",
"..............",
"..............",
"@@@@@@@@@@@@@@"};
