/* XPM */
static char * title_xpm[] = {
"2 17 3 1",
" 	c None",
".	c #C8C8C8",
"+	c #ADADAD",
"..",
"..",
"..",
"..",
"..",
"..",
"..",
"..",
"..",
"..",
"..",
"..",
"..",
"..",
"..",
"..",
"++"};
