/* XPM */
static char * max_unpressed_xpm[] = {
"17 22 41 1",
" 	c None",
".	c #D6DCEE",
"+	c #97A9C7",
"@	c #95A7C5",
"#	c #92A4C3",
"$	c #8FA2C1",
"%	c #7E93B5",
"&	c #4C5E7C",
"*	c #8C9FBF",
"=	c #BBBDC4",
"-	c #FFFFFF",
";	c #899DBD",
">	c #FFFEFF",
",	c #879ABB",
"'	c #FCFAFA",
")	c #908B74",
"!	c #8498B9",
"~	c #F9F7F6",
"{	c #A3A09B",
"]	c #C0BCB6",
"^	c #8195B7",
"/	c #F2F0ED",
"(	c #EFECE9",
"_	c #7C91B3",
":	c #ECE9E5",
"<	c #798FB1",
"[	c #E5E2DB",
"}	c #768CAE",
"|	c #E1DED6",
"1	c #7389AC",
"2	c #DDDAD1",
"3	c #7086AA",
"4	c #ACA79B",
"5	c #D9D6CC",
"6	c #6D84A8",
"7	c #768BAC",
"8	c #D6D2C7",
"9	c #6A81A5",
"0	c #677EA3",
"a	c #647BA1",
"b	c #61799F",
".................",
"+++++++++++++++++",
"@@@@@@@@@@@@@@@@@",
"#################",
"$$%&&&&&&&&&&%$$$",
"*%&=--------=&%**",
";&=>>>>>>>>>>=&;;",
",&''''')))))''&,,",
"!&~~~~~-{]]{~~&!!",
"^&//////-{]{//&^^",
"%&(()((((-{{((&%%",
"_&::))::::-{::&__",
"<&[[)])[[[[-[[&<<",
"}&||)]])||||||&}}",
"1&22{{{{{22222&11",
"3&45-----55554&33",
"67&4888888884&766",
"99_&&&&&&&&&&_999",
"000__________0000",
"aaaaaaaaaaaaaaaaa",
"bbbbbbbbbbbbbbbbb",
"&&&&&&&&&&&&&&&&&"};
