/* XPM */
static char * min_xpm[] = {
"20 20 245 2",
"  	c None",
". 	c #F0F0F0",
"+ 	c #EDEDED",
"@ 	c #EFF0EF",
"# 	c #EEEFEF",
"$ 	c #EEEEEE",
"% 	c #EFEFEF",
"& 	c #EDEDEC",
"* 	c #EFEFEE",
"= 	c #EFF0F0",
"- 	c #EEEEEF",
"; 	c #EDEEEF",
"> 	c #ECECEE",
", 	c #EDEDEE",
"' 	c #F1F1F0",
") 	c #EFEFEC",
"! 	c #EAEAEE",
"~ 	c #EBEBEE",
"{ 	c #EFF0F1",
"] 	c #ECECEC",
"^ 	c #EBEBEB",
"/ 	c #F2F2F2",
"( 	c #F7F7F7",
"_ 	c #F9F9F9",
": 	c #F8F8F8",
"< 	c #FBFBFB",
"[ 	c #FFFBFF",
"} 	c #FFF6FB",
"| 	c #FFFEFA",
"1 	c #F7F4ED",
"2 	c #FCFBF9",
"3 	c #F8F8F6",
"4 	c #F7F9F6",
"5 	c #F0F3FA",
"6 	c #EAEAEA",
"7 	c #F3F3F3",
"8 	c #F6F6F6",
"9 	c #F1F1F1",
"0 	c #E2DEDB",
"a 	c #F0EDE4",
"b 	c #D9DAD2",
"c 	c #EFF3E4",
"d 	c #E2E5DA",
"e 	c #EFF1EE",
"f 	c #ECEEEB",
"g 	c #E7E7EF",
"h 	c #E8E8E8",
"i 	c #E7E7E7",
"j 	c #D9D9D9",
"k 	c #BCBCBC",
"l 	c #B2ABB2",
"m 	c #A7A3A0",
"n 	c #B2B4A9",
"o 	c #C5C6CA",
"p 	c #D0D0DC",
"q 	c #DBD9E7",
"r 	c #E7E4EF",
"s 	c #EDE8EF",
"t 	c #E9E9E9",
"u 	c #CDCDCD",
"v 	c #979797",
"w 	c #6D6D6D",
"x 	c #5E4549",
"y 	c #4C3932",
"z 	c #5C543F",
"A 	c #7E7882",
"B 	c #AFADBB",
"C 	c #CECDD2",
"D 	c #D5D6CE",
"E 	c #E1E1D7",
"F 	c #E1E1E1",
"G 	c #E4E4E4",
"H 	c #CCCCCC",
"I 	c #7C7C7C",
"J 	c #5B5B5B",
"K 	c #6E6E6E",
"L 	c #DCC15A",
"M 	c #DDCB5F",
"N 	c #C9C258",
"O 	c #766F52",
"P 	c #726E6F",
"Q 	c #B1B1B3",
"R 	c #CACBCD",
"S 	c #C8C8D2",
"T 	c #DCDCDC",
"U 	c #E2E2E2",
"V 	c #E3E3E3",
"W 	c #E0E0E0",
"X 	c #B8B8B8",
"Y 	c #636363",
"Z 	c #4D4D4D",
"` 	c #727272",
" .	c #EBC268",
"..	c #E8CB67",
"+.	c #D5C563",
"@.	c #6A5A4D",
"#.	c #4F4752",
"$.	c #9A9A9A",
"%.	c #BBC0B9",
"&.	c #B3B7BA",
"*.	c #CECECE",
"=.	c #DEDEDE",
"-.	c #CCD0D1",
";.	c #A5A5A7",
">.	c #4A4146",
",.	c #69555E",
"'.	c #766063",
").	c #E2C569",
"!.	c #E7C44C",
"~.	c #DFBE53",
"{.	c #644E40",
"].	c #4C4D45",
"^.	c #6A6F68",
"/.	c #D1CCE2",
"(.	c #A0988B",
"_.	c #BEBEC0",
":.	c #D6D6D6",
"<.	c #C6CACB",
"[.	c #A3A1AE",
"}.	c #484330",
"|.	c #C4C076",
"1.	c #D4D166",
"2.	c #DCBF59",
"3.	c #DFC236",
"4.	c #DEB644",
"5.	c #D7B937",
"6.	c #B0AA32",
"7.	c #575664",
"8.	c #D7E0E5",
"9.	c #80857E",
"0.	c #B5B2B9",
"a.	c #D3D3D3",
"b.	c #CFCFCF",
"c.	c #B3B3BB",
"d.	c #ABAAB2",
"e.	c #4D4842",
"f.	c #5D592C",
"g.	c #C7C767",
"h.	c #E4C12F",
"i.	c #DBB53A",
"j.	c #DAB62A",
"k.	c #C6AB28",
"l.	c #543F3C",
"m.	c #75786F",
"n.	c #D2DBD6",
"o.	c #797687",
"p.	c #B1B0AB",
"q.	c #BEBEBE",
"r.	c #C6C6C6",
"s.	c #B6B8B3",
"t.	c #A8A7AF",
"u.	c #726C78",
"v.	c #3A3136",
"w.	c #665B5F",
"x.	c #D7B643",
"y.	c #D7B728",
"z.	c #CDB628",
"A.	c #543E4B",
"B.	c #322B4A",
"C.	c #A8AD96",
"D.	c #BBBAB6",
"E.	c #85817E",
"F.	c #A8A4A5",
"G.	c #B9B9B9",
"H.	c #B7B7B7",
"I.	c #A5A5A3",
"J.	c #9B9C97",
"K.	c #94948C",
"L.	c #68655E",
"M.	c #373133",
"N.	c #544143",
"O.	c #BCB63C",
"P.	c #4C3231",
"Q.	c #3F3130",
"R.	c #817E77",
"S.	c #D6D6CA",
"T.	c #85848A",
"U.	c #7C807F",
"V.	c #A2A19F",
"W.	c #BABABA",
"X.	c #B1B1B1",
"Y.	c #ABA9B4",
"Z.	c #90918C",
"`.	c #92938D",
" +	c #B4B5AF",
".+	c #959885",
"++	c #6C6D71",
"@+	c #525065",
"#+	c #76766E",
"$+	c #B2A7AD",
"%+	c #D0CABC",
"&+	c #9B9D9A",
"*+	c #686C75",
"=+	c #94929D",
"-+	c #AAA9A4",
";+	c #AFAFAF",
">+	c #ABABAB",
",+	c #A0A09E",
"'+	c #9D9BA8",
")+	c #81818B",
"!+	c #7C8081",
"~+	c #A6A9B0",
"{+	c #CCCEC1",
"]+	c #DFE7DA",
"^+	c #C9D3CA",
"/+	c #BBBAC0",
"(+	c #818183",
"_+	c #6A6F5B",
":+	c #7F7F87",
"<+	c #9D998D",
"[+	c #A1A0A8",
"}+	c #A0A0A0",
"|+	c #9F9F9F",
"1+	c #A09E9F",
"2+	c #9A9B96",
"3+	c #949693",
"4+	c #7C8282",
"5+	c #656B69",
"6+	c #595965",
"7+	c #54534F",
"8+	c #5C5C5E",
"9+	c #5A5C69",
"0+	c #6E716A",
"a+	c #847B90",
"b+	c #989294",
"c+	c #97979F",
"d+	c #9FA1A0",
"e+	c #9C9C9C",
"f+	c #9D9D9D",
"g+	c #9B9B9B",
"h+	c #969696",
"i+	c #909090",
"j+	c #8B8B8B",
"k+	c #818181",
"l+	c #7F7F7F",
"m+	c #7E7E7E",
"n+	c #898989",
"o+	c #919191",
"p+	c #999999",
"q+	c #989898",
"r+	c #9E9E9E",
"s+	c #959595",
"t+	c #939393",
"u+	c #949494",
"v+	c #333333",
". . . . + . @ . . # . $ % . . $ $ . . . ",
". % $ + + & * = - ; > , $ . . . % . % $ ",
"% $ + + & ' ) - - ! ~ { = + + + + % $ + ",
"$ ] ^ / ( _ : < [ } | 1 2 3 4 5 % $ ] ^ ",
"] ] 6 + 7 8 9 $ 0 a b c d e f g 6 ] ] 6 ",
"] 6 h i . % j k l m n o p q r s i ] 6 h ",
"6 t t $ % u v w x y z A B C D E F 6 t t ",
"G G i ^ H I J K L M N O P Q R S T G G i ",
"U U V W X Y Z `  ...+.@.#.$.%.&.*.U U V ",
"=.=.V -.;.>.,.'.).!.~.{.].^./.(._.=.=.V ",
":.:.:.<.[.}.|.1.2.3.4.5.6.7.8.9.0.:.:.:.",
"a.a.b.c.d.e.f.g.h.i.j.k.l.m.n.o.p.a.a.b.",
"q.q.r.s.t.u.v.w.x.y.z.A.B.C.D.E.F.q.q.r.",
"G.G.H.I.J.K.L.M.N.O.P.Q.R.S.T.U.V.G.G.H.",
"W.W.X.Y.Z.`. +.+++@+#+$+%+&+*+=+-+W.W.X.",
";+;+>+,+'+)+!+~+{+]+^+/+(+_+:+<+[+;+;+>+",
"}+}+|+1+2+3+4+5+6+7+8+9+0+a+b+c+d+}+}+|+",
"e+e+f+f+g+h+i+j+k+l+m+k+n+o+v p+f+e+e+f+",
"q+q+f+r+r+e+p+h+v s+t+u+v g+f+f+f+q+q+f+",
"v+v+v+v+v+v+v+v+v+v+v+v+v+v+v+v+v+v+v+v+"};
