/* XPM */
static char * closeD_xpm[] = {
"20 20 10 1",
" 	c None",
".	c #6C6C6C",
"+	c #6E6E6E",
"@	c #D3D3D3",
"#	c #CCCCCC",
"$	c #FFFFFF",
"%	c #000000",
"&	c #2D2D2D",
"*	c #2C2C2C",
"=	c #696969",
"                    ",
"                    ",
"  .++++++++++++++.  ",
"  +@@@@@@@@@@@@@@+  ",
"  +@############$+  ",
"  +@############$+  ",
"  +@############$+  ",
"  +@##%%####%%##$+  ",
"  +@##%%%##%%%##$+  ",
"  +@###%%%%%%###$+  ",
"  +@####&%%%####$+  ",
"  +@####*%%%####$+  ",
"  +@###%%&&%%###$+  ",
"  +@##%%%##%%%##$+  ",
"  +@##%%####%%##$+  ",
"  +@############$+  ",
"  +$$$$$$$$$$$$$$+  ",
"  =++++++++++++++=  ",
"                    ",
"                    "};
