/* XPM */
static char * maxD_xpm[] = {
"20 20 10 1",
" 	c None",
".	c #6E6E6E",
"+	c #D3D3D3",
"@	c #6D6D6D",
"#	c #CCCCCC",
"$	c #FFFFFF",
"%	c #696969",
"&	c #000000",
"*	c #0A0A0A",
"=	c #6A6A6A",
"                    ",
"                    ",
"  ................  ",
"  .++++++++++++++@  ",
"  .+############$%  ",
"  .+############$%  ",
"  .+############$%  ",
"  .+##&&&&&&&*##$%  ",
"  .+##&&&&&&&&##$%  ",
"  .+##&&&&&&&&##$%  ",
"  .+##&######&##$%  ",
"  .+##&######&##$%  ",
"  .+##&######&##$%  ",
"  .+##&######&##$%  ",
"  .+##&&&&&&&&##$%  ",
"  .+############$%  ",
"  =$$$$$$$$$$$$$$%  ",
"  .%%%%%%%%%%%%%%.  ",
"                    ",
"                    "};
