/* XPM */
static char * min_xpm[] = {
"20 20 11 1",
" 	c None",
".	c #6E6E6E",
"+	c #FFFFFF",
"@	c #6D6D6D",
"#	c #E6E6E6",
"$	c #D3D3D3",
"%	c #696969",
"&	c #000000",
"*	c #E5E5E5",
"=	c #6A6A6A",
"-	c #CFCFCF",
"                    ",
"                    ",
"  ................  ",
"  .++++++++++++++@  ",
"  .+############$%  ",
"  .+############$%  ",
"  .+############$%  ",
"  .+############$%  ",
"  .+############$%  ",
"  .+############$%  ",
"  .+############$%  ",
"  .+############$%  ",
"  .+##&&&&&&&&##$%  ",
"  .+##&&&&&&&&##$%  ",
"  .+*###########$%  ",
"  .+#*##########$%  ",
"  =$$$$$$$$$$$$$-%  ",
"  ..%%%%%%%%%%%%%.  ",
"                    ",
"                    "};
