/* XPM */
static char * minD_xpm[] = {
"20 20 9 1",
" 	c None",
".	c #6E6E6E",
"+	c #D3D3D3",
"@	c #6D6D6D",
"#	c #CCCCCC",
"$	c #FFFFFF",
"%	c #696969",
"&	c #000000",
"*	c #6A6A6A",
"                    ",
"                    ",
"  ................  ",
"  .++++++++++++++@  ",
"  .+############$%  ",
"  .+############$%  ",
"  .+############$%  ",
"  .+############$%  ",
"  .+############$%  ",
"  .+############$%  ",
"  .+############$%  ",
"  .+############$%  ",
"  .+############$%  ",
"  .+##&&&&&&&&##$%  ",
"  .+##&&&&&&&&##$%  ",
"  .+############$%  ",
"  *$$$$$$$$$$$$$$%  ",
"  ..%%%%%%%%%%%%%.  ",
"                    ",
"                    "};
