/* XPM */
static const char * stop_xpm[] = {
"16 16 7 1",
" 	c None",
".	c #000000",
"+	c #FFFFFF",
"@	c #E3E3E3",
"#	c #CBCBCB",
"$	c #B2B2B2",
"%	c #777777",
"                ",
"                ",
"   ..........   ",
"   .+@@##$$%.   ",
"   .+$$$$$$%.   ",
"   .+$$$$$$%.   ",
"   .@$$$$$$%.   ",
"   .@$$$$$$%.   ",
"   .@$$$$$$%.   ",
"   .#$$$$$$%.   ",
"   .#$$$$$$%.   ",
"   .$$$$$$$%.   ",
"   .%%%%%%%%.   ",
"   ..........   ",
"                ",
"                "};

