/* XPM */
static char * max_unpressed_xpm[] = {
"18 20 80 1",
" 	c None",
".	c #F5F8FF",
"+	c #ECF0F3",
"@	c #E9EDF0",
"#	c #E7EAED",
"$	c #E5E8EB",
"%	c #EBEFF2",
"&	c #E6E7E9",
"*	c #E2E2E1",
"=	c #D1D1D2",
"-	c #C0C0C1",
";	c #B6B6B6",
">	c #B1B1B1",
",	c #E7E7E9",
"'	c #E5E5E7",
")	c #DDDDDF",
"!	c #C5C5C6",
"~	c #ADADAD",
"{	c #91908F",
"]	c #7B7A77",
"^	c #6F6E6A",
"/	c #6D6D6D",
"(	c #E7E7E7",
"_	c #DFDFDF",
":	c #C3C3C3",
"<	c #A5A5A4",
"[	c #4B4A48",
"}	c #1C1C1B",
"|	c #030303",
"1	c #7A7A78",
"2	c #A4A4A3",
"3	c #CBCBCB",
"4	c #ADACAC",
"5	c #343332",
"6	c #2E2D2E",
"7	c #878688",
"8	c #E6E6E5",
"9	c #E4E4E2",
"0	c #DEDEDC",
"a	c #BCBCBA",
"b	c #292929",
"c	c #8B8B8B",
"d	c #8C8C8C",
"e	c #282828",
"f	c #908F8E",
"g	c #DBDBDA",
"h	c #B5B5B4",
"i	c #454445",
"j	c #717171",
"k	c #BDDAFE",
"l	c #444344",
"m	c #1C1B1C",
"n	c #B4B4B4",
"o	c #71706E",
"p	c #323232",
"q	c #5B5B5B",
"r	c #BEDBFF",
"s	c #5C5C5C",
"t	c #353535",
"u	c #7C7B7A",
"v	c #444444",
"w	c #E9E9EA",
"x	c #999997",
"y	c #1B1B1B",
"z	c #595959",
"A	c #4A4A4A",
"B	c #D9D9D9",
"C	c #F0F0F0",
"D	c #D5D5D5",
"E	c #4D4D4D",
"F	c #D7D7D7",
"G	c #F3F3F2",
"H	c #EDEDEE",
"I	c #D1D1D1",
"J	c #E3E3E3",
"K	c #E3E3E4",
"L	c #CECECE",
"M	c #C6C6C6",
"N	c #B8B8B8",
"O	c #555555",
"..................",
"++++@@#$$$$#@%++++",
"&&&&*=-;>>;-=*&&,&",
",&')!~{]^/]{~!)',(",
"('_:<][}||}[12-_((",
"'*34]567>>765]~3*8",
"90a{[bcd11dde[fa09",
"*gh]}ij/kk/jlm1ng*",
"_g;o|pqkkrksp|o;g_",
"_)-o|p5kttktp|o-)_",
")_=umlppppppvmu=_)",
"g)wx[yzAttAqmAxwgB",
"BgCDu5mEjjEm5]DCgB",
"FF0G:][m||}[]-G_FF",
"DDD)H)xu^^]xgH)DDD",
"I===D0JKJJ'90DIIII",
"3LLLLIIL=IIILLLLLL",
"MMMMMMMMMM!MMMMMMM",
"NNNNNNNNNNNNNNNNNN",
"OOOOOOOOOOOOOOOOOO"};
