/* XPM */
static char * min_unpressed_xpm[] = {
"18 20 80 1",
" 	c None",
".	c #F5F8FF",
"+	c #ECF0F3",
"@	c #E9EDF0",
"#	c #E7EAED",
"$	c #E5E8EB",
"%	c #EBEFF2",
"&	c #E6E7E9",
"*	c #E2E2E1",
"=	c #D1D1D2",
"-	c #C0C0C1",
";	c #B6B6B6",
">	c #B1B1B1",
",	c #E5E5E7",
"'	c #E7E7E9",
")	c #DDDDDF",
"!	c #C5C5C6",
"~	c #ADADAD",
"{	c #91908F",
"]	c #7B7A77",
"^	c #6F6E6A",
"/	c #6D6D6D",
"(	c #E8E8E9",
"_	c #E7E7E7",
":	c #DFDFDF",
"<	c #C3C3C3",
"[	c #A5A5A4",
"}	c #4B4A48",
"|	c #1C1C1B",
"1	c #030303",
"2	c #7A7A78",
"3	c #A4A4A3",
"4	c #CBCBCB",
"5	c #ADACAC",
"6	c #343332",
"7	c #2E2D2E",
"8	c #878688",
"9	c #E4E4E2",
"0	c #DEDEDC",
"a	c #BCBCBA",
"b	c #292929",
"c	c #8B8B8B",
"d	c #8C8C8C",
"e	c #282828",
"f	c #908F8E",
"g	c #DBDBDA",
"h	c #B5B5B4",
"i	c #454445",
"j	c #717171",
"k	c #6E6E6E",
"l	c #444344",
"m	c #1C1B1C",
"n	c #B4B4B4",
"o	c #71706E",
"p	c #333233",
"q	c #5C5C5C",
"r	c #656565",
"s	c #5D5D5D",
"t	c #595959",
"u	c #363636",
"v	c #7C7B7A",
"w	c #444444",
"x	c #BEDBFE",
"y	c #999997",
"z	c #1B1B1B",
"A	c #4A4A4A",
"B	c #D9D9D9",
"C	c #F0F0F0",
"D	c #D5D5D5",
"E	c #4D4D4D",
"F	c #D7D7D7",
"G	c #F3F3F2",
"H	c #EDEDEE",
"I	c #9B9A99",
"J	c #7B7A78",
"K	c #D1D1D1",
"L	c #E3E3E3",
"M	c #C6C6C6",
"N	c #B8B8B8",
"O	c #555555",
"..................",
"++++@@#$$$$#@%++++",
"&&&&*=-;>>;-=*&&$,",
"'&,)!~{]^/]{~!),(_",
"_,:<[]}|11|}23-:,_",
",*45]678>>876]~49_",
"90a{}bcd22dde}fag9",
"*gh]|ij/k//jlm2ng*",
":g;o1pqrrrrsp1/;g*",
":)-o1p6tsstup1o-g:",
"):=v|wpxxxxpw|v=:)",
"g)(y}ztAuuAtmAy(gg",
"BgCD]6mEjjEm6]DCgB",
"FF)G<]}|11|}]<G)DB",
"DDD)H)IJ^^]IgH)DDD",
"KKKKD)LLLL99)DKKKK",
"4KK4KKKK=KKKK4K4K4",
"M<MM<M!<MM!MMMMMMM",
"NNNNNNNNNNNNNNNNNN",
"OOOOOOOOOOOOOOOOOO"};
