/* XPM */
static char * maxD_xpm[] = {
"20 20 5 1",
" 	c None",
".	c #000000",
"+	c #C3C3C3",
"@	c #666666",
"#	c #8B8B8B",
"                    ",
"                    ",
"                    ",
"                    ",
"      ........      ",
"     .+++++++@.     ",
"    .+########@.    ",
"    .+#@....@##.    ",
"    .+#.@  @.+#.    ",
"    .+#.    .+#.    ",
"    .+#.    .+#.    ",
"    .+#.@  @.+#.    ",
"    .+#@....+##.    ",
"    .@##++++##@.    ",
"     .@######@.     ",
"      ........      ",
"                    ",
"                    ",
"                    ",
"                    "};
