/* XPM */
static char * close_xpm[] = {
"20 20 54 1",
" 	c #5B6592",
".	c #55608C",
"+	c #505B87",
"@	c #000000",
"#	c #4C5681",
"$	c #FFFFFF",
"%	c #CCCCCC",
"&	c #48527D",
"*	c #DFE0DF",
"=	c #7F7F7F",
"-	c #424C77",
";	c #DCDDDB",
">	c #DCDDDC",
",	c #DCDCDC",
"'	c #DBDCDC",
")	c #404973",
"!	c #D7D9D7",
"~	c #D8D8D8",
"{	c #D8D9D8",
"]	c #3A446D",
"^	c #D3D3D3",
"/	c #D2D4D2",
"(	c #D2D4D3",
"_	c #363E67",
":	c #CDCECD",
"<	c #CECFCD",
"[	c #CDCFCD",
"}	c #313962",
"|	c #C8C9C8",
"1	c #C8C8C7",
"2	c #2D355C",
"3	c #C4C4C3",
"4	c #C3C4C3",
"5	c #272F56",
"6	c #BEBFBE",
"7	c #BDBFBE",
"8	c #232B52",
"9	c #B9B9B8",
"0	c #B9BAB8",
"a	c #B8B9B8",
"b	c #B8BAB8",
"c	c #B8BAB9",
"d	c #B9BAB9",
"e	c #20274D",
"f	c #B3B4B3",
"g	c #B3B5B4",
"h	c #B4B4B3",
"i	c #B4B4B4",
"j	c #B3B5B3",
"k	c #B4B5B3",
"l	c #1B234A",
"m	c #182045",
"n	c #161F43",
"o	c #0E132B",
"                    ",
"....................",
"+++@@@@@@@@@@@@@@+++",
"###@$$$$$$$$$$$%@###",
"&&&@$**********=@&&&",
"---@$;>@>,>>@'>=@---",
")))@$!@@@~{@@@!=@)))",
"]]]@$^/@@@@@@((=@]]]",
"___@$:<:@@@@::[=@___",
"}}}@$||1@@@@|||=@}}}",
"222@$34@@@@@@44=@222",
"555@$6@@@66@@@7=@555",
"888@$90@aab9@cd=@888",
"eee@$fgfhijgkfg=@eee",
"lll@%===========@lll",
"mmm@@@@@@@@@@@@@@mmm",
"nnnnnnnnnnnnnnnnnnnn",
"nnnnnnnnnnnnnnnnnnnn",
"oooooooooooooooooooo",
"@@@@@@@@@@@@@@@@@@@@"};
