/* XPM */
static char * maxD_xpm[] = {
"20 20 77 1",
" 	c #5B6592",
".	c #55608C",
"+	c #505B87",
"@	c #000000",
"#	c #4C5681",
"$	c #333333",
"%	c #404040",
"&	c #484848",
"*	c #4A4B4A",
"=	c #4B4B4B",
"-	c #48527D",
";	c #3D3D3D",
">	c #585958",
",	c #6A6B6A",
"'	c #6F706F",
")	c #424C77",
"!	c #444444",
"~	c #686868",
"{	c #7F807F",
"]	c #868786",
"^	c #878887",
"/	c #878787",
"(	c #404973",
"_	c #454545",
":	c #6C6C6C",
"<	c #848484",
"[	c #7F7F7F",
"}	c #8C8C8B",
"|	c #8B8C8C",
"1	c #8C8C8C",
"2	c #3A446D",
"3	c #696A69",
"4	c #818181",
"5	c #898A89",
"6	c #898989",
"7	c #363E67",
"8	c #424242",
"9	c #666766",
"0	c #7D7F7D",
"a	c #858685",
"b	c #858785",
"c	c #313962",
"d	c #646564",
"e	c #7A7B7A",
"f	c #828382",
"g	c #2D355C",
"h	c #3E3F3E",
"i	c #626362",
"j	c #787978",
"k	c #272F56",
"l	c #3E3E3E",
"m	c #5F5F5F",
"n	c #757575",
"o	c #7C7C7C",
"p	c #232B52",
"q	c #3C3C3C",
"r	c #5C5D5C",
"s	c #717171",
"t	c #777877",
"u	c #787878",
"v	c #20274D",
"w	c #3A3A3A",
"x	c #5A5A5A",
"y	c #6E6E6E",
"z	c #747474",
"A	c #757675",
"B	c #1B234A",
"C	c #363636",
"D	c #555555",
"E	c #6C6D6D",
"F	c #6D6E6D",
"G	c #6D6F6E",
"H	c #6D6E6E",
"I	c #6E6E6D",
"J	c #182045",
"K	c #161F43",
"L	c #0E132B",
"                    ",
"....................",
"+++@@@@@@@@@@@@@@+++",
"###@$%&*========@###",
"---@;>,'''''''''@---",
")))@!~{]^/^^^^^/@)))",
"(((@_:<[[[[[[}|1@(((",
"222@!34@@@@@@565@222",
"777@890@aaaa@baa@777",
"ccc@%de@[[[[@fff@ccc",
"ggg@hij@{{{{@{{{@ggg",
"kkk@lmn@@@@@@ooo@kkk",
"ppp@qrstjujujjuj@ppp",
"vvv@wxyznAAnnnnn@vvv",
"BBB@CD~EFGGHFFIy@BBB",
"JJJ@@@@@@@@@@@@@@JJJ",
"KKKKKKKKKKKKKKKKKKKK",
"KKKKKKKKKKKKKKKKKKKK",
"LLLLLLLLLLLLLLLLLLLL",
"@@@@@@@@@@@@@@@@@@@@"};
