/* XPM */
static char * min_xpm[] = {
"20 20 60 1",
" 	c #5B6592",
".	c #55608C",
"+	c #505B87",
"@	c #000000",
"#	c #4C5681",
"$	c #FFFFFF",
"%	c #CCCCCC",
"&	c #48527D",
"*	c #DFE0DF",
"=	c #7F7F7F",
"-	c #424C77",
";	c #DCDCDC",
">	c #DBDDDC",
",	c #DCDDDC",
"'	c #404973",
")	c #D8D8D8",
"!	c #D8D9D8",
"~	c #D7D9D8",
"{	c #D8D9D7",
"]	c #D7D8D8",
"^	c #D8D8D7",
"/	c #3A446D",
"(	c #D2D4D3",
"_	c #D3D3D3",
":	c #D2D4D2",
"<	c #D2D3D3",
"[	c #D2D3D2",
"}	c #D3D3D2",
"|	c #D3D4D3",
"1	c #363E67",
"2	c #CDCECD",
"3	c #CDCFCD",
"4	c #CDCECE",
"5	c #313962",
"6	c #C8C9C8",
"7	c #C7C9C7",
"8	c #C8C9C7",
"9	c #2D355C",
"0	c #C3C4C3",
"a	c #272F56",
"b	c #BEBFBE",
"c	c #BDBFBE",
"d	c #232B52",
"e	c #B9BAB9",
"f	c #B8B9B8",
"g	c #B8BAB8",
"h	c #B8BAB9",
"i	c #B9B9B8",
"j	c #B9BAB8",
"k	c #B8B9B9",
"l	c #20274D",
"m	c #B4B4B4",
"n	c #B3B4B4",
"o	c #B3B4B3",
"p	c #B3B5B4",
"q	c #B4B4B3",
"r	c #1B234A",
"s	c #182045",
"t	c #161F43",
"u	c #0E132B",
"                    ",
"....................",
"+++@@@@@@@@@@@@@@+++",
"###@$$$$$$$$$$$%@###",
"&&&@$**********=@&&&",
"---@$;>,>;,,,,,=@---",
"'''@$)!~{~]{^{~=@'''",
"///@$(_(:<[}|(_=@///",
"111@$2324322232=@111",
"555@$6667866866=@555",
"999@$00@@@@@@00=@999",
"aaa@$bb@@@@@@cb=@aaa",
"ddd@$efghijihjk=@ddd",
"lll@$mmnoppnooq=@lll",
"rrr@%===========@rrr",
"sss@@@@@@@@@@@@@@sss",
"tttttttttttttttttttt",
"tttttttttttttttttttt",
"uuuuuuuuuuuuuuuuuuuu",
"@@@@@@@@@@@@@@@@@@@@"};
