/* XPM */
static char * closeD_xpm[] = {
"20 20 228 2",
"  	c None",
". 	c #F0F0F0",
"+ 	c #EDEDED",
"@ 	c #EFF0EF",
"# 	c #EEEFEF",
"$ 	c #EEEEEE",
"% 	c #EFEFEF",
"& 	c #EDEDEC",
"* 	c #EFEFEE",
"= 	c #EFF0F0",
"- 	c #EEEEEF",
"; 	c #EDEEEF",
"> 	c #ECECEE",
", 	c #EDEDEE",
"' 	c #F1F1F0",
") 	c #EFEFEC",
"! 	c #EAEAEE",
"~ 	c #EBEBEE",
"{ 	c #EFF0F1",
"] 	c #ECECEC",
"^ 	c #EBEBEB",
"/ 	c #F7F7F7",
"( 	c #F2F3EB",
"_ 	c #F5F5F2",
": 	c #E8E8EC",
"< 	c #EEEEF3",
"[ 	c #F8F9FE",
"} 	c #F9F9F9",
"| 	c #FAFAFA",
"1 	c #F1F1F1",
"2 	c #EAEAEA",
"3 	c #F4F4F4",
"4 	c #F7EDEB",
"5 	c #EFE8EE",
"6 	c #E6E3E5",
"7 	c #E6E4E9",
"8 	c #DBD7EE",
"9 	c #ECE9F2",
"0 	c #ECE7E1",
"a 	c #F4EAF5",
"b 	c #E6EAEC",
"c 	c #E4E7E9",
"d 	c #DFE2E4",
"e 	c #D5D8D9",
"f 	c #C1C3C4",
"g 	c #B6B8B9",
"h 	c #B2B4B5",
"i 	c #B4B5B6",
"j 	c #B3B5B5",
"k 	c #B8B9BA",
"l 	c #C0C2C3",
"m 	c #C2C4C5",
"n 	c #CACCCD",
"o 	c #D4D7D8",
"p 	c #E1E4E6",
"q 	c #E8E8E8",
"r 	c #E9E9E9",
"s 	c #DCDFE2",
"t 	c #D1D4D6",
"u 	c #B6B7B8",
"v 	c #999999",
"w 	c #979797",
"x 	c #6B6B70",
"y 	c #53525E",
"z 	c #3A3C39",
"A 	c #525355",
"B 	c #777984",
"C 	c #AAABAC",
"D 	c #BEC0C2",
"E 	c #C3C5C7",
"F 	c #BFC1C2",
"G 	c #D2D5D7",
"H 	c #E4E4E4",
"I 	c #D0D2D4",
"J 	c #B0B1B1",
"K 	c #9C9C9C",
"L 	c #59575A",
"M 	c #403C33",
"N 	c #685E54",
"O 	c #827273",
"P 	c #5E4F52",
"Q 	c #4B4243",
"R 	c #6D6C73",
"S 	c #B1B2B3",
"T 	c #C3C5C6",
"U 	c #C8C9CA",
"V 	c #C9CBCC",
"W 	c #E7E7E7",
"X 	c #E2E2E2",
"Y 	c #C1C2C4",
"Z 	c #A1A1A1",
"` 	c #9A9A9A",
" .	c #6D6D6D",
"..	c #49334A",
"+.	c #EBF137",
"@.	c #C5B73A",
"#.	c #906A5D",
"$.	c #CBB93B",
"%.	c #E6DF5B",
"&.	c #47392E",
"*.	c #999786",
"=.	c #BFBFC0",
"-.	c #C4C5C6",
";.	c #C7C8CA",
">.	c #E3E3E3",
",.	c #DEDEDE",
"'.	c #BEC0C1",
").	c #9B9B9B",
"!.	c #4C4A4B",
"~.	c #60625F",
"{.	c #D4B12F",
"].	c #FDE044",
"^.	c #F2D843",
"/.	c #FFE040",
"(.	c #D3B32A",
"_.	c #4D503F",
":.	c #687264",
"<.	c #C5C5C5",
"[.	c #C7C8C8",
"}.	c #C5C6C7",
"|.	c #D6D6D6",
"1.	c #BCBEBF",
"2.	c #A4A4A4",
"3.	c #A0A0A0",
"4.	c #474747",
"5.	c #7B7670",
"6.	c #7E6376",
"7.	c #D4B735",
"8.	c #F3E638",
"9.	c #D8AE26",
"0.	c #6C4E68",
"a.	c #59506F",
"b.	c #4F5D5E",
"c.	c #D2D2D2",
"d.	c #CDCDCD",
"e.	c #C7C8C9",
"f.	c #D3D3D3",
"g.	c #BABBBC",
"h.	c #A5A5A5",
"i.	c #A3A3A3",
"j.	c #525152",
"k.	c #5A5559",
"l.	c #D7B925",
"m.	c #F3E24C",
"n.	c #D6BB26",
"o.	c #F9E04F",
"p.	c #D2B12E",
"q.	c #413B45",
"r.	c #747665",
"s.	c #DADADA",
"t.	c #D7D7D7",
"u.	c #C9CACB",
"v.	c #CFCFCF",
"w.	c #BEBEBE",
"x.	c #B9BABB",
"y.	c #AAAAAA",
"z.	c #808082",
"A.	c #3E3A39",
"B.	c #F8E44D",
"C.	c #D6B83E",
"D.	c #645444",
"E.	c #D5B723",
"F.	c #E8DB4E",
"G.	c #463929",
"H.	c #AEADAE",
"I.	c #DFDFDF",
"J.	c #D8D8D8",
"K.	c #C8C9C9",
"L.	c #C6C6C6",
"M.	c #B9B9B9",
"N.	c #B7B9B9",
"O.	c #B8B8B8",
"P.	c #AEAEAE",
"Q.	c #A6A6A6",
"R.	c #6E736F",
"S.	c #3D3835",
"T.	c #4D4A39",
"U.	c #5E5246",
"V.	c #474337",
"W.	c #3B3623",
"X.	c #898D96",
"Y.	c #CCCCCC",
"Z.	c #C4C5C5",
"`.	c #B7B7B7",
" +	c #BABABA",
".+	c #B0B2B2",
"++	c #BABBBB",
"@+	c #BCBCBC",
"#+	c #93909D",
"$+	c #6B6862",
"%+	c #535955",
"&+	c #737082",
"*+	c #A4A1A6",
"=+	c #CBCBCB",
"-+	c #E1E1E1",
";+	c #CFD0D0",
">+	c #B8B9B9",
",+	c #B1B1B1",
"'+	c #AFAFAF",
")+	c #A9AAAB",
"!+	c #AEAFAF",
"~+	c #C4C4C4",
"{+	c #D9D9D9",
"]+	c #DDDDDD",
"^+	c #D0D0D0",
"/+	c #B7B8B8",
"(+	c #AFAFB0",
"_+	c #ABABAB",
":+	c #A1A2A3",
"<+	c #A2A3A4",
"[+	c #A6A7A8",
"}+	c #ACADAE",
"|+	c #B6B6B7",
"1+	c #BDBEBE",
"2+	c #C2C2C3",
"3+	c #C6C7C7",
"4+	c #C9CACA",
"5+	c #C0C0C1",
"6+	c #ABACAD",
"7+	c #A3A4A5",
"8+	c #9F9F9F",
"9+	c #9B9B9C",
"0+	c #9D9D9D",
"a+	c #989898",
"b+	c #959595",
"c+	c #939393",
"d+	c #9E9E9E",
"e+	c #333333",
". . . . + . @ . . # . $ % . . $ $ . . . ",
". % $ + + & * = - ; > , $ . . . % . % $ ",
"% $ + + & ' ) - - ! ~ { = + + + + % $ + ",
"$ ] ^ + ' / ( _ - : < [ } | 1 % % $ ] ^ ",
"] ] 2 + 3 3 4 5 6 7 8 9 0 a ^ + 2 ] ] 2 ",
"] 2 b c d e f g h i j k l m n o p ] 2 q ",
"2 r s t u v w x y z A B C D E F G 2 r r ",
"H H I J K w L M N O P Q R S T U V H H W ",
"X X Y Z `  ...+.@.#.$.%.&.*.=.-.;.X X >.",
",.,.'.Z ).!.~.{.].^./.(._.:.<.[.}.,.,.>.",
"|.|.1.2.3.4.5.6.7.8.9.0.a.b.c.d.e.|.|.|.",
"f.f.g.h.i.j.k.l.m.n.o.p.q.r.s.t.u.f.f.v.",
"w.w.x.y.2.z.A.B.C.D.E.F.G.H.I.J.K.w.w.L.",
"M.M.N.O.P.Q.R.S.T.U.V.W.X.Y.I.J.Z.M.M.`.",
" + +.+++@+ +w.#+$+%+&+*+=+I.-+;+>+ + +,+",
"'+'+)+!+@+~+=+c.{+|.|.]+-+-+^+/+(+'+'+_+",
"3.3.:+<+[+}+|+1+2+3+4+3+5+i 6+[+7+3.3.8+",
"K K 9+9+9+9+9+9+9+9+9+9+9+9+9+9+9+K K 0+",
"a+a+0+0+K ).` a+b+c+c+b+a+` ` d+3.a+a+0+",
"e+e+e+e+e+e+e+e+e+e+e+e+e+e+e+e+e+e+e+e+"};
