/* XPM */
static char * close_xpm[] = {
"20 20 207 2",
"  	c None",
". 	c #F0F0F0",
"+ 	c #EDEDED",
"@ 	c #EFF0EF",
"# 	c #EEEFEF",
"$ 	c #EEEEEE",
"% 	c #EFEFEF",
"& 	c #EDEDEC",
"* 	c #EFEFEE",
"= 	c #EFF0F0",
"- 	c #EEEEEF",
"; 	c #EDEEEF",
"> 	c #ECECEE",
", 	c #EDEDEE",
"' 	c #F1F1F0",
") 	c #EFEFEC",
"! 	c #EAEAEE",
"~ 	c #EBEBEE",
"{ 	c #EFF0F1",
"] 	c #ECECEC",
"^ 	c #EBEBEB",
"/ 	c #F7F7F7",
"( 	c #F2F3EB",
"_ 	c #F5F5F2",
": 	c #E8E8EC",
"< 	c #EEEEF3",
"[ 	c #F8F9FE",
"} 	c #F9F9F9",
"| 	c #FAFAFA",
"1 	c #F1F1F1",
"2 	c #EAEAEA",
"3 	c #F4F4F4",
"4 	c #F7EDEB",
"5 	c #EFE8EE",
"6 	c #E6E3E5",
"7 	c #E6E4E9",
"8 	c #DBD7EE",
"9 	c #ECE9F2",
"0 	c #ECE7E1",
"a 	c #F4EAF5",
"b 	c #E8E8E8",
"c 	c #F5F5F5",
"d 	c #E1D8DB",
"e 	c #CAC6BB",
"f 	c #ABABA1",
"g 	c #9E9E9C",
"h 	c #BDBEB6",
"i 	c #C5C8B7",
"j 	c #CCCCC0",
"k 	c #E4E4DA",
"l 	c #E4E4E4",
"m 	c #E9E9E9",
"n 	c #CECECE",
"o 	c #979C95",
"p 	c #65656F",
"q 	c #545460",
"r 	c #3A3C39",
"s 	c #525355",
"t 	c #6F737C",
"u 	c #B2BABC",
"v 	c #BDC9BD",
"w 	c #DADADA",
"x 	c #DFDFDF",
"y 	c #E3E3E3",
"z 	c #E7E7E7",
"A 	c #D0D0D0",
"B 	c #989898",
"C 	c #5A585B",
"D 	c #403C33",
"E 	c #685E54",
"F 	c #827273",
"G 	c #5E4F52",
"H 	c #4B4243",
"I 	c #6D6D75",
"J 	c #B7BCD0",
"K 	c #BFBFBF",
"L 	c #C6C6C6",
"M 	c #E2E2E2",
"N 	c #E0E0E0",
"O 	c #B6B6B6",
"P 	c #6A6A6A",
"Q 	c #49334A",
"R 	c #EBF137",
"S 	c #C5B73A",
"T 	c #906A5D",
"U 	c #CBB93B",
"V 	c #E6DF5B",
"W 	c #47392E",
"X 	c #989380",
"Y 	c #C4C4C4",
"Z 	c #B5B5B5",
"` 	c #BEBEBE",
" .	c #DEDEDE",
"..	c #CDCDCD",
"+.	c #A6A6A6",
"@.	c #4B4B4B",
"#.	c #60625F",
"$.	c #D4B12F",
"%.	c #FDE044",
"&.	c #F2D843",
"*.	c #FFE040",
"=.	c #D3B32A",
"-.	c #4D503F",
";.	c #687363",
">.	c #D5D5D5",
",.	c #969696",
"'.	c #C2C2C2",
").	c #D6D6D6",
"!.	c #C3C3C3",
"~.	c #A5A5A5",
"{.	c #474747",
"].	c #7B7670",
"^.	c #7E6376",
"/.	c #D4B735",
"(.	c #F3E638",
"_.	c #D8AE26",
":.	c #6C4E68",
"<.	c #59506F",
"[.	c #4F5D5E",
"}.	c #D9D9D9",
"|.	c #848484",
"1.	c #D3D3D3",
"2.	c #CFCFCF",
"3.	c #BBBBBB",
"4.	c #525252",
"5.	c #5A5559",
"6.	c #D7B925",
"7.	c #F3E24C",
"8.	c #D6BB26",
"9.	c #F9E04F",
"0.	c #D2B12E",
"a.	c #413B45",
"b.	c #757761",
"c.	c #7B7B7B",
"d.	c #ABABAB",
"e.	c #B1B1B1",
"f.	c #808080",
"g.	c #3E3A39",
"h.	c #F8E44D",
"i.	c #D6B83E",
"j.	c #645444",
"k.	c #D5B723",
"l.	c #E8DB4E",
"m.	c #463929",
"n.	c #AEACB1",
"o.	c #BABABA",
"p.	c #7C7C7C",
"q.	c #A7A7A7",
"r.	c #B9B9B9",
"s.	c #B7B7B7",
"t.	c #A0A0A0",
"u.	c #707674",
"v.	c #3D3835",
"w.	c #4D4A39",
"x.	c #5E5246",
"y.	c #474337",
"z.	c #3B3623",
"A.	c #8D919C",
"B.	c #C5CFDB",
"C.	c #888888",
"D.	c #828282",
"E.	c #A4A4A4",
"F.	c #A8A8A8",
"G.	c #929292",
"H.	c #979797",
"I.	c #A9B5A9",
"J.	c #9790A2",
"K.	c #6B6B63",
"L.	c #535955",
"M.	c #757389",
"N.	c #ABA6AD",
"O.	c #CCD2C8",
"P.	c #95A193",
"Q.	c #717171",
"R.	c #8E8E8E",
"S.	c #AFAFAF",
"T.	c #A9A9A9",
"U.	c #8F8F8F",
"V.	c #848C7F",
"W.	c #B29AA7",
"X.	c #D4C7D1",
"Y.	c #D0DEE7",
"Z.	c #D5D2D9",
"`.	c #C5B8B0",
" +	c #857C81",
".+	c #676662",
"++	c #999999",
"@+	c #9F9F9F",
"#+	c #9A9A9A",
"$+	c #7B7E77",
"%+	c #6E6E76",
"&+	c #555B4D",
"*+	c #525B56",
"=+	c #505E5E",
"-+	c #606456",
";+	c #726E6B",
">+	c #888694",
",+	c #939393",
"'+	c #A1A1A1",
")+	c #9C9C9C",
"!+	c #9D9D9D",
"~+	c #898989",
"{+	c #818181",
"]+	c #9B9B9B",
"^+	c #959595",
"/+	c #9E9E9E",
"(+	c #333333",
". . . . + . @ . . # . $ % . . $ $ . . . ",
". % $ + + & * = - ; > , $ . . . % . % $ ",
"% $ + + & ' ) - - ! ~ { = + + + + % $ + ",
"$ ] ^ + ' / ( _ - : < [ } | 1 % % $ ] ^ ",
"] ] 2 + 3 3 4 5 6 7 8 9 0 a ^ + 2 ] ] 2 ",
"] 2 b $ c ] d e f g h i j k l m m ] 2 b ",
"2 m m % ^ n o p q r s t u v w x y 2 m m ",
"l l z m A B C D E F G H I J K L 2 l l z ",
"M M y N O P Q R S T U V W X Y Z ` M M y ",
" . .y ..+.@.#.$.%.&.*.=.-.;.>.,.'. . .y ",
").).).!.~.{.].^./.(._.:.<.[.}.|.Z ).).).",
"1.1.2.3.~.4.5.6.7.8.9.0.a.b.}.c.d.1.1.2.",
"` ` L e.+.f.g.h.i.j.k.l.m.n.o.p.q.` ` L ",
"r.r.s.q.t.+.u.v.w.x.y.z.A.B.C.D.E.r.r.s.",
"o.o.e.F.G.H.I.J.K.L.M.N.O.P.Q.R.~.o.o.e.",
"S.S.d.T.U.|.V.W.X.Y.Z.`. +.+f.+++.S.S.d.",
"t.t.@+t.#+G.$+%+&+*+=+-+;+>+,+B '+t.t.@+",
")+)+!+)+#+++U.~+{+p.p.{+~+U.B )+]+)+)+!+",
"B B !+!+)+]+#+B ^+,+,+^+B #+#+/+t.B B !+",
"(+(+(+(+(+(+(+(+(+(+(+(+(+(+(+(+(+(+(+(+"};
