/* XPM */
static char * max_xpm[] = {
"20 20 236 2",
"  	c None",
". 	c #F0F0F0",
"+ 	c #EDEDED",
"@ 	c #EFF0EF",
"# 	c #EEEFEF",
"$ 	c #EEEEEE",
"% 	c #EFEFEF",
"& 	c #EDEDEC",
"* 	c #EFEFEE",
"= 	c #EFF0F0",
"- 	c #EEEEEF",
"; 	c #EDEEEF",
"> 	c #ECECEE",
", 	c #EDEDEE",
"' 	c #F1F1F0",
") 	c #EFEFEC",
"! 	c #EAEAEE",
"~ 	c #EBEBEE",
"{ 	c #EFF0F1",
"] 	c #ECECEC",
"^ 	c #EBEBEB",
"/ 	c #F2F2F2",
"( 	c #F7F7F7",
"_ 	c #F9F9F9",
": 	c #F8F8F8",
"< 	c #FBFBFB",
"[ 	c #FFFBFF",
"} 	c #FFF6FB",
"| 	c #FFFEFA",
"1 	c #F7F4ED",
"2 	c #FCFBF9",
"3 	c #F8F8F6",
"4 	c #F7F9F6",
"5 	c #F0F3FA",
"6 	c #EAEAEA",
"7 	c #F3F3F3",
"8 	c #F6F6F6",
"9 	c #F1F1F1",
"0 	c #E2DEDB",
"a 	c #F0EDE4",
"b 	c #D9DAD2",
"c 	c #EFF3E4",
"d 	c #E2E5DA",
"e 	c #EFF1EE",
"f 	c #ECEEEB",
"g 	c #E7E7EF",
"h 	c #E8E8E8",
"i 	c #D9D9D9",
"j 	c #C2C2C2",
"k 	c #B2B3B8",
"l 	c #9B9EA5",
"m 	c #B1B8B0",
"n 	c #C3CBCE",
"o 	c #CDD5D7",
"p 	c #DCE2D8",
"q 	c #E2E3E8",
"r 	c #EDEBEC",
"s 	c #E9E9E9",
"t 	c #D2D2D2",
"u 	c #989898",
"v 	c #696969",
"w 	c #514B57",
"x 	c #3C3B39",
"y 	c #545859",
"z 	c #75778C",
"A 	c #ABAEBD",
"B 	c #C6CBC7",
"C 	c #D4D4D6",
"D 	c #E6E1E5",
"E 	c #E3E3E3",
"F 	c #E4E4E4",
"G 	c #E7E7E7",
"H 	c #E5E5E5",
"I 	c #D0D0D0",
"J 	c #979797",
"K 	c #525252",
"L 	c #3D3D3D",
"M 	c #6C573C",
"N 	c #D1C883",
"O 	c #5D5443",
"P 	c #3B363A",
"Q 	c #69686D",
"R 	c #BCBBC3",
"S 	c #C0C1AF",
"T 	c #CDC7D5",
"U 	c #E2E2E2",
"V 	c #E0E0E0",
"W 	c #B9B9B9",
"X 	c #3F3F3F",
"Y 	c #666666",
"Z 	c #E8C766",
"` 	c #E2CB63",
" .	c #CEC068",
"..	c #63554A",
"+.	c #3E3838",
"@.	c #94977C",
"#.	c #C5C3C6",
"$.	c #B4B1B8",
"%.	c #BEBEBE",
"&.	c #DEDEDE",
"*.	c #C7C7D1",
"=.	c #ADA5BC",
"-.	c #57484F",
";.	c #66542E",
">.	c #DFCD81",
",.	c #E0C957",
"'.	c #E0C844",
").	c #E4BF57",
"!.	c #D7B44C",
"~.	c #5A403F",
"{.	c #6B6C6E",
"].	c #CDD6D5",
"^.	c #9B969A",
"/.	c #D6D6D6",
"(.	c #CBCDC8",
"_.	c #9F9E99",
":.	c #4E492C",
"<.	c #CDC682",
"[.	c #D5CD68",
"}.	c #E7C15E",
"|.	c #E4B951",
"1.	c #DDB52F",
"2.	c #D3B725",
"3.	c #B1A93E",
"4.	c #595748",
"5.	c #DDDBE0",
"6.	c #8B817F",
"7.	c #B5B5B5",
"8.	c #D3D3D3",
"9.	c #CFCFCF",
"0.	c #B7BAC3",
"a.	c #AAA9B9",
"b.	c #554F5B",
"c.	c #5C534E",
"d.	c #675C4A",
"e.	c #D8BA48",
"f.	c #DAB936",
"g.	c #D7BB34",
"h.	c #604440",
"i.	c #484735",
"j.	c #707589",
"k.	c #D2DBD6",
"l.	c #757984",
"m.	c #ABABAB",
"n.	c #C6C6C6",
"o.	c #ACAFB6",
"p.	c #A6A9AE",
"q.	c #7D7E80",
"r.	c #545351",
"s.	c #615E59",
"t.	c #D8B533",
"u.	c #E1BB32",
"v.	c #CAAF22",
"w.	c #604B4A",
"x.	c #464832",
"y.	c #AEADB3",
"z.	c #BABBAB",
"A.	c #7F7F7D",
"B.	c #A7A7A7",
"C.	c #B7B7B7",
"D.	c #ABADA8",
"E.	c #969C90",
"F.	c #A6AC9E",
"G.	c #666A5C",
"H.	c #6B6E65",
"I.	c #CEB534",
"J.	c #C0A520",
"K.	c #B4A32F",
"L.	c #534846",
"M.	c #7C7F88",
"N.	c #CFD1D0",
"O.	c #808074",
"P.	c #87868E",
"Q.	c #A4A4A4",
"R.	c #BABABA",
"S.	c #B1B1B1",
"T.	c #ABABAD",
"U.	c #95969B",
"V.	c #9494A0",
"W.	c #ACAABF",
"X.	c #7A7A92",
"Y.	c #6A525F",
"Z.	c #614C51",
"`.	c #665B55",
" +	c #8B8C90",
".+	c #C3CBD8",
"++	c #96A098",
"@+	c #6D746D",
"#+	c #898E92",
"$+	c #A5A5A5",
"%+	c #AFAFAF",
"&+	c #A2A0A1",
"*+	c #979596",
"=+	c #858587",
"-+	c #808080",
";+	c #A3A5A2",
">+	c #D2C4BB",
",+	c #E4DAD8",
"'+	c #D5CED5",
")+	c #BAB4B8",
"!+	c #8A8490",
"~+	c #65626B",
"{+	c #847E80",
"]+	c #9D919B",
"^+	c #A6A6A6",
"/+	c #A0A0A0",
"(+	c #9F9F9F",
"_+	c #A3A29D",
":+	c #9D999A",
"<+	c #959396",
"[+	c #807F7D",
"}+	c #6B6C64",
"|+	c #575B5C",
"1+	c #515C60",
"2+	c #546265",
"3+	c #5A5F58",
"4+	c #727560",
"5+	c #7F828B",
"6+	c #8F9392",
"7+	c #9D97A1",
"8+	c #A1A1A1",
"9+	c #9C9C9C",
"0+	c #9D9D9D",
"a+	c #9E9E9E",
"b+	c #9B9B9B",
"c+	c #969696",
"d+	c #8F8F8F",
"e+	c #8B8B8B",
"f+	c #7F7F7F",
"g+	c #828282",
"h+	c #888888",
"i+	c #909090",
"j+	c #9A9A9A",
"k+	c #959595",
"l+	c #939393",
"m+	c #333333",
". . . . + . @ . . # . $ % . . $ $ . . . ",
". % $ + + & * = - ; > , $ . . . % . % $ ",
"% $ + + & ' ) - - ! ~ { = + + + + % $ + ",
"$ ] ^ / ( _ : < [ } | 1 2 3 4 5 % $ ] ^ ",
"] ] 6 + 7 8 9 $ 0 a b c d e f g 6 ] ] 6 ",
"] 6 h . 9 . i j k l m n o p q r s ] 6 h ",
"6 s s + s t u v w x y z A B C D E 6 s s ",
"F F G H I J K L M N O P Q R S T 6 F F G ",
"U U E V W v X Y Z `  ...+.@.#.$.%.U U E ",
"&.&.E *.=.-.;.>.,.'.).!.~.{.].^.j &.&.E ",
"/././.(._.:.<.[.}.|.1.2.3.4.5.6.7./././.",
"8.8.9.0.a.b.c.d.e.f.g.h.i.j.k.l.m.8.8.9.",
"%.%.n.o.p.q.r.s.t.u.v.w.x.y.z.A.B.%.%.n.",
"W W C.D.E.F.G.H.I.J.K.L.M.N.O.P.Q.W W C.",
"R.R.S.T.U.V.W.X.Y.Z.`. +.+++@+#+$+R.R.S.",
"%+%+m.&+*+=+-+;+>+,+'+)+!+~+{+]+^+%+%+m.",
"/+/+(+_+:+<+[+}+|+1+2+3+4+5+6+7+8+/+/+(+",
"9+9+0+a+b+c+d+e+-+f+f+g+h+i+J b+b+9+9+0+",
"u u 0+0+9+b+j+u k+l+l+k+u j+j+a+/+u u 0+",
"m+m+m+m+m+m+m+m+m+m+m+m+m+m+m+m+m+m+m+m+"};
