/* XPM */
static char * maxD_xpm[] = {
"20 20 219 2",
"  	c None",
". 	c #F0F0F0",
"+ 	c #EDEDED",
"@ 	c #EFF0EF",
"# 	c #EEEFEF",
"$ 	c #EEEEEE",
"% 	c #EFEFEF",
"& 	c #EDEDEC",
"* 	c #EFEFEE",
"= 	c #EFF0F0",
"- 	c #EEEEEF",
"; 	c #EDEEEF",
"> 	c #ECECEE",
", 	c #EDEDEE",
"' 	c #F1F1F0",
") 	c #EFEFEC",
"! 	c #EAEAEE",
"~ 	c #EBEBEE",
"{ 	c #EFF0F1",
"] 	c #ECECEC",
"^ 	c #EBEBEB",
"/ 	c #F7F7F7",
"( 	c #F2F3EB",
"_ 	c #F5F5F2",
": 	c #E8E8EC",
"< 	c #EEEEF3",
"[ 	c #F8F9FE",
"} 	c #F9F9F9",
"| 	c #FAFAFA",
"1 	c #F1F1F1",
"2 	c #E6EAEC",
"3 	c #E4E7E9",
"4 	c #DFE2E4",
"5 	c #D5D8D9",
"6 	c #C1C3C4",
"7 	c #B6B8B9",
"8 	c #B2B4B5",
"9 	c #B4B5B6",
"0 	c #B3B5B5",
"a 	c #B8B9BA",
"b 	c #C0C2C3",
"c 	c #C2C4C5",
"d 	c #CACCCD",
"e 	c #D4D7D8",
"f 	c #E1E4E6",
"g 	c #EAEAEA",
"h 	c #DCDFE2",
"i 	c #D1D4D6",
"j 	c #B6B7B8",
"k 	c #999999",
"l 	c #979797",
"m 	c #737373",
"n 	c #534B56",
"o 	c #3C3B39",
"p 	c #555857",
"q 	c #80808D",
"r 	c #AAABAC",
"s 	c #BEC0C2",
"t 	c #C3C5C7",
"u 	c #BFC1C2",
"v 	c #D2D5D7",
"w 	c #E8E8E8",
"x 	c #E9E9E9",
"y 	c #D0D2D4",
"z 	c #B0B1B1",
"A 	c #9C9C9C",
"B 	c #575757",
"C 	c #3D3D3D",
"D 	c #6C573C",
"E 	c #D1C883",
"F 	c #5D5443",
"G 	c #3B363A",
"H 	c #6E6C70",
"I 	c #B1B2B3",
"J 	c #C3C5C6",
"K 	c #C8C9CA",
"L 	c #C9CBCC",
"M 	c #E4E4E4",
"N 	c #C1C2C4",
"O 	c #A1A1A1",
"P 	c #9A9A9A",
"Q 	c #717171",
"R 	c #3F3F3F",
"S 	c #666666",
"T 	c #E8C766",
"U 	c #E2CB63",
"V 	c #CEC068",
"W 	c #63554A",
"X 	c #3E3838",
"Y 	c #9B9D8E",
"Z 	c #BFBFC0",
"` 	c #C4C5C6",
" .	c #C7C8CA",
"..	c #E7E7E7",
"+.	c #E2E2E2",
"@.	c #BEC0C1",
"#.	c #9B9B9B",
"$.	c #56484F",
"%.	c #66542E",
"&.	c #DFCD81",
"*.	c #E0C957",
"=.	c #E0C844",
"-.	c #E4BF57",
";.	c #D7B44C",
">.	c #5A403F",
",.	c #6B6D6E",
"'.	c #C5C5C5",
").	c #C7C8C8",
"!.	c #C5C6C7",
"~.	c #E3E3E3",
"{.	c #DEDEDE",
"].	c #BCBEBF",
"^.	c #A4A4A4",
"/.	c #A0A0A0",
"(.	c #4E492C",
"_.	c #CDC682",
":.	c #D5CD68",
"<.	c #E7C15E",
"[.	c #E4B951",
"}.	c #DDB52F",
"|.	c #D3B725",
"1.	c #B1A93E",
"2.	c #595748",
"3.	c #D2D2D2",
"4.	c #CDCDCD",
"5.	c #C7C8C9",
"6.	c #D6D6D6",
"7.	c #BABBBC",
"8.	c #A5A5A5",
"9.	c #A3A3A3",
"0.	c #554F59",
"a.	c #5C534E",
"b.	c #675C4A",
"c.	c #D8BA48",
"d.	c #DAB936",
"e.	c #D7BB34",
"f.	c #604440",
"g.	c #484735",
"h.	c #717686",
"i.	c #DADADA",
"j.	c #D7D7D7",
"k.	c #C9CACB",
"l.	c #D3D3D3",
"m.	c #B9BABB",
"n.	c #AAAAAA",
"o.	c #828185",
"p.	c #545351",
"q.	c #615E59",
"r.	c #D8B533",
"s.	c #E1BB32",
"t.	c #CAAF22",
"u.	c #604B4A",
"v.	c #464832",
"w.	c #AEAFAC",
"x.	c #DFDFDF",
"y.	c #D8D8D8",
"z.	c #C8C9C9",
"A.	c #CFCFCF",
"B.	c #BEBEBE",
"C.	c #B7B9B9",
"D.	c #B8B8B8",
"E.	c #AEAEAE",
"F.	c #A6A6A6",
"G.	c #6A6D61",
"H.	c #6B6E65",
"I.	c #CEB534",
"J.	c #C0A520",
"K.	c #B4A32F",
"L.	c #534846",
"M.	c #808187",
"N.	c #CCCCCC",
"O.	c #C4C5C5",
"P.	c #C6C6C6",
"Q.	c #B9B9B9",
"R.	c #B0B2B2",
"S.	c #BABBBB",
"T.	c #BCBCBC",
"U.	c #BABABA",
"V.	c #909199",
"W.	c #6B5662",
"X.	c #614C51",
"Y.	c #685F59",
"Z.	c #9E9CA0",
"`.	c #CBCBCB",
" +	c #E1E1E1",
".+	c #CFD0D0",
"++	c #B8B9B9",
"@+	c #B7B7B7",
"#+	c #A9AAAB",
"$+	c #AEAFAF",
"%+	c #C4C4C4",
"&+	c #D9D9D9",
"*+	c #DDDDDD",
"=+	c #D0D0D0",
"-+	c #B7B8B8",
";+	c #AFAFB0",
">+	c #B1B1B1",
",+	c #AFAFAF",
"'+	c #A1A2A3",
")+	c #A2A3A4",
"!+	c #A6A7A8",
"~+	c #ACADAE",
"{+	c #B6B6B7",
"]+	c #BDBEBE",
"^+	c #C2C2C3",
"/+	c #C6C7C7",
"(+	c #C9CACA",
"_+	c #C0C0C1",
":+	c #ABACAD",
"<+	c #A3A4A5",
"[+	c #ABABAB",
"}+	c #9B9B9C",
"|+	c #9F9F9F",
"1+	c #9D9D9D",
"2+	c #989898",
"3+	c #959595",
"4+	c #939393",
"5+	c #9E9E9E",
"6+	c #333333",
". . . . + . @ . . # . $ % . . $ $ . . . ",
". % $ + + & * = - ; > , $ . . . % . % $ ",
"% $ + + & ' ) - - ! ~ { = + + + + % $ + ",
"$ ] ^ + ' / ( _ - : < [ } | 1 % % $ ] ^ ",
"] ] 2 3 4 5 6 7 8 9 0 a b c d e f ] ] g ",
"] g h i j k l m n o p q r s t u v ] g w ",
"g x y z A l B C D E F G H I J K L g x x ",
"M M N O P Q R S T U V W X Y Z `  .M M ..",
"+.+.@.O #.$.%.&.*.=.-.;.>.,.'.).!.+.+.~.",
"{.{.].^./.(._.:.<.[.}.|.1.2.3.4.5.{.{.~.",
"6.6.7.8.9.0.a.b.c.d.e.f.g.h.i.j.k.6.6.6.",
"l.l.m.n.^.o.p.q.r.s.t.u.v.w.x.y.z.l.l.A.",
"B.B.C.D.E.F.G.H.I.J.K.L.M.N.x.y.O.B.B.P.",
"Q.Q.R.S.T.U.B.V.W.X.Y.Z.`.x. +.+++Q.Q.@+",
"U.U.#+$+T.%+`.3.&+6.6.*+ + +=+-+;+U.U.>+",
",+,+'+)+!+~+{+]+^+/+(+/+_+9 :+!+<+,+,+[+",
"/./.}+}+}+}+}+}+}+}+}+}+}+}+}+}+}+/./.|+",
"A A }+}+}+}+}+}+}+}+}+}+}+}+}+}+}+A A 1+",
"2+2+1+1+A #.P 2+3+4+4+3+2+P P 5+/.2+2+1+",
"6+6+6+6+6+6+6+6+6+6+6+6+6+6+6+6+6+6+6+6+"};
