/* XPM */
static char * title_xpm[] = {
"8 20 38 1",
" 	c None",
".	c #6B7BAF",
"+	c #6D7DB0",
"@	c #6C7CB0",
"#	c #6D7CB0",
"$	c #6E7EB1",
"%	c #707FB2",
"&	c #6F7FB1",
"*	c #707FB1",
"=	c #7181B2",
"-	c #7180B2",
";	c #7382B3",
">	c #7282B3",
",	c #7483B4",
"'	c #7685B5",
")	c #7584B5",
"!	c #7684B5",
"~	c #7786B6",
"{	c #7786B5",
"]	c #7987B7",
"^	c #7887B6",
"/	c #7A89B7",
"(	c #7A88B7",
"_	c #7C8AB8",
":	c #7B8AB8",
"<	c #7D8BB9",
"[	c #7F8DBA",
"}	c #7E8CB9",
"|	c #808EBB",
"1	c #808EBA",
"2	c #828FBB",
"3	c #818FBB",
"4	c #8391BC",
"5	c #8390BC",
"6	c #8592BD",
"7	c #8491BD",
"8	c #8492BD",
"9	c #8693BD",
"........",
"+++@@@##",
"$$$$$$$$",
"%%%&&&**",
"===-----",
";;;>>>;;",
",,,,,,,,",
"''')))!!",
"~~~{{{{{",
"]]]^^^^^",
"///(((((",
"___:::::",
"<<<<<<<<",
"[[[}}}}}",
"|||11111",
"22233333",
"44455555",
"66677788",
"66677799",
"66677799"};
