/* XPM */
static char * max_unpressed_xpm[] = {
"19 19 65 1",
" 	c #8494AE",
".	c #C3CEE1",
"+	c #A6B6D3",
"@	c #95A5C3",
"#	c #7587A3",
"$	c #DAD9D5",
"%	c #F7F6F3",
"&	c #FAF9F6",
"*	c #FBFAF7",
"=	c #F9F8F5",
"-	c #F2F1EE",
";	c #F5F4F1",
">	c #F8F7F4",
",	c #EAE9E6",
"'	c #EFEEEA",
")	c #F2F1ED",
"!	c #F5F4F0",
"~	c #F6F5F1",
"{	c #EEEDE9",
"]	c #E0E2E0",
"^	c #E8E7E2",
"/	c #ECEBE6",
"(	c #EFEEE9",
"_	c #93938D",
":	c #EBEAE6",
"<	c #DFDFDC",
"[	c #E5E4DF",
"}	c #E9E8E4",
"|	c #E8E8E3",
"1	c #DCDCD9",
"2	c #E1E0DB",
"3	c #E6E5E0",
"4	c #D8D8D6",
"5	c #DEDDD8",
"6	c #E3E2DC",
"7	c #E6E5DF",
"8	c #E8E7E1",
"9	c #E5E4DE",
"0	c #E2E1DB",
"a	c #D5D5D3",
"b	c #D9D9D4",
"c	c #DDDCD7",
"d	c #E0DFDA",
"e	c #E3E2DD",
"f	c #D1D2CF",
"g	c #D5D4CF",
"h	c #D9D8D3",
"i	c #DBDAD6",
"j	c #D8D7D2",
"k	c #CECECB",
"l	c #CFCFCA",
"m	c #D2D1CD",
"n	c #D4D3CE",
"o	c #D6D5D0",
"p	c #D1D0CC",
"q	c #C8C8C6",
"r	c #B4B5B3",
"s	c #CAC9C5",
"t	c #CCCBC7",
"u	c #CDCCC7",
"v	c #CBCAC6",
"w	c #8195B7",
"x	c #C5C4C0",
"y	c #C6C5C0",
"z	c #677B9B",
"                   ",
"...................",
"+++@###########@+++",
"++@#$%&*****=%$#@++",
"++#$-;>=====>;-$#++",
"++#,')!~~~~~!){]#++",
"++#^/(_______(:<#++",
"++#[}/_______/|1#++",
"++#23^_/////_^[4#++",
"++#567_88888_90a#++",
"++#bcd_eeeee_dcf#++",
"++#ghi_______$jk#++",
"++#lmngooooognpq#++",
"++#rstuuuuuuuvsr#++",
"++w#rxxyyyyyxxr#w++",
"+++w###########w+++",
"+++++++++++++++++++",
"zzzzzzzzzzzzzzzzzzz",
"eeeeeeeeeeeeeeeeeee"};
