/* XPM */
static char * close_pressed_xpm[] = {
"20 21 295 2",
"  	c #A1CDEA",
". 	c #A3CFEC",
"+ 	c #A3CCEA",
"@ 	c #A4CDEB",
"# 	c #A2CEEB",
"$ 	c #A1CCEC",
"% 	c #A0CCE9",
"& 	c #8AB7D6",
"* 	c #89B6D3",
"= 	c #8BB6D6",
"- 	c #8CB7D7",
"; 	c #8BB7D4",
"> 	c #8DB9D6",
", 	c #8BB8D5",
"' 	c #8AB7D4",
") 	c #84B5D5",
"! 	c #85B6D4",
"~ 	c #83B4D4",
"{ 	c #86B4D5",
"] 	c #87B5D6",
"^ 	c #709DBE",
"/ 	c #5E8BAC",
"( 	c #4C7797",
"_ 	c #406C89",
": 	c #3E6B88",
"< 	c #4A7794",
"[ 	c #5D8AA9",
"} 	c #709FBD",
"| 	c #85B6D6",
"1 	c #84B5D3",
"2 	c #7FB2D1",
"3 	c #81B4D3",
"4 	c #7EB1D0",
"5 	c #80B3D2",
"6 	c #78A9C9",
"7 	c #5B89AA",
"8 	c #3C698A",
"9 	c #2C5777",
"0 	c #234C6A",
"a 	c #1C4561",
"b 	c #1A4663",
"c 	c #224E6B",
"d 	c #2B5877",
"e 	c #3B6A88",
"f 	c #598AAA",
"g 	c #77A8C8",
"h 	c #7CAFCE",
"i 	c #7AADCC",
"j 	c #73A4C4",
"k 	c #5685A3",
"l 	c #376282",
"m 	c #416887",
"n 	c #547A97",
"o 	c #557B94",
"p 	c #537893",
"q 	c #486D89",
"r 	c #38617D",
"s 	c #1D4966",
"t 	c #346180",
"u 	c #5786A4",
"v 	c #74A5C5",
"w 	c #77AAC9",
"x 	c #76A9C8",
"y 	c #5D8CAA",
"z 	c #3A6683",
"A 	c #2C5370",
"B 	c #50758E",
"C 	c #486A82",
"D 	c #325369",
"E 	c #315368",
"F 	c #33566D",
"G 	c #34566C",
"H 	c #3C5E76",
"I 	c #406781",
"J 	c #234F6C",
"K 	c #386584",
"L 	c #5B8CAC",
"M 	c #71A6C5",
"N 	c #73A6C5",
"O 	c #6997B8",
"P 	c #457291",
"Q 	c #214A66",
"R 	c #527791",
"S 	c #3E5F74",
"T 	c #2E4E63",
"U 	c #375A70",
"V 	c #3D6177",
"W 	c #3C5F75",
"X 	c #37596D",
"Y 	c #395C71",
"Z 	c #355C76",
"` 	c #1C4767",
" .	c #457394",
"..	c #6A9BBB",
"+.	c #6CA1C0",
"@.	c #6EA1C0",
"#.	c #5E8CAD",
"$.	c #385F7C",
"%.	c #4B6E85",
"&.	c #315166",
"*.	c #95B5BD",
"=.	c #395A6D",
"-.	c #3D5E71",
";.	c #406174",
">.	c #3B5B6F",
",.	c #A1C1C9",
"'.	c #385A6E",
").	c #375B75",
"!.	c #254E6C",
"~.	c #376483",
"{.	c #5F8DAE",
"].	c #689DBD",
"^.	c #6A9DBC",
"/.	c #5B88A9",
"(.	c #2C5573",
"_.	c #446984",
":.	c #2D4F65",
"<.	c #36576B",
"[.	c #B6D2D8",
"}.	c #3E5A66",
"|.	c #3C5966",
"1.	c #9AB9C0",
"2.	c #3B5C6D",
"3.	c #3A5D73",
"4.	c #335770",
"5.	c #274E6B",
"6.	c #285373",
"7.	c #5B88A7",
"8.	c #6297B7",
"9.	c #6497B6",
"0.	c #1D4664",
"a.	c #496D88",
"b.	c #355871",
"c.	c #315469",
"d.	c #37566A",
"e.	c #3B5762",
"f.	c #A4BEC5",
"g.	c #9BB4BC",
"h.	c #3C5663",
"i.	c #375668",
"j.	c #36596F",
"k.	c #32566F",
"l.	c #254C68",
"m.	c #1F4866",
"n.	c #5F8AAA",
"o.	c #5E93B3",
"p.	c #5F92B1",
"q.	c #6491B0",
"r.	c #3C647D",
"s.	c #2E526B",
"t.	c #2D5066",
"u.	c #325163",
"v.	c #344E5C",
"w.	c #97B0B8",
"x.	c #A4BBC3",
"y.	c #38505E",
"z.	c #335264",
"A.	c #2F5268",
"B.	c #2B4F67",
"C.	c #204560",
"D.	c #6590B0",
"E.	c #588DAD",
"F.	c #5A8DAC",
"G.	c #6695B3",
"H.	c #2D5976",
"I.	c #2F5673",
"J.	c #284C66",
"K.	c #2B4B60",
"L.	c #2D4B5D",
"M.	c #A0BBC2",
"N.	c #314955",
"O.	c #334B57",
"P.	c #C8E3E6",
"Q.	c #2D4C5E",
"R.	c #2B4E62",
"S.	c #22465E",
"T.	c #1A3F5A",
"U.	c #305977",
"V.	c #6693B2",
"W.	c #5388A7",
"X.	c #5588A7",
"Y.	c #6492B3",
"Z.	c #487594",
"`.	c #1D4662",
" +	c #244860",
".+	c #26475A",
"++	c #ACCACF",
"@+	c #284555",
"#+	c #2A4757",
"$+	c #294656",
"%+	c #C7E6E9",
"&+	c #234457",
"*+	c #193B54",
"=+	c #183D5A",
"-+	c #4A7693",
";+	c #6493B1",
">+	c #4E83A2",
",+	c #5083A2",
"'+	c #5A8BAB",
")+	c #6897B5",
"!+	c #19425E",
"~+	c #1B405A",
"{+	c #1E3E53",
"]+	c #224155",
"^+	c #204154",
"/+	c #214156",
"(+	c #224257",
"_+	c #214255",
":+	c #1E3D4F",
"<+	c #18394C",
"[+	c #123650",
"}+	c #19405D",
"|+	c #6996B3",
"1+	c #5B8CAA",
"2+	c #487D9D",
"3+	c #497E9E",
"4+	c #4A7C9D",
"5+	c #6495B5",
"6+	c #608CA9",
"7+	c #173F59",
"8+	c #153953",
"9+	c #14374D",
"0+	c #16394F",
"a+	c #173A50",
"b+	c #13364C",
"c+	c #113148",
"d+	c #10324B",
"e+	c #163E58",
"f+	c #5F8BA8",
"g+	c #4A7D9A",
"h+	c #447999",
"i+	c #467899",
"j+	c #4E7FA0",
"k+	c #6C9ABB",
"l+	c #6490AD",
"m+	c #183F5C",
"n+	c #143954",
"o+	c #0E324C",
"p+	c #082C46",
"q+	c #0C304A",
"r+	c #123752",
"s+	c #153C59",
"t+	c #6C9BB9",
"u+	c #4E7F9D",
"v+	c #467996",
"w+	c #3F7494",
"x+	c #407595",
"y+	c #417698",
"z+	c #437598",
"A+	c #4B7C9D",
"B+	c #6896B7",
"C+	c #76A3C2",
"D+	c #55819E",
"E+	c #234A67",
"F+	c #224A64",
"G+	c #54809D",
"H+	c #77A4C3",
"I+	c #6596B6",
"J+	c #4A7D9C",
"K+	c #427594",
"L+	c #407594",
"M+	c #3F7192",
"N+	c #3E7091",
"O+	c #3D6F90",
"P+	c #3F7091",
"Q+	c #5482A3",
"R+	c #6998B6",
"S+	c #7AA5C5",
"T+	c #86B2CF",
"U+	c #7AA6C3",
"V+	c #5283A3",
"W+	c #3F7291",
"X+	c #3C7191",
"Y+	c #407293",
"Z+	c #3D7291",
"`+	c #3B6C8C",
" @	c #3D6E8E",
".@	c #3E6C8D",
"+@	c #3E6D8B",
"@@	c #3F6C8B",
"#@	c #3D6B8C",
"$@	c #3E6F8F",
"%@	c #3C6D8D",
"&@	c #3B6E8D",
"*@	c #3A6D8A",
"=@	c #406C87",
"-@	c #426B87",
";@	c #416A86",
">@	c #416D88",
",@	c #406C85",
"'@	c #274A5E",
")@	c #284B5F",
"!@	c #2A4A5F",
"~@	c #29495E",
"{@	c #2B4C5F",
"  . + @ #   $ $       % #   #   # %     ",
"& * = - & & - = ; ; ; > ; , & ' & ' & & ",
") ! ~ ) { ] ^ / ( _ : < [ } | ! ) 1 ) ) ",
"2 3 4 5 6 7 8 9 0 a b c d e f g 5 4 2 2 ",
"h i h j k l 0 m n o p q r s t u v h h h ",
"w x 6 y z A B C D E F G H I J K L w w w ",
"M N O P Q R S T E U V W X Y Z `  ...M M ",
"+.@.#.l $.%.&.*.=.-.;.>.,.'.).!.~.{.+.+.",
"].^./.(._.W :.<.[.}.|.1.2.3.4.5.6.7.].].",
"8.9.[ 0.a.b.c.d.e.f.g.h.i.j.k.l.m.n.8.8.",
"o.p.q.m.r.s.t.u.v.w.x.y.z.A.B.C.m.D.o.o.",
"E.F.G.H.I.J.K.L.M.N.O.P.Q.R.S.T.U.V.E.E.",
"W.X.Y.Z.`. +.+++@+#+$+@+%+&+*+=+-+;+W.W.",
">+,+'+)+!+~+{+]+^+/+(+_+:+<+[+}+|+1+>+>+",
"2+3+4+5+6+7+8+9+0+a+a+b+c+d+e+f+G.g+2+2+",
"h+h+i+j+k+l+m+n+o+p+p+q+r+s+l+t+u+v+h+h+",
"w+x+y+z+A+B+C+D+r E+F+r G+H+I+J+K+L+w+w+",
"M+N+M+O+N+P+Q+R+S+T+T+U+R+V+W+X+Y+Z+M+M+",
"`+ @`+ @ @`+.@+@+@+@@@+@#@$@%@&@`+*@`+`+",
"=@=@-@-@=@=@-@-@=@=@;@-@>@=@=@=@=@,@=@=@",
"'@)@K.!@~@K.K.~@K.!@!@!@!@!@!@!@!@{@'@'@"};
