/* XPM */
static char * max_unpressed_xpm[] = {
"20 21 303 2",
"  	c #A3CCEA",
". 	c #A2CEEB",
"+ 	c #A1CDEA",
"@ 	c #A1CCEC",
"# 	c #A2CDED",
"$ 	c #A0CCE9",
"% 	c #A2CEE9",
"& 	c #A1CDE8",
"* 	c #8BB6D6",
"= 	c #8CB8D5",
"- 	c #8AB7D6",
"; 	c #8BB8D5",
"> 	c #8CB7D7",
", 	c #8AB5D5",
"' 	c #8BB7D4",
") 	c #8AB7D4",
"! 	c #8BB8D7",
"~ 	c #89B6D5",
"{ 	c #84B5D5",
"] 	c #84B5D3",
"^ 	c #85B6D6",
"/ 	c #86B4D5",
"( 	c #729FC0",
"_ 	c #5C89A8",
": 	c #4E7999",
"< 	c #3F6B88",
"[ 	c #406B8B",
"} 	c #4C7797",
"| 	c #5B88A7",
"1 	c #72A1BF",
"2 	c #85B6D4",
"3 	c #7FB2D1",
"4 	c #80B3D2",
"5 	c #80B1D1",
"6 	c #77A8C8",
"7 	c #5B89AA",
"8 	c #3B6887",
"9 	c #2C5777",
"0 	c #234C6A",
"a 	c #1C4561",
"b 	c #1D4664",
"c 	c #224E6B",
"d 	c #2C5978",
"e 	c #3A6987",
"f 	c #5A8BAB",
"g 	c #80B2D3",
"h 	c #7CADCE",
"i 	c #7BACCD",
"j 	c #7FB0D1",
"k 	c #74A5C5",
"l 	c #5684A5",
"m 	c #366382",
"n 	c #224B69",
"o 	c #416885",
"p 	c #5A829C",
"q 	c #6B93AD",
"r 	c #658CA9",
"s 	c #547B98",
"t 	c #38617F",
"u 	c #1F4B68",
"v 	c #356281",
"w 	c #75A6C7",
"x 	c #7BADCE",
"y 	c #79AECE",
"z 	c #7AAFCF",
"A 	c #79AACB",
"B 	c #77A8C9",
"C 	c #78A9CA",
"D 	c #5C8AAB",
"E 	c #386584",
"F 	c #29526E",
"G 	c #557A95",
"H 	c #678BA3",
"I 	c #5A7E94",
"J 	c #50748A",
"K 	c #4C718B",
"L 	c #4E7690",
"M 	c #568099",
"N 	c #416A86",
"O 	c #244D6D",
"P 	c #386586",
"Q 	c #78AACB",
"R 	c #75AACA",
"S 	c #76ABCB",
"T 	c #72A4C5",
"U 	c #74A5C6",
"V 	c #6899B9",
"W 	c #467392",
"X 	c #1F4B66",
"Y 	c #527791",
"Z 	c #5F8296",
"` 	c #506F81",
" .	c #486978",
"..	c #466A7A",
"+.	c #456B82",
"@.	c #436B84",
"#.	c #436D85",
"$.	c #47718A",
"%.	c #365F7D",
"&.	c #1A4565",
"*.	c #477495",
"=.	c #71A6C6",
"-.	c #6EA0C1",
";.	c #6EA1C0",
">.	c #5E8CAD",
",.	c #366380",
"'.	c #37607C",
").	c #5C8098",
"!.	c #4B6A7C",
"~.	c #E4FFFF",
"{.	c #DEFFFF",
"].	c #40647A",
"^.	c #3E667F",
"/.	c #3D657E",
"(.	c #3F6780",
"_.	c #3C6380",
":.	c #254E6C",
"<.	c #386383",
"[.	c #6CA1C1",
"}.	c #679CBC",
"|.	c #6A9DBC",
"1.	c #5A88A9",
"2.	c #295572",
"3.	c #446C86",
"4.	c #4A6E84",
"5.	c #405D6D",
"6.	c #E6FFFF",
"7.	c #425E6C",
"8.	c #3F5E70",
"9.	c #3B5E72",
"0.	c #3B6178",
"a.	c #395F76",
"b.	c #395E78",
"c.	c #3A5F7A",
"d.	c #264D6A",
"e.	c #2C5575",
"f.	c #699CBB",
"g.	c #679CBB",
"h.	c #6499B9",
"i.	c #6396B5",
"j.	c #5D8AAB",
"k.	c #1E4765",
"l.	c #49718B",
"m.	c #3A5E74",
"n.	c #3A596B",
"o.	c #E3FFFF",
"p.	c #395666",
"q.	c #39586A",
"r.	c #38596C",
"s.	c #36596D",
"t.	c #375A6E",
"u.	c #35596F",
"v.	c #345872",
"w.	c #274C69",
"x.	c #1F4665",
"y.	c #5D8AA9",
"z.	c #6697B7",
"A.	c #6297B6",
"B.	c #5D92B2",
"C.	c #5F92B1",
"D.	c #6491B2",
"E.	c #30546C",
"F.	c #305369",
"G.	c #325267",
"H.	c #335467",
"I.	c #325366",
"J.	c #325163",
"K.	c #335362",
"L.	c #335264",
"M.	c #2E5167",
"N.	c #1E435E",
"O.	c #6390AF",
"P.	c #6091B1",
"Q.	c #5E93B3",
"R.	c #588DAD",
"S.	c #5A8DAC",
"T.	c #6795B6",
"U.	c #2E5A77",
"V.	c #2D556F",
"W.	c #284D67",
"X.	c #2A4E66",
"Y.	c #284C62",
"Z.	c #2A4D63",
"`.	c #2C4D60",
" +	c #2F4C5C",
".+	c #2F4B59",
"++	c #E7FFFF",
"@+	c #25455C",
"#+	c #1A3F5A",
"$+	c #315A78",
"%+	c #6794B3",
"&+	c #5A8CAD",
"*+	c #568BAB",
"=+	c #5287A7",
"-+	c #5588A7",
";+	c #6593B4",
">+	c #487592",
",+	c #1D4662",
"'+	c #234863",
")+	c #21455F",
"!+	c #24485E",
"~+	c #24475D",
"{+	c #264758",
"]+	c #274454",
"^+	c #1C3C53",
"/+	c #163B56",
"(+	c #497592",
"_+	c #6493B1",
":+	c #5587A8",
"<+	c #5388A8",
"[+	c #4F84A4",
"}+	c #4F81A2",
"|+	c #6998B6",
"1+	c #174360",
"2+	c #183F5C",
"3+	c #1B405A",
"4+	c #1D4159",
"5+	c #1F4258",
"6+	c #204154",
"7+	c #233E4F",
"8+	c #24404E",
"9+	c #17364A",
"0+	c #11354D",
"a+	c #19405D",
"b+	c #6996B5",
"c+	c #5B8CAC",
"d+	c #4D82A2",
"e+	c #4E83A3",
"f+	c #497E9E",
"g+	c #4B7D9E",
"h+	c #6596B6",
"i+	c #5F8CA9",
"j+	c #17405C",
"k+	c #143954",
"l+	c #143852",
"m+	c #163851",
"n+	c #1A3A51",
"o+	c #1B3A4F",
"p+	c #16354A",
"q+	c #103047",
"r+	c #0F334B",
"s+	c #153D57",
"t+	c #5F8BA8",
"u+	c #6694B5",
"v+	c #4A7C9D",
"w+	c #487F9E",
"x+	c #447999",
"y+	c #467B9B",
"z+	c #467899",
"A+	c #4D809F",
"B+	c #6C9BB9",
"C+	c #628FAC",
"D+	c #153A55",
"E+	c #0D304C",
"F+	c #092D47",
"G+	c #082A45",
"H+	c #0D314B",
"I+	c #123752",
"J+	c #6490AD",
"K+	c #6D9CBA",
"L+	c #4E7F9F",
"M+	c #437A99",
"N+	c #407595",
"O+	c #417394",
"P+	c #4B7E9D",
"Q+	c #76A3C2",
"R+	c #57809E",
"S+	c #39607F",
"T+	c #224966",
"U+	c #234A67",
"V+	c #3A617E",
"W+	c #77A4C3",
"X+	c #6896B7",
"Y+	c #4B7C9C",
"Z+	c #427495",
"`+	c #3F7192",
" @	c #3E7091",
".@	c #3D6F90",
"+@	c #407192",
"@@	c #5482A3",
"#@	c #6996B7",
"$@	c #7AA5C5",
"%@	c #86B2CF",
"&@	c #87B3D0",
"*@	c #6A97B6",
"=@	c #407191",
"-@	c #3D7292",
";@	c #3C6D8D",
">@	c #3D6E8E",
",@	c #3A6B8B",
"'@	c #3E6C8D",
")@	c #3E6D8B",
"!@	c #3D6C8A",
"~@	c #3F6D8E",
"{@	c #3D6B8C",
"]@	c #3B6E8D",
"^@	c #406C87",
"/@	c #426B87",
"(@	c #3F6B86",
"_@	c #2A4A5F",
":@	c #2B4B60",
"<@	c #2C4C61",
"[@	c #284B5F",
"    . . + + @ # # # + + + + . $ % & @ @ ",
"* = - ; - - > * , > ' ' = ; - ) ) ; ! ~ ",
"{ ] ^ ] / / ( _ : < [ } | 1 ^ 2 2 { ^ { ",
"3 4 3 5 6 7 8 9 0 a b c d e f 6 3 4 g g ",
"h i j k l m n o p q r s t u v l w x y z ",
"A B C D E F G H I J K L M N O P D Q R S ",
"T U V W X Y Z `  ...+.@.#.$.%.&.*.V T =.",
"-.;.>.,.'.).!.~.~.{.].^./.(._.:.<.>.-.[.",
"}.|.1.2.3.4.5.6.7.8.9.0.a.b.c.d.e._ f.g.",
"h.i.j.k.l.m.n.o.p.q.r.s.t.u.v.w.x.y.z.A.",
"B.C.D.k./.E.F.G.H.I.J.K.o.L.M.N.x.O.P.Q.",
"R.S.T.U.V.W.X.Y.Z.`. +.+++ +@+#+$+%+&+*+",
"=+-+;+>+,+'+)+!+~+{+~.++6.]+^+/+(+_+:+<+",
"[+}+f |+1+2+3+4+5+6+7+8+7+9+0+a+b+c+d+e+",
"f+f+g+h+i+j+k+l+m+n+o+p+q+r+s+t+u+v+f+w+",
"x+y+z+A+B+C+a+D+E+F+G+H+I+2+J+K+L+z+x+M+",
"N+N+N+O+P+T.Q+R+S+T+U+V+R+W+X+Y+Z+Z+N+N+",
"`+ @.@ @ @+@@@#@$@%@&@$@*@@@=@`++@`+`+-@",
";@;@>@;@>@,@'@'@)@!@!@~@{@;@'@;@'@;@;@]@",
"^@^@/@/@^@^@/@^@^@^@(@/@^@^@/@/@/@^@^@^@",
"_@:@_@_@<@:@:@_@_@_@_@:@_@_@_@_@_@_@_@[@"};
