/* XPM */
static char * min_pressed_xpm[] = {
"20 21 300 2",
"  	c #A0CDEA",
". 	c #A2CEEB",
"+ 	c #A1CDEA",
"@ 	c #A3CCEA",
"# 	c #A4CDEB",
"$ 	c #A0CCE9",
"% 	c #89B8D4",
"& 	c #88B5D4",
"* 	c #8AB7D4",
"= 	c #8CB7D7",
"- 	c #8BB7D4",
"; 	c #8BB6D6",
"> 	c #8CB8D5",
", 	c #8CB9D6",
"' 	c #8AB7D6",
") 	c #8BB8D5",
"! 	c #83B6D3",
"~ 	c #85B6D6",
"{ 	c #84B5D3",
"] 	c #86B4D5",
"^ 	c #86B5D3",
"/ 	c #87B5D6",
"( 	c #709DBC",
"_ 	c #5E89A9",
": 	c #4C7797",
"< 	c #416D8A",
"[ 	c #3F6B88",
"} 	c #4B7897",
"| 	c #5D8AA9",
"1 	c #709FBD",
"2 	c #7DB2D1",
"3 	c #80B3D2",
"4 	c #7EB1D0",
"5 	c #82B3D3",
"6 	c #7AA8C9",
"7 	c #5C89AA",
"8 	c #3B6887",
"9 	c #2B5575",
"0 	c #234C69",
"a 	c #1C4562",
"b 	c #1B4662",
"c 	c #224E6B",
"d 	c #2B5877",
"e 	c #3A6987",
"f 	c #5B89AA",
"g 	c #78A9C9",
"h 	c #81B4D3",
"i 	c #7BAECD",
"j 	c #7BADCE",
"k 	c #7CAECF",
"l 	c #73A4C4",
"m 	c #5784A5",
"n 	c #366181",
"o 	c #234B69",
"p 	c #3A607B",
"q 	c #4B708B",
"r 	c #4E728C",
"s 	c #496E87",
"t 	c #446A84",
"u 	c #375F7C",
"v 	c #1D4966",
"w 	c #346180",
"x 	c #5583A4",
"y 	c #75A6C6",
"z 	c #7DAFD0",
"A 	c #77AAC9",
"B 	c #76A8C9",
"C 	c #5D8BAC",
"D 	c #396484",
"E 	c #2C5271",
"F 	c #436680",
"G 	c #43667E",
"H 	c #41657D",
"I 	c #40657D",
"J 	c #3A6078",
"K 	c #416681",
"L 	c #466B86",
"M 	c #3D6580",
"N 	c #234F6C",
"O 	c #386584",
"P 	c #5B8CAC",
"Q 	c #79AACB",
"R 	c #71A6C5",
"S 	c #73A6C5",
"T 	c #6899B9",
"U 	c #467392",
"V 	c #204967",
"W 	c #466A83",
"X 	c #395A72",
"Y 	c #385B73",
"Z 	c #3D647C",
"` 	c #3A6079",
" .	c #3A627A",
"..	c #406A82",
"+.	c #3E667E",
"@.	c #3E647C",
"#.	c #335B76",
"$.	c #1C4865",
"%.	c #6CA1C0",
"&.	c #6DA0BF",
"*.	c #5C8DAB",
"=.	c #376380",
"-.	c #345A75",
";.	c #446680",
">.	c #34566D",
",.	c #3B5E78",
"'.	c #3C637C",
").	c #39627B",
"!.	c #3B637B",
"~.	c #3C647D",
"{.	c #396079",
"].	c #375E77",
"^.	c #264E6A",
"/.	c #5E8CAD",
"(.	c #679CBC",
"_.	c #699CBB",
":.	c #5788A6",
"<.	c #295570",
"[.	c #3F667F",
"}.	c #3E617A",
"|.	c #32566E",
"1.	c #385C73",
"2.	c #33586E",
"3.	c #32576F",
"4.	c #355C75",
"5.	c #375D73",
"6.	c #385E74",
"7.	c #375B75",
"8.	c #395E78",
"9.	c #264D6A",
"0.	c #2B5472",
"a.	c #5B88A9",
"b.	c #6297B7",
"c.	c #6497B6",
"d.	c #5C8BA9",
"e.	c #1E4763",
"f.	c #476F89",
"g.	c #365B74",
"h.	c #355B72",
"i.	c #33576D",
"j.	c #34586E",
"k.	c #35586E",
"l.	c #35596F",
"m.	c #36596D",
"n.	c #355971",
"o.	c #345973",
"p.	c #264B66",
"q.	c #1F4665",
"r.	c #5E8BAA",
"s.	c #5D92B2",
"t.	c #5E90B1",
"u.	c #6290B1",
"v.	c #3E637D",
"w.	c #2D526B",
"x.	c #2F536B",
"y.	c #2F5165",
"z.	c #8DADB7",
"A.	c #315161",
"B.	c #305060",
"C.	c #83A3AD",
"D.	c #2E4F63",
"E.	c #2F5369",
"F.	c #2C506A",
"G.	c #204560",
"H.	c #214865",
"I.	c #6390AF",
"J.	c #588DAD",
"K.	c #5B8DAE",
"L.	c #6694B5",
"M.	c #2F5876",
"N.	c #2E5572",
"O.	c #284D68",
"P.	c #294D65",
"Q.	c #2A4D60",
"R.	c #294A5B",
"S.	c #82A0AB",
"T.	c #819FAA",
"U.	c #29495A",
"V.	c #2D4E61",
"W.	c #294C62",
"X.	c #23475F",
"Y.	c #1A3F5A",
"Z.	c #315A76",
"`.	c #6594B2",
" +	c #5388A7",
".+	c #5486A7",
"++	c #6293B3",
"@+	c #487393",
"#+	c #204862",
"$+	c #22465E",
"%+	c #24475D",
"&+	c #27475C",
"*+	c #274457",
"=+	c #284658",
"-+	c #27485B",
";+	c #24475B",
">+	c #22455B",
",+	c #183C54",
"'+	c #143C56",
")+	c #497592",
"!+	c #4E83A2",
"~+	c #5082A3",
"{+	c #5C8DAD",
"]+	c #6897B5",
"^+	c #16425F",
"/+	c #19415B",
"(+	c #1A3F59",
"_+	c #1E425C",
":+	c #1E4059",
"<+	c #224156",
"[+	c #214055",
"}+	c #204057",
"|+	c #1C3F55",
"1+	c #153750",
"2+	c #113650",
"3+	c #17405C",
"4+	c #6A97B4",
"5+	c #5C8AAB",
"6+	c #497E9D",
"7+	c #497E9E",
"8+	c #4B7D9E",
"9+	c #6596B6",
"0+	c #113953",
"a+	c #123751",
"b+	c #143850",
"c+	c #1A3A53",
"d+	c #18384F",
"e+	c #15354C",
"f+	c #0E3049",
"g+	c #0E324C",
"h+	c #153C59",
"i+	c #5F8CA9",
"j+	c #6495B5",
"k+	c #4B7C9C",
"l+	c #447998",
"m+	c #447999",
"n+	c #4D809F",
"o+	c #6A9BB9",
"p+	c #6390AD",
"q+	c #0D324C",
"r+	c #082C46",
"s+	c #082A45",
"t+	c #0B2D46",
"u+	c #123650",
"v+	c #173E5B",
"w+	c #648FAF",
"x+	c #6A9BBB",
"y+	c #4C7E9F",
"z+	c #467899",
"A+	c #3F7695",
"B+	c #407597",
"C+	c #407595",
"D+	c #407594",
"E+	c #4A7D9C",
"F+	c #6697B5",
"G+	c #78A5C4",
"H+	c #55819E",
"I+	c #38617D",
"J+	c #224966",
"K+	c #244C66",
"L+	c #39607D",
"M+	c #567F9D",
"N+	c #77A4C3",
"O+	c #3D7292",
"P+	c #3C7191",
"Q+	c #3D708F",
"R+	c #3E7190",
"S+	c #3F7090",
"T+	c #5482A3",
"U+	c #6895B4",
"V+	c #7AA7C4",
"W+	c #85B1CE",
"X+	c #86B2CF",
"Y+	c #7BA7C4",
"Z+	c #417293",
"`+	c #3B6E8D",
" @	c #3C6F8E",
".@	c #3A6D8C",
"+@	c #3D6E8C",
"@@	c #3C6D8B",
"#@	c #3C6D8D",
"$@	c #3E6C8D",
"%@	c #3E6D8B",
"&@	c #406D8C",
"*@	c #3D6C8A",
"=@	c #3D6E8E",
"-@	c #3F6B84",
";@	c #406C87",
">@	c #406C85",
",@	c #416D88",
"'@	c #426B87",
")@	c #426C85",
"!@	c #3F6B86",
"~@	c #2B4C5F",
"{@	c #2A4A5F",
"]@	c #2A4B5E",
"^@	c #29495E",
"/@	c #294A5D",
"(@	c #2C4C61",
"_@	c #2B4B60",
"  . + @ # . + + + + . $ . + . . + #     ",
"% & * = - ; - - - - - > - , * ' ) ; % % ",
"! ~ { ] ^ / ( _ : < [ } | 1 ^ ~ { ~ ! ! ",
"2 3 4 5 6 7 8 9 0 a b c d e f g 3 h 2 2 ",
"i j k l m n o p q r s t u v w x y z i i ",
"A B g C D E F G H I J K L M N O P Q A A ",
"R S T U V W X Y Z `  ...+.@.#.$.U T R R ",
"%.&.*.=.-.;.>.,.'.'.).!.~.{.].^.=./.%.%.",
"(._.:.<.[.}.|.1.2.3.4.5.6.7.8.9.0.a.(.(.",
"b.c.d.e.f.g.h.i.j.k.l.m.j.n.o.p.q.r.b.b.",
"s.t.u.V v.w.x.y.z.A.B.C.D.E.F.G.H.I.s.s.",
"J.K.L.M.N.O.P.Q.R.S.T.U.V.W.X.Y.Z.`.J.J.",
" +.+++@+e.#+$+%+&+*+=+-+;+>+,+'+)+`. + +",
"!+~+{+]+^+/+(+_+:+<+[+}+|+1+2+3+4+5+!+!+",
"6+7+8+9+r.3+0+a+b+c+d+e+f+g+h+i+j+k+6+6+",
"l+m+m+n+o+p+3+0+q+r+s+t+u+v+w+x+y+z+l+l+",
"A+B+C+D+E+F+G+H+I+J+K+L+M+N+9+y+C+C+A+A+",
"O+P+P+Q+R+S+T+U+V+W+X+Y+U+T+Z+P+P+O+O+O+",
"`+ @.@+@@@#@$@%@%@&@%@*@%@$@=@.@`+#@`+`+",
"-@;@>@,@;@'@'@;@-@'@)@;@!@'@;@;@;@;@-@-@",
"~@{@]@{@{@^@^@{@]@{@/@(@^@_@^@_@{@{@~@~@"};
