/* XPM */
static char * min_unpressed_xpm[] = {
"20 21 290 2",
"  	c #A0CDEA",
". 	c #A2CEEB",
"+ 	c #A1CDEA",
"@ 	c #A3CCEA",
"# 	c #A4CDEB",
"$ 	c #A0CCE9",
"% 	c #89B8D4",
"& 	c #88B5D4",
"* 	c #8AB7D4",
"= 	c #8CB7D7",
"- 	c #8BB7D4",
"; 	c #8BB6D6",
"> 	c #8CB8D5",
", 	c #8CB9D6",
"' 	c #8AB7D6",
") 	c #8BB8D5",
"! 	c #83B6D3",
"~ 	c #85B6D6",
"{ 	c #84B5D3",
"] 	c #86B4D5",
"^ 	c #86B5D3",
"/ 	c #87B5D6",
"( 	c #709DBC",
"_ 	c #5E89A9",
": 	c #4C7797",
"< 	c #416D8A",
"[ 	c #3F6B88",
"} 	c #4B7897",
"| 	c #5D8AA9",
"1 	c #709FBD",
"2 	c #7DB2D1",
"3 	c #80B3D2",
"4 	c #7EB1D0",
"5 	c #82B3D3",
"6 	c #7AA8C9",
"7 	c #5C89AA",
"8 	c #3B6887",
"9 	c #2B5676",
"0 	c #234C6A",
"a 	c #1C4563",
"b 	c #1A4663",
"c 	c #224E6B",
"d 	c #2B5877",
"e 	c #3A6987",
"f 	c #5B89AA",
"g 	c #78A9C9",
"h 	c #81B4D3",
"i 	c #7BAECD",
"j 	c #7BADCE",
"k 	c #7CAECF",
"l 	c #73A4C4",
"m 	c #5784A5",
"n 	c #366181",
"o 	c #416885",
"p 	c #5A819E",
"q 	c #6990AD",
"r 	c #648DA9",
"s 	c #537C98",
"t 	c #3A6381",
"u 	c #1D4966",
"v 	c #346180",
"w 	c #5583A4",
"x 	c #75A6C6",
"y 	c #7DAFD0",
"z 	c #77AAC9",
"A 	c #76A8C9",
"B 	c #5D8BAC",
"C 	c #396484",
"D 	c #2C5372",
"E 	c #557A97",
"F 	c #678CA7",
"G 	c #577F99",
"H 	c #4D758F",
"I 	c #4B738D",
"J 	c #4E7592",
"K 	c #557C99",
"L 	c #416A86",
"M 	c #234F6C",
"N 	c #386584",
"O 	c #5B8CAC",
"P 	c #79AACB",
"Q 	c #71A6C5",
"R 	c #73A6C5",
"S 	c #6899B9",
"T 	c #467392",
"U 	c #204967",
"V 	c #527792",
"W 	c #5D809C",
"X 	c #4B708A",
"Y 	c #436B84",
"Z 	c #426A84",
"` 	c #416B84",
" .	c #426C85",
"..	c #436D86",
"+.	c #48708A",
"@.	c #355E7A",
"#.	c #1C4865",
"$.	c #6CA1C0",
"%.	c #6DA0BF",
"&.	c #5C8DAB",
"*.	c #376380",
"=.	c #385F7C",
"-.	c #5A7D99",
";.	c #486C86",
">.	c #3F647E",
",.	c #3E667F",
"'.	c #3E6680",
").	c #3C667F",
"!.	c #3D657E",
"~.	c #3C647E",
"{.	c #264F6B",
"].	c #5E8CAD",
"^.	c #679CBC",
"/.	c #699CBB",
"(.	c #5788A6",
"_.	c #295570",
":.	c #446C86",
"<.	c #4A6F89",
"[.	c #395E78",
"}.	c #3B5F77",
"|.	c #395F76",
"1.	c #386079",
"2.	c #3A6077",
"3.	c #3B607B",
"4.	c #264D6A",
"5.	c #2B5472",
"6.	c #5B88A9",
"7.	c #6297B7",
"8.	c #6497B6",
"9.	c #5C8BA9",
"0.	c #1E4763",
"a.	c #49718B",
"b.	c #355B72",
"c.	c #34586E",
"d.	c #35596F",
"e.	c #36596D",
"f.	c #355971",
"g.	c #345973",
"h.	c #264B66",
"i.	c #1F4665",
"j.	c #5E8BAA",
"k.	c #5D92B2",
"l.	c #5E90B1",
"m.	c #6290B1",
"n.	c #3F647F",
"o.	c #2E536D",
"p.	c #2F536B",
"q.	c #305366",
"r.	c #DEFFFF",
"s.	c #325261",
"t.	c #DFFEFF",
"u.	c #325366",
"v.	c #2F5369",
"w.	c #2C506A",
"x.	c #204560",
"y.	c #214865",
"z.	c #6390AF",
"A.	c #588DAD",
"B.	c #5B8DAE",
"C.	c #6694B5",
"D.	c #2F5876",
"E.	c #2E5572",
"F.	c #284D68",
"G.	c #294D65",
"H.	c #2A4D60",
"I.	c #2C4D5C",
"J.	c #E3FFFF",
"K.	c #E2FFFF",
"L.	c #2D4D5C",
"M.	c #2D4E61",
"N.	c #294C62",
"O.	c #23475F",
"P.	c #1A3F5A",
"Q.	c #315A76",
"R.	c #6594B2",
"S.	c #5388A7",
"T.	c #5486A7",
"U.	c #6293B3",
"V.	c #487393",
"W.	c #204862",
"X.	c #22465E",
"Y.	c #24475D",
"Z.	c #27475C",
"`.	c #284557",
" +	c #294658",
".+	c #27485B",
"++	c #24475B",
"@+	c #22455B",
"#+	c #183C54",
"$+	c #143C56",
"%+	c #497592",
"&+	c #4E83A2",
"*+	c #5082A3",
"=+	c #5C8DAD",
"-+	c #6897B5",
";+	c #16425F",
">+	c #19415B",
",+	c #1A3F59",
"'+	c #1E425C",
")+	c #1E4059",
"!+	c #224156",
"~+	c #214055",
"{+	c #204057",
"]+	c #1C3F55",
"^+	c #153750",
"/+	c #113650",
"(+	c #17405C",
"_+	c #6A97B4",
":+	c #5C8AAB",
"<+	c #497E9D",
"[+	c #497E9E",
"}+	c #4B7D9E",
"|+	c #6596B6",
"1+	c #113953",
"2+	c #123751",
"3+	c #143850",
"4+	c #1A3A53",
"5+	c #18384F",
"6+	c #15354C",
"7+	c #0E3049",
"8+	c #0E324C",
"9+	c #153C59",
"0+	c #5F8CA9",
"a+	c #6495B5",
"b+	c #4B7C9C",
"c+	c #447998",
"d+	c #447999",
"e+	c #4D809F",
"f+	c #6A9BB9",
"g+	c #6390AD",
"h+	c #0D324C",
"i+	c #082C46",
"j+	c #082A45",
"k+	c #0B2D46",
"l+	c #123650",
"m+	c #173E5B",
"n+	c #648FAF",
"o+	c #6A9BBB",
"p+	c #4C7E9F",
"q+	c #467899",
"r+	c #3F7695",
"s+	c #407597",
"t+	c #407595",
"u+	c #407594",
"v+	c #4A7D9C",
"w+	c #6697B5",
"x+	c #78A5C4",
"y+	c #55819E",
"z+	c #38617D",
"A+	c #224966",
"B+	c #244C66",
"C+	c #39607D",
"D+	c #567F9D",
"E+	c #77A4C3",
"F+	c #3D7292",
"G+	c #3C7191",
"H+	c #3D708F",
"I+	c #3E7190",
"J+	c #3F7090",
"K+	c #5482A3",
"L+	c #6895B4",
"M+	c #7AA7C4",
"N+	c #85B1CE",
"O+	c #86B2CF",
"P+	c #7BA7C4",
"Q+	c #417293",
"R+	c #3B6E8D",
"S+	c #3C6F8E",
"T+	c #3A6D8C",
"U+	c #3D6E8C",
"V+	c #3C6D8B",
"W+	c #3C6D8D",
"X+	c #3E6C8D",
"Y+	c #3E6D8B",
"Z+	c #406D8C",
"`+	c #3D6C8A",
" @	c #3D6E8E",
".@	c #3F6B84",
"+@	c #406C87",
"@@	c #406C85",
"#@	c #416D88",
"$@	c #426B87",
"%@	c #3F6B86",
"&@	c #2B4C5F",
"*@	c #2A4A5F",
"=@	c #2A4B5E",
"-@	c #29495E",
";@	c #294A5D",
">@	c #2C4C61",
",@	c #2B4B60",
"  . + @ # . + + + + . $ . + . . + #     ",
"% & * = - ; - - - - - > - , * ' ) ; % % ",
"! ~ { ] ^ / ( _ : < [ } | 1 ^ ~ { ~ ! ! ",
"2 3 4 5 6 7 8 9 0 a b c d e f g 3 h 2 2 ",
"i j k l m n 0 o p q r s t u v w x y i i ",
"z A g B C D E F G H I J K L M N O P z z ",
"Q R S T U V W X Y Z `  ...+.@.#.T S Q Q ",
"$.%.&.*.=.-.;.>.,.'.).,.!.'.~.{.*.].$.$.",
"^./.(._.:.<.[.}.|.1.1.|.2.[.3.4.5.6.^.^.",
"7.8.9.0.a.[.b.c.d.d.d.e.d.f.g.h.i.j.7.7.",
"k.l.m.U n.o.p.q.r.s.s.t.u.v.w.x.y.z.k.k.",
"A.B.C.D.E.F.G.H.I.J.K.L.M.N.O.P.Q.R.A.A.",
"S.T.U.V.0.W.X.Y.Z.`. +.+++@+#+$+%+R.S.S.",
"&+*+=+-+;+>+,+'+)+!+~+{+]+^+/+(+_+:+&+&+",
"<+[+}+|+j.(+1+2+3+4+5+6+7+8+9+0+a+b+<+<+",
"c+d+d+e+f+g+(+1+h+i+j+k+l+m+n+o+p+q+c+c+",
"r+s+t+u+v+w+x+y+z+A+B+C+D+E+|+p+t+t+r+r+",
"F+G+G+H+I+J+K+L+M+N+O+P+L+K+Q+G+G+F+F+F+",
"R+S+T+U+V+W+X+Y+Y+Z+Y+`+Y+X+ @T+R+W+R+R+",
".@+@@@#@+@$@$@+@.@$@ .+@%@$@+@+@+@+@.@.@",
"&@*@=@*@*@-@-@*@=@*@;@>@-@,@-@,@*@*@&@&@"};
