/* XPM */
static char * min_xpm[] = {
"20 17 17 1",
" 	c None",
".	c #DDE3EB",
"+	c #3C414B",
"@	c #6B7887",
"#	c #8D9AA8",
"$	c #DCE2EA",
"%	c #DBE1E9",
"&	c #DAE0E8",
"*	c #D9DFE6",
"=	c #010101",
"-	c #000000",
";	c #D2D7DF",
">	c #BFC4CB",
",	c #B5BAC1",
"'	c #B3B8BF",
")	c #D1D7DE",
"!	c #CDD2D9",
"....................",
"++..................",
"@@+.................",
"##+.................",
"@@+.................",
"##+.................",
"@@+.................",
"##+.................",
"@@+...$%%%&%%$......",
"##+..$*=====-*$.....",
"@@+..%;====-=;%.....",
"##+..%;>,'',>;%.....",
"@@+..$*)!!!!)*$.....",
"##+...$%%%&%%$......",
"@@+.................",
"++..................",
"...................."};
