/* XPM */
static char * mitte_clicked_xpm[] = {
"19 19 3 1",
" 	c #1D6FAE",
".	c #E1E1E1",
"+	c #FF5900",
"                   ",
" ................. ",
" ................. ",
" ................. ",
" .+++++++++++++++. ",
" .+++++++++++++++. ",
" .+++++++++++++++. ",
" .............+++. ",
" .............+++. ",
" .............+++. ",
" .+++++++++++.+++. ",
" .+++++++++++.+++. ",
" .+++++++++++.+++. ",
" .+++++++++++.+++. ",
" .+++++++++++.+++. ",
" .+++++++++++.+++. ",
" .+++++++++++.+++. ",
" ................. ",
"                   "};
