/* XPM */
static char * maxD_xpm[] = {
"20 20 159 2",
"  	c None",
". 	c #000000",
"+ 	c #060606",
"@ 	c #6D6D6D",
"# 	c #757575",
"$ 	c #787878",
"% 	c #7B7B7A",
"& 	c #7D7D7D",
"* 	c #808080",
"= 	c #838282",
"- 	c #858585",
"; 	c #888788",
"> 	c #8A8A8A",
", 	c #8D8D8D",
"' 	c #8F8F8F",
") 	c #929191",
"! 	c #949494",
"~ 	c #969797",
"{ 	c #6E6E6E",
"] 	c #070707",
"^ 	c #858685",
"/ 	c #C1C1C1",
"( 	c #CACACA",
"_ 	c #C8C9C8",
": 	c #C7C7C7",
"< 	c #C5C4C5",
"[ 	c #C4C3C3",
"} 	c #C2C1C1",
"| 	c #C0C0C0",
"1 	c #BEBEBE",
"2 	c #BDBDBC",
"3 	c #BBBBBB",
"4 	c #B9B9B9",
"5 	c #B7B7B7",
"6 	c #C3C3C3",
"7 	c #9B9B9B",
"8 	c #080808",
"9 	c #888888",
"0 	c #D4D4D4",
"a 	c #DEDEDE",
"b 	c #DADADB",
"c 	c #D7D7D7",
"d 	c #D3D3D4",
"e 	c #D0CFD0",
"f 	c #CCCCCC",
"g 	c #C9C8C9",
"h 	c #C5C5C5",
"i 	c #C1C2C2",
"j 	c #BABBBA",
"k 	c #B7B7B6",
"l 	c #A4A4A4",
"m 	c #8B8B8B",
"n 	c #E0E0E0",
"o 	c #DCDCDD",
"p 	c #DBDBDB",
"q 	c #D9D9D9",
"r 	c #D5D5D5",
"s 	c #D3D4D4",
"t 	c #D1D2D2",
"u 	c #D0D0D0",
"v 	c #CECECE",
"w 	c #050505",
"x 	c #555556",
"y 	c #838383",
"z 	c #646464",
"A 	c #020202",
"B 	c #282828",
"C 	c #272727",
"D 	c #262626",
"E 	c #1B1B1B",
"F 	c #939393",
"G 	c #979797",
"H 	c #969696",
"I 	c #959595",
"J 	c #929393",
"K 	c #929292",
"L 	c #919191",
"M 	c #909090",
"N 	c #6C6C6C",
"O 	c #979796",
"P 	c #C1C2C1",
"Q 	c #BDBEBD",
"R 	c #BABABA",
"S 	c #B6B6B6",
"T 	c #B3B3B3",
"U 	c #B0B0AF",
"V 	c #ACACAC",
"W 	c #A8A8A8",
"X 	c #A4A5A4",
"Y 	c #B2B3B2",
"Z 	c #090909",
"` 	c #999999",
" .	c #C4C5C5",
"..	c #C9C9C9",
"+.	c #C2C2C2",
"@.	c #BABABB",
"#.	c #B6B7B7",
"$.	c #AFB0AF",
"%.	c #ABACAC",
"&.	c #A8A8A9",
"*.	c #A5A5A5",
"=.	c #A2A1A1",
"-.	c #B2B1B2",
";.	c #969596",
">.	c #9C9C9D",
",.	c #C4C4C5",
"'.	c #ACACAB",
").	c #A9A8A9",
"!.	c #A5A4A5",
"~.	c #A1A1A1",
"{.	c #9E9D9E",
"].	c #B0B0B0",
"^.	c #979798",
"/.	c #9F9F9F",
"(.	c #C0BFBF",
"_.	c #BDBEBE",
":.	c #AFB0B0",
"<.	c #9A9A9A",
"[.	c #AFAFAF",
"}.	c #A2A2A1",
"|.	c #BDBDBD",
"1.	c #B7B6B7",
"2.	c #9E9D9D",
"3.	c #AEAEAE",
"4.	c #9C9C9B",
"5.	c #BBBBBA",
"6.	c #B6B7B6",
"7.	c #B0AFAF",
"8.	c #ABABAC",
"9.	c #A5A5A4",
"0.	c #979696",
"a.	c #939292",
"b.	c #ADADAD",
"c.	c #9E9E9E",
"d.	c #B8B8B8",
"e.	c #ACABAC",
"f.	c #A4A4A5",
"g.	c #9D9D9E",
"h.	c #929293",
"i.	c #ACACAD",
"j.	c #A0A0A1",
"k.	c #0A0A0A",
"l.	c #ABAAAA",
"m.	c #B7B7B8",
"n.	c #B4B5B5",
"o.	c #B1B1B1",
"p.	c #AAAAAB",
"q.	c #A7A7A7",
"r.	c #A3A3A4",
"s.	c #A3A3A3",
"t.	c #9D9D9D",
"u.	c #A0A0A0",
"v.	c #A2A2A2",
"w.	c #A8A8A7",
"x.	c #AAAAAA",
"y.	c #ACADAD",
"z.	c #B4B4B4",
"A.	c #BBBBBC",
"B.	c #898989",
"                                        ",
"  . . . . . . . . . . . . . . . . . .   ",
"  + @ # $ % & * = - ; > , ' ) ! ~ { .   ",
"  ] ^ / ( _ : < [ } | 1 2 3 4 5 6 7 .   ",
"  8 9 0 a b c d e f g h i 1 j k : l .   ",
"  8 m 0 n a o p q c r s t u v f r l .   ",
"  w x y m m m m m m m m m m m m m z .   ",
"  A B C D D D D D D D D D D D D D E .   ",
"  8 F G H I ! ! F J K L L M ' ' L N .   ",
"  8 O : f g h P Q R S T U V W X Y F .   ",
"  Z `  ...h +.1 @.#.T $.%.&.*.=.-.;..   ",
"  Z >.i ,./ Q R S T U '.).!.~.{.].^..   ",
"  Z /.(./ _.R 5 T :.'.W !.~.{.<.[.` .   ",
"  Z }.|.1 R 1.T [.%.W l ~.2.<.H 3.4..   ",
"  Z *.5.R 6.T 7.8.W 9.~.2.<.0.a.b.c..   ",
"  Z W d.k T [.e.W f.=.g.<.H h.' i.j..   ",
"  k.l.m.#.n.T o.[.3.V p.).q.*.r.3 s..   ",
"  8 M 7 t.u.v.*.w.x.y.[.-.z.#.4 A.B..   ",
"  . . . . . . . . . . . . . . . . . .   ",
"                                        "};
