/* XPM */
static char * close_unpressed_xpm[] = {
"20 21 290 2",
"  	c #A1CDEA",
". 	c #A3CFEC",
"+ 	c #A3CCEA",
"@ 	c #A4CDEB",
"# 	c #A2CEEB",
"$ 	c #A1CCEC",
"% 	c #A0CCE9",
"& 	c #8AB7D6",
"* 	c #89B6D3",
"= 	c #8BB6D6",
"- 	c #8CB7D7",
"; 	c #8BB7D4",
"> 	c #8DB9D6",
", 	c #8BB8D5",
"' 	c #8AB7D4",
") 	c #84B5D5",
"! 	c #85B6D4",
"~ 	c #83B4D4",
"{ 	c #86B4D5",
"] 	c #87B5D6",
"^ 	c #709DBE",
"/ 	c #5E8BAC",
"( 	c #4C7797",
"_ 	c #406C89",
": 	c #3E6B88",
"< 	c #4A7794",
"[ 	c #5D8AA9",
"} 	c #709FBD",
"| 	c #85B6D6",
"1 	c #84B5D3",
"2 	c #7FB2D1",
"3 	c #81B4D3",
"4 	c #7EB1D0",
"5 	c #80B3D2",
"6 	c #78A9C9",
"7 	c #5B89AA",
"8 	c #3C698A",
"9 	c #2C5777",
"0 	c #234C6A",
"a 	c #1C4561",
"b 	c #1A4663",
"c 	c #224E6B",
"d 	c #2B5877",
"e 	c #3B6A88",
"f 	c #598AAA",
"g 	c #77A8C8",
"h 	c #7CAFCE",
"i 	c #7AADCC",
"j 	c #73A4C4",
"k 	c #5685A3",
"l 	c #376282",
"m 	c #416887",
"n 	c #5A819E",
"o 	c #6991AB",
"p 	c #668DAA",
"q 	c #547B98",
"r 	c #3A637F",
"s 	c #1D4966",
"t 	c #346180",
"u 	c #5786A4",
"v 	c #74A5C5",
"w 	c #77AAC9",
"x 	c #76A9C8",
"y 	c #5D8CAA",
"z 	c #3A6683",
"A 	c #2C5370",
"B 	c #557A95",
"C 	c #688CA6",
"D 	c #597E98",
"E 	c #4F748E",
"F 	c #4D728C",
"G 	c #50758F",
"H 	c #577C96",
"I 	c #426A84",
"J 	c #234F6C",
"K 	c #386584",
"L 	c #5B8CAC",
"M 	c #71A6C5",
"N 	c #73A6C5",
"O 	c #6997B8",
"P 	c #457291",
"Q 	c #214A66",
"R 	c #527791",
"S 	c #5F8298",
"T 	c #4D7084",
"U 	c #466A80",
"V 	c #456981",
"W 	c #496C80",
"X 	c #4B6F85",
"Y 	c #365E78",
"Z 	c #1C4767",
"` 	c #457394",
" .	c #6A9BBB",
"..	c #6CA1C0",
"+.	c #6EA1C0",
"@.	c #5E8CAD",
"#.	c #385F7C",
"$.	c #5B7F97",
"%.	c #4B6B80",
"&.	c #DFFFFF",
"*.	c #436477",
"=.	c #426376",
"-.	c #43667A",
";.	c #3F647F",
">.	c #254E6C",
",.	c #376483",
"'.	c #5F8DAE",
").	c #689DBD",
"!.	c #6A9DBC",
"~.	c #5B88A9",
"{.	c #2C5573",
"].	c #446984",
"^.	c #4A6E86",
"/.	c #3B5E74",
"(.	c #3E5F72",
"_.	c #E3FFFF",
":.	c #405C67",
"<.	c #415D69",
"[.	c #E2FFFF",
"}.	c #3E5F70",
"|.	c #395E78",
"1.	c #274E6B",
"2.	c #285373",
"3.	c #5B88A7",
"4.	c #6297B7",
"5.	c #6497B6",
"6.	c #1D4664",
"7.	c #4B708B",
"8.	c #3B5F79",
"9.	c #36596F",
"0.	c #39586C",
"a.	c #3C5762",
"b.	c #E9FFFF",
"c.	c #EAFFFF",
"d.	c #3C5663",
"e.	c #375668",
"f.	c #355973",
"g.	c #254C69",
"h.	c #1F4866",
"i.	c #5F8AAA",
"j.	c #5E93B3",
"k.	c #5F92B1",
"l.	c #6491B0",
"m.	c #3D657F",
"n.	c #30546E",
"o.	c #305369",
"p.	c #335264",
"q.	c #39515D",
"r.	c #EBFFFF",
"s.	c #ECFFFF",
"t.	c #39505E",
"u.	c #2F5268",
"v.	c #2C5068",
"w.	c #204560",
"x.	c #6590B0",
"y.	c #588DAD",
"z.	c #5A8DAC",
"A.	c #6695B3",
"B.	c #2D5976",
"C.	c #2F5673",
"D.	c #284C66",
"E.	c #2D4D62",
"F.	c #2F4C5E",
"G.	c #E7FFFF",
"H.	c #314955",
"I.	c #334B57",
"J.	c #E5FFFF",
"K.	c #2D4C5E",
"L.	c #2B4E62",
"M.	c #22465E",
"N.	c #1A3F5A",
"O.	c #305977",
"P.	c #6693B2",
"Q.	c #5388A7",
"R.	c #5588A7",
"S.	c #6492B3",
"T.	c #487594",
"U.	c #1D4662",
"V.	c #244860",
"W.	c #26475A",
"X.	c #284555",
"Y.	c #2A4757",
"Z.	c #294656",
"`.	c #E0FFFF",
" +	c #234457",
".+	c #193B54",
"++	c #183D5A",
"@+	c #4A7693",
"#+	c #6493B1",
"$+	c #4E83A2",
"%+	c #5083A2",
"&+	c #5A8BAB",
"*+	c #6897B5",
"=+	c #19425E",
"-+	c #1B405A",
";+	c #1E3E53",
">+	c #224155",
",+	c #204154",
"'+	c #214156",
")+	c #224257",
"!+	c #214255",
"~+	c #1E3D4F",
"{+	c #18394C",
"]+	c #123650",
"^+	c #19405D",
"/+	c #6996B3",
"(+	c #5B8CAA",
"_+	c #487D9D",
":+	c #497E9E",
"<+	c #4A7C9D",
"[+	c #6495B5",
"}+	c #608CA9",
"|+	c #173F59",
"1+	c #153953",
"2+	c #14374D",
"3+	c #16394F",
"4+	c #173A50",
"5+	c #13364C",
"6+	c #113148",
"7+	c #10324B",
"8+	c #163E58",
"9+	c #5F8BA8",
"0+	c #4A7D9A",
"a+	c #447999",
"b+	c #467899",
"c+	c #4E7FA0",
"d+	c #6C9ABB",
"e+	c #6490AD",
"f+	c #183F5C",
"g+	c #143954",
"h+	c #0E324C",
"i+	c #082C46",
"j+	c #0C304A",
"k+	c #123752",
"l+	c #153C59",
"m+	c #6C9BB9",
"n+	c #4E7F9D",
"o+	c #467996",
"p+	c #3F7494",
"q+	c #407595",
"r+	c #417698",
"s+	c #437598",
"t+	c #4B7C9D",
"u+	c #6896B7",
"v+	c #76A3C2",
"w+	c #55819E",
"x+	c #38617D",
"y+	c #234A67",
"z+	c #224A64",
"A+	c #54809D",
"B+	c #77A4C3",
"C+	c #6596B6",
"D+	c #4A7D9C",
"E+	c #427594",
"F+	c #407594",
"G+	c #3F7192",
"H+	c #3E7091",
"I+	c #3D6F90",
"J+	c #3F7091",
"K+	c #5482A3",
"L+	c #6998B6",
"M+	c #7AA5C5",
"N+	c #86B2CF",
"O+	c #7AA6C3",
"P+	c #5283A3",
"Q+	c #3F7291",
"R+	c #3C7191",
"S+	c #407293",
"T+	c #3D7291",
"U+	c #3B6C8C",
"V+	c #3D6E8E",
"W+	c #3E6C8D",
"X+	c #3E6D8B",
"Y+	c #3F6C8B",
"Z+	c #3D6B8C",
"`+	c #3E6F8F",
" @	c #3C6D8D",
".@	c #3B6E8D",
"+@	c #3A6D8A",
"@@	c #406C87",
"#@	c #426B87",
"$@	c #416A86",
"%@	c #416D88",
"&@	c #406C85",
"*@	c #274A5E",
"=@	c #284B5F",
"-@	c #2B4B60",
";@	c #2A4A5F",
">@	c #29495E",
",@	c #2B4C5F",
"  . + @ #   $ $       % #   #   # %     ",
"& * = - & & - = ; ; ; > ; , & ' & ' & & ",
") ! ~ ) { ] ^ / ( _ : < [ } | ! ) 1 ) ) ",
"2 3 4 5 6 7 8 9 0 a b c d e f g 5 4 2 2 ",
"h i h j k l 0 m n o p q r s t u v h h h ",
"w x 6 y z A B C D E F G H I J K L w w w ",
"M N O P Q R S T U V V U W X Y Z `  .M M ",
"..+.@.l #.$.%.&.*.*.*.=.&.-.;.>.,.'.....",
").!.~.{.].^./.(._.:.<.[.}./.|.1.2.3.).).",
"4.5.[ 6.7.8.9.0.a.b.c.d.e.9.f.g.h.i.4.4.",
"j.k.l.h.m.n.o.p.q.r.s.t.p.u.v.w.h.x.j.j.",
"y.z.A.B.C.D.E.F.G.H.I.J.K.L.M.N.O.P.y.y.",
"Q.R.S.T.U.V.W._.X.Y.Z.X.`. +.+++@+#+Q.Q.",
"$+%+&+*+=+-+;+>+,+'+)+!+~+{+]+^+/+(+$+$+",
"_+:+<+[+}+|+1+2+3+4+4+5+6+7+8+9+A.0+_+_+",
"a+a+b+c+d+e+f+g+h+i+i+j+k+l+e+m+n+o+a+a+",
"p+q+r+s+t+u+v+w+x+y+z+x+A+B+C+D+E+F+p+p+",
"G+H+G+I+H+J+K+L+M+N+N+O+L+P+Q+R+S+T+G+G+",
"U+V+U+V+V+U+W+X+X+X+Y+X+Z+`+ @.@U++@U+U+",
"@@@@#@#@@@@@#@#@@@@@$@#@%@@@@@@@@@&@@@@@",
"*@=@-@;@>@-@-@>@-@;@;@;@;@;@;@;@;@,@*@*@"};
