/* XPM */
static char * max_pressed_xpm[] = {
"20 21 311 2",
"  	c #A3CCEA",
". 	c #A2CEEB",
"+ 	c #A1CDEA",
"@ 	c #A1CCEC",
"# 	c #A2CDED",
"$ 	c #A0CCE9",
"% 	c #A2CEE9",
"& 	c #A1CDE8",
"* 	c #8BB6D6",
"= 	c #8CB8D5",
"- 	c #8AB7D6",
"; 	c #8BB8D5",
"> 	c #8CB7D7",
", 	c #8AB5D5",
"' 	c #8BB7D4",
") 	c #8AB7D4",
"! 	c #8BB8D7",
"~ 	c #89B6D5",
"{ 	c #84B5D5",
"] 	c #84B5D3",
"^ 	c #85B6D6",
"/ 	c #86B4D5",
"( 	c #729FC0",
"_ 	c #5C89A8",
": 	c #4E7999",
"< 	c #3F6B88",
"[ 	c #406B8B",
"} 	c #4C7797",
"| 	c #5B88A7",
"1 	c #72A1BF",
"2 	c #85B6D4",
"3 	c #7FB2D1",
"4 	c #80B3D2",
"5 	c #80B1D1",
"6 	c #77A8C8",
"7 	c #5B89AA",
"8 	c #3B6887",
"9 	c #2C5777",
"0 	c #234C6A",
"a 	c #1C4561",
"b 	c #1D4664",
"c 	c #224E6B",
"d 	c #2C5978",
"e 	c #3A6987",
"f 	c #5A8BAB",
"g 	c #80B2D3",
"h 	c #7CADCE",
"i 	c #7BACCD",
"j 	c #7FB0D1",
"k 	c #74A5C5",
"l 	c #5684A5",
"m 	c #366382",
"n 	c #224B69",
"o 	c #3F6582",
"p 	c #486D86",
"q 	c #4D728A",
"r 	c #4D718C",
"s 	c #466C86",
"t 	c #365E7B",
"u 	c #1F4A67",
"v 	c #356281",
"w 	c #75A6C7",
"x 	c #7BADCE",
"y 	c #79AECE",
"z 	c #7AAFCF",
"A 	c #79AACB",
"B 	c #77A8C9",
"C 	c #78A9CA",
"D 	c #5C8AAB",
"E 	c #386584",
"F 	c #29526E",
"G 	c #50758F",
"H 	c #46697F",
"I 	c #3D5F74",
"J 	c #3F6176",
"K 	c #3D6078",
"L 	c #3B5F77",
"M 	c #476E86",
"N 	c #3B637E",
"O 	c #244D6C",
"P 	c #386586",
"Q 	c #78AACB",
"R 	c #75AACA",
"S 	c #76ABCB",
"T 	c #72A4C5",
"U 	c #74A5C6",
"V 	c #6899B9",
"W 	c #467392",
"X 	c #1F4B66",
"Y 	c #4A6F89",
"Z 	c #3E5F74",
"` 	c #3F5E72",
" .	c #436474",
"..	c #436777",
"+.	c #446A80",
"@.	c #395F78",
"#.	c #33586E",
"$.	c #3B6179",
"%.	c #355E7B",
"&.	c #1A4565",
"*.	c #477495",
"=.	c #71A6C6",
"-.	c #6EA0C1",
";.	c #6EA1C0",
">.	c #5E8CAD",
",.	c #366380",
"'.	c #365F7B",
").	c #416379",
"!.	c #39596C",
"~.	c #93AFB9",
"{.	c #ADCACF",
"].	c #AFD0D5",
"^.	c #3A5E73",
"/.	c #3C647D",
"(.	c #355C72",
"_.	c #355B72",
":.	c #395F7B",
"<.	c #254E6C",
"[.	c #386383",
"}.	c #6CA1C1",
"|.	c #679CBC",
"1.	c #6A9DBC",
"2.	c #5A88A9",
"3.	c #295572",
"4.	c #426983",
"5.	c #37586D",
"6.	c #385668",
"7.	c #829FA9",
"8.	c #3F5B6A",
"9.	c #3F5E70",
"0.	c #3B5E72",
"a.	c #3B6178",
"b.	c #385E75",
"c.	c #33576F",
"d.	c #375C76",
"e.	c #264D69",
"f.	c #2C5575",
"g.	c #699CBB",
"h.	c #679CBB",
"i.	c #6499B9",
"j.	c #6396B5",
"k.	c #5D8AAB",
"l.	c #1E4765",
"m.	c #466E88",
"n.	c #33566B",
"o.	c #375668",
"p.	c #97B5BC",
"q.	c #395666",
"r.	c #39586A",
"s.	c #38596C",
"t.	c #36596D",
"u.	c #36586D",
"v.	c #34586E",
"w.	c #335670",
"x.	c #274B67",
"y.	c #1F4665",
"z.	c #5D8AA9",
"A.	c #6697B7",
"B.	c #6297B6",
"C.	c #5D92B2",
"D.	c #5F92B1",
"E.	c #6491B2",
"F.	c #3D657E",
"G.	c #2E526A",
"H.	c #2F5268",
"I.	c #315166",
"J.	c #335467",
"K.	c #325366",
"L.	c #325163",
"M.	c #335362",
"N.	c #87A5AF",
"O.	c #325264",
"P.	c #2D5066",
"Q.	c #1E435E",
"R.	c #6390AF",
"S.	c #6091B1",
"T.	c #5E93B3",
"U.	c #588DAD",
"V.	c #5A8DAC",
"W.	c #6795B6",
"X.	c #2E5A77",
"Y.	c #2D556F",
"Z.	c #284C66",
"`.	c #2A4C64",
" +	c #284B61",
".+	c #2A4C62",
"++	c #2C4D60",
"@+	c #2F4C5C",
"#+	c #2D4959",
"$+	c #7F9BA6",
"%+	c #2E4B5C",
"&+	c #25455C",
"*+	c #1A3F5A",
"=+	c #315A78",
"-+	c #6794B3",
";+	c #5A8CAD",
">+	c #568BAB",
",+	c #5287A7",
"'+	c #5588A7",
")+	c #6593B4",
"!+	c #487592",
"~+	c #1D4662",
"{+	c #234863",
"]+	c #21455E",
"^+	c #24475D",
"/+	c #24465C",
"(+	c #264758",
"_+	c #95B2BB",
":+	c #688592",
"<+	c #8CA9B3",
"[+	c #274454",
"}+	c #1C3C53",
"|+	c #163B56",
"1+	c #497592",
"2+	c #6493B1",
"3+	c #5587A8",
"4+	c #5388A8",
"5+	c #4F84A4",
"6+	c #4F81A2",
"7+	c #6998B6",
"8+	c #174360",
"9+	c #183F5C",
"0+	c #1B405A",
"a+	c #1D4159",
"b+	c #1F4258",
"c+	c #204154",
"d+	c #233E50",
"e+	c #24404F",
"f+	c #233E4F",
"g+	c #17364A",
"h+	c #11354D",
"i+	c #19405D",
"j+	c #6996B5",
"k+	c #5B8CAC",
"l+	c #4D82A2",
"m+	c #4E83A3",
"n+	c #497E9E",
"o+	c #4B7D9E",
"p+	c #6596B6",
"q+	c #5F8CA9",
"r+	c #17405C",
"s+	c #143954",
"t+	c #143852",
"u+	c #163851",
"v+	c #1A3A51",
"w+	c #1B3A4F",
"x+	c #16354A",
"y+	c #103047",
"z+	c #0F334B",
"A+	c #153D57",
"B+	c #5F8BA8",
"C+	c #6694B5",
"D+	c #4A7C9D",
"E+	c #487F9E",
"F+	c #447999",
"G+	c #467B9B",
"H+	c #467899",
"I+	c #4D809F",
"J+	c #6C9BB9",
"K+	c #628FAC",
"L+	c #153A55",
"M+	c #0D304C",
"N+	c #092D47",
"O+	c #082A45",
"P+	c #0D314B",
"Q+	c #123752",
"R+	c #6490AD",
"S+	c #6D9CBA",
"T+	c #4E7F9F",
"U+	c #437A99",
"V+	c #407595",
"W+	c #417394",
"X+	c #4B7E9D",
"Y+	c #76A3C2",
"Z+	c #57809E",
"`+	c #39607F",
" @	c #224966",
".@	c #234A67",
"+@	c #3A617E",
"@@	c #77A4C3",
"#@	c #6896B7",
"$@	c #4B7C9C",
"%@	c #427495",
"&@	c #3F7192",
"*@	c #3E7091",
"=@	c #3D6F90",
"-@	c #407192",
";@	c #5482A3",
">@	c #6996B7",
",@	c #7AA5C5",
"'@	c #86B2CF",
")@	c #87B3D0",
"!@	c #6A97B6",
"~@	c #407191",
"{@	c #3D7292",
"]@	c #3C6D8D",
"^@	c #3D6E8E",
"/@	c #3A6B8B",
"(@	c #3E6C8D",
"_@	c #3E6D8B",
":@	c #3D6C8A",
"<@	c #3F6D8E",
"[@	c #3D6B8C",
"}@	c #3B6E8D",
"|@	c #406C87",
"1@	c #426B87",
"2@	c #3F6B86",
"3@	c #2A4A5F",
"4@	c #2B4B60",
"5@	c #2C4C61",
"6@	c #284B5F",
"    . . + + @ # # # + + + + . $ % & @ @ ",
"* = - ; - - > * , > ' ' = ; - ) ) ; ! ~ ",
"{ ] ^ ] / / ( _ : < [ } | 1 ^ 2 2 { ^ { ",
"3 4 3 5 6 7 8 9 0 a b c d e f 6 3 4 g g ",
"h i j k l m n o p q r s t u v l w x y z ",
"A B C D E F G H I J K L M N O P D Q R S ",
"T U V W X Y Z `  ...+.@.#.$.%.&.*.V T =.",
"-.;.>.,.'.).!.~.{.].^./.(._.:.<.[.>.-.}.",
"|.1.2.3.4.5.6.7.8.9.0.a.b.c.d.e.f._ g.h.",
"i.j.k.l.m.n.o.p.q.r.s.t.u.v.w.x.y.z.A.B.",
"C.D.E.l.F.G.H.I.J.K.L.M.N.O.P.Q.y.R.S.T.",
"U.V.W.X.Y.Z.`. +.+++@+#+$+%+&+*+=+-+;+>+",
",+'+)+!+~+{+]+^+/+(+_+:+<+[+}+|+1+2+3+4+",
"5+6+f 7+8+9+0+a+b+c+d+e+f+g+h+i+j+k+l+m+",
"n+n+o+p+q+r+s+t+u+v+w+x+y+z+A+B+C+D+n+E+",
"F+G+H+I+J+K+i+L+M+N+O+P+Q+9+R+S+T+H+F+U+",
"V+V+V+W+X+W.Y+Z+`+ @.@+@Z+@@#@$@%@%@V+V+",
"&@*@=@*@*@-@;@>@,@'@)@,@!@;@~@&@-@&@&@{@",
"]@]@^@]@^@/@(@(@_@:@:@<@[@]@(@]@(@]@]@}@",
"|@|@1@1@|@|@1@|@|@|@2@1@|@|@1@1@1@|@|@|@",
"3@4@3@3@5@4@4@3@3@3@3@4@3@3@3@3@3@3@3@6@"};
