/* XPM */
static char * close_pressed_xpm[] = {
"14 17 3 1",
" 	c #FFFFFF",
".	c #C8C8C8",
"+	c #ADADAD",
"              ",
"              ",
" ............ ",
" .          . ",
" .          . ",
" .  ..  ..  . ",
" .  ......  . ",
" .   ....   . ",
" .   ....   . ",
" .  ......  . ",
" .  ..  ..  . ",
" .          . ",
" .          . ",
" ............ ",
"              ",
"              ",
"++++++++++++++"};
