/* XPM */
static char * close_unpressed_xpm[] = {
"14 17 3 1",
" 	c #C8C8C8",
".	c #ADADAD",
"+	c #FFFFFF",
"              ",
"              ",
" ............ ",
" .++++++++++. ",
" .++++++++++. ",
" .++..++..++. ",
" .++......++. ",
" .+++....+++. ",
" .+++....+++. ",
" .++......++. ",
" .++..++..++. ",
" .++++++++++. ",
" .++++++++++. ",
" ............ ",
"              ",
"              ",
".............."};
