/* XPM */
static char * max_unpressed_xpm[] = {
"14 17 4 1",
" 	c None",
".	c #C8C8C8",
"+	c #ADADAD",
"@	c #FFFFFF",
"..............",
"..............",
".++++++++++++.",
".+@@@@@@@@@@+.",
".+@@@@@@@@@@+.",
".+@@@+++++@@+.",
".+@@@+@@@+@@+.",
".+@@++++@+@@+.",
".+@@+@@+@+@@+.",
".+@@+@@+++@@+.",
".+@@++++@@@@+.",
".+@@@@@@@@@@+.",
".+@@@@@@@@@@+.",
".++++++++++++.",
"..............",
"..............",
"++++++++++++++"};
