/* XPM */
static char * close_xpm[] = {
"20 20 83 1",
" 	c None",
".	c #444444",
"+	c #A3A3A3",
"@	c #A6A6A5",
"#	c #A8A8A8",
"$	c #ABABAB",
"%	c #AEADAD",
"&	c #AFAFAF",
"*	c #B2B2B2",
"=	c #B5B4B5",
"-	c #B7B7B7",
";	c #B9B9B9",
">	c #BCBBBB",
",	c #BEBEBE",
"'	c #A3A4A3",
")	c #C9C9C9",
"!	c #DDDDDD",
"~	c #D9D9DA",
"{	c #D6D5D6",
"]	c #D3D2D2",
"^	c #D0D0D0",
"/	c #CDCDCC",
"(	c #CACACA",
"_	c #C7C7C7",
":	c #E3E3E3",
"<	c #A1A1A1",
"[	c #A6A6A6",
"}	c #D6D6D6",
"|	c #D3D2D3",
"1	c #CDCCCD",
"2	c #C9CACA",
"3	c #C6C7C7",
"4	c #C6C6C5",
"5	c #A8A8A9",
"6	c #D0CFD0",
"7	c #CDCCCC",
"8	c #CACAC9",
"9	c #C7C7C6",
"0	c #BABABA",
"a	c #C8C8C8",
"b	c #DADAD9",
"c	c #C9C9CA",
"d	c #BABBBA",
"e	c #B8B7B7",
"f	c #CBCBCB",
"g	c #ADADAD",
"h	c #D2D3D3",
"i	c #CFD0D0",
"j	c #BABBBB",
"k	c #B7B7B8",
"l	c #B5B5B5",
"m	c #CECDCE",
"n	c #B0B0AF",
"o	c #D3D3D3",
"p	c #BBBBBA",
"q	c #CDCDCD",
"r	c #B0AFAF",
"s	c #B4B4B5",
"t	c #CCCCCD",
"u	c #C6C7C6",
"v	c #B0AFB0",
"w	c #ACACAC",
"x	c #D5D5D5",
"y	c #B7B7B6",
"z	c #CAC9C9",
"A	c #ACACAD",
"B	c #A9A9A9",
"C	c #D8D8D8",
"D	c #C6C6C6",
"E	c #A7A7A7",
"F	c #DBDBDA",
"G	c #BCBCBC",
"H	c #BBBABA",
"I	c #AFAFB0",
"J	c #ADACAC",
"K	c #DEDEDE",
"L	c #A4A4A4",
"M	c #E1E1E1",
"N	c #C5C5C5",
"O	c #CECECD",
"P	c #D9D8D9",
"Q	c #DADBDB",
"R	c #E0E0E1",
"                    ",
"                    ",
"  ................  ",
"  ..+@#$%&*=-;>,..  ",
"  .'.)!~{]^/(_:.<.  ",
"  .[).)}|^123:.<4.  ",
"  .5!).)6789:.<0a.  ",
"  .$b}).)c_:.<def.  ",
"  .g{hi).::.<jklm.  ",
"  .no^18:..<pkl*^.  ",
"  .*iq(_:..<kl*r|.  ",
"  .st)u:.<<.<*vwx.  ",
"  .yz9:.<j-l.<ABC.  ",
"  .;D:.<0-l*&.<EF.  ",
"  .G:.<H-l*IJB.<K.  ",
"  .,.<0kl*rABEL.M.  ",
"  ..<NafO^hxPQKR..  ",
"  ................  ",
"                    ",
"                    "};
