/* XPM */
static char * close_xpm[] = {
"20 20 93 2",
"  	c None",
". 	c #000000",
"+ 	c #8E8E8E",
"@ 	c #929291",
"# 	c #959595",
"$ 	c #999999",
"% 	c #9D9C9C",
"& 	c #9F9F9F",
"* 	c #A3A3A3",
"= 	c #A7A6A7",
"- 	c #AAAAAA",
"; 	c #ADADAD",
"> 	c #B1B0B0",
", 	c #B4B4B4",
"' 	c #8E8F8E",
") 	c #C3C3C3",
"! 	c #DCDCDC",
"~ 	c #D7D7D8",
"{ 	c #D4D3D4",
"] 	c #D0CFCF",
"^ 	c #CCCCCC",
"/ 	c #C8C8C7",
"( 	c #C4C4C4",
"_ 	c #C0C0C0",
": 	c #E4E4E4",
"< 	c #8B8B8B",
"[ 	c #929292",
"} 	c #D4D4D4",
"| 	c #D0CFD0",
"1 	c #C8C7C8",
"2 	c #C3C4C4",
"3 	c #BFC0C0",
"4 	c #BFBFBE",
"5 	c #959596",
"6 	c #CCCBCC",
"7 	c #C8C7C7",
"8 	c #C4C4C3",
"9 	c #C0C0BF",
"0 	c #AFAFAF",
"a 	c #C2C1C2",
"b 	c #D8D8D7",
"c 	c #C3C3C4",
"d 	c #AFB0AF",
"e 	c #ACABAB",
"f 	c #C5C5C5",
"g 	c #9C9C9C",
"h 	c #CFD0D0",
"i 	c #CBCCCC",
"j 	c #AFB0B0",
"k 	c #ABABAC",
"l 	c #A8A8A7",
"m 	c #C9C8C9",
"n 	c #A0A09F",
"o 	c #D0D0D0",
"p 	c #B0B0AF",
"q 	c #A7A7A7",
"r 	c #A3A4A3",
"s 	c #C8C8C8",
"t 	c #A7A7A8",
"u 	c #A4A4A3",
"v 	c #A09F9F",
"w 	c #A6A6A7",
"x 	c #C7C7C8",
"y 	c #BFC0BF",
"z 	c #A09FA0",
"A 	c #9B9B9B",
"B 	c #D2D3D3",
"C 	c #AAAAA9",
"D 	c #C4C3C3",
"E 	c #ABABAB",
"F 	c #9B9B9C",
"G 	c #979797",
"H 	c #D6D6D6",
"I 	c #BFBFBF",
"J 	c #A7A8A7",
"K 	c #939393",
"L 	c #DADAD9",
"M 	c #B1B1B1",
"N 	c #B0AFAF",
"O 	c #9F9FA0",
"P 	c #9C9B9B",
"Q 	c #DDDDDE",
"R 	c #A3A3A4",
"S 	c #8F8F90",
"T 	c #E1E1E1",
"U 	c #BEBEBE",
"V 	c #C2C2C2",
"W 	c #C9C9C8",
"X 	c #D3D3D3",
"Y 	c #D7D6D7",
"Z 	c #D9DADA",
"` 	c #DDDDDD",
" .	c #E0E0E1",
"                                        ",
"                                        ",
"    . . . . . . . . . . . . . . . .     ",
"    . . + @ # $ % & * = - ; > , . .     ",
"    . ' . ) ! ~ { ] ^ / ( _ : . < .     ",
"    . [ ) . ) } | ^ 1 2 3 : . < 4 .     ",
"    . 5 ! ) . ) 6 7 8 9 : . < 0 a .     ",
"    . $ b } ) . ) c _ : . < d e f .     ",
"    . g { h i ) . : : . < j k l m .     ",
"    . n o ^ 1 8 : . . < p k q r ^ .     ",
"    . * i s ( _ : . . < k t u v | .     ",
"    . w x ) y : . < < . < * z A B .     ",
"    . C D 9 : . < j E q . < F G H .     ",
"    . ; I : . < 0 E J * & . < K L .     ",
"    . M : . < N E t u O P G . < Q .     ",
"    . , . < 0 k q R v F G K S . T .     ",
"    . . < U V f W ^ h X Y Z `  .. .     ",
"    . . . . . . . . . . . . . . . .     ",
"                                        ",
"                                        "};
