/* XPM */
static char * title_xpm[] = {
"100 20 375 2",
"  	c None",
". 	c #8B8B8B",
"+ 	c #666666",
"@ 	c #494949",
"# 	c #000000",
"$ 	c #FFFFFF",
"% 	c #F7F7F7",
"& 	c #F8F8F8",
"* 	c #F9F9F9",
"= 	c #FAFAFA",
"- 	c #F6F6F6",
"; 	c #F5F5F5",
"> 	c #F4F4F4",
", 	c #F3F4F3",
"' 	c #F0F0F0",
") 	c #F3F3F3",
"! 	c #F2F2F2",
"~ 	c #F1F1F1",
"{ 	c #EFEFEF",
"] 	c #EEEEEE",
"^ 	c #EDEDED",
"/ 	c #ECECEC",
"( 	c #EBEBEC",
"_ 	c #EBEBEB",
": 	c #EAEAEA",
"< 	c #E9E9E9",
"[ 	c #EAEBEA",
"} 	c #E8E8E8",
"| 	c #EAE9EA",
"1 	c #EAEAEB",
"2 	c #E7E7E7",
"3 	c #E8E9E8",
"4 	c #E6E6E6",
"5 	c #E5E5E5",
"6 	c #E3E3E3",
"7 	c #E1E1E1",
"8 	c #E2E2E2",
"9 	c #E4E4E4",
"0 	c #E3E4E3",
"a 	c #E0E0E0",
"b 	c #DFDFDF",
"c 	c #E1E1E2",
"d 	c #DEDEDE",
"e 	c #DDDDDD",
"f 	c #DBDCDB",
"g 	c #DCDCDC",
"h 	c #DEDFDF",
"i 	c #DFDEDE",
"j 	c #E0E1E0",
"k 	c #DBDADA",
"l 	c #D9D9DA",
"m 	c #E3E2E2",
"n 	c #DBDBDB",
"o 	c #D9D9D9",
"p 	c #D7D7D7",
"q 	c #D8D8D8",
"r 	c #DAD9D9",
"s 	c #DAD9DA",
"t 	c #D9DAD9",
"u 	c #D5D5D5",
"v 	c #D3D4D3",
"w 	c #D3D3D3",
"x 	c #D4D4D5",
"y 	c #D6D5D5",
"z 	c #D6D6D7",
"A 	c #D4D4D4",
"B 	c #D1D1D1",
"C 	c #CFCFD0",
"D 	c #D0CFCF",
"E 	c #D4D5D5",
"F 	c #D8D9D9",
"G 	c #D8D9D8",
"H 	c #D6D6D6",
"I 	c #D3D3D4",
"J 	c #D0D1D1",
"K 	c #CFCFCF",
"L 	c #D0D0D1",
"M 	c #D4D4D3",
"N 	c #D2D2D3",
"O 	c #D0D0D0",
"P 	c #D3D2D3",
"Q 	c #D4D3D3",
"R 	c #D2D2D2",
"S 	c #D6D5D6",
"T 	c #D6D7D6",
"U 	c #D2D2D1",
"V 	c #CDCCCC",
"W 	c #CBCBCB",
"X 	c #D5D6D6",
"Y 	c #D1D0D0",
"Z 	c #CDCDCD",
"` 	c #CCCCCC",
" .	c #CECECE",
"..	c #CFCFCE",
"+.	c #CECFCE",
"@.	c #CACACA",
"#.	c #C7C7C7",
"$.	c #C6C6C6",
"%.	c #C8C7C8",
"&.	c #CACAC9",
"*.	c #CBCBCA",
"=.	c #CECDCD",
"-.	c #CCCDCC",
";.	c #CACACB",
">.	c #C6C7C6",
",.	c #C2C3C2",
"'.	c #C2C2C2",
").	c #C5C4C4",
"!.	c #C7C8C8",
"~.	c #CCCBCB",
"{.	c #CBCACA",
"].	c #C0C0BF",
"^.	c #C1C0C0",
"/.	c #C3C3C3",
"(.	c #CDCCCD",
"_.	c #CCCCCD",
":.	c #C6C5C5",
"<.	c #C0BFC0",
"[.	c #C1C2C2",
"}.	c #C4C5C5",
"|.	c #C9C9C9",
"1.	c #C8C7C7",
"2.	c #C6C6C7",
"3.	c #C4C4C5",
"4.	c #C4C4C3",
"5.	c #C4C4C4",
"6.	c #C7C8C7",
"7.	c #CAC9CA",
"8.	c #C8C8C8",
"9.	c #C7C6C7",
"0.	c #C7C6C6",
"a.	c #C5C5C5",
"b.	c #BEBFBE",
"c.	c #BCBDBC",
"d.	c #BCBDBD",
"e.	c #DADADA",
"f.	c #C1C1C1",
"g.	c #C2C1C2",
"h.	c #BDBDBD",
"i.	c #B9BAB9",
"j.	c #B9B9B9",
"k.	c #BBBBBA",
"l.	c #BDBEBD",
"m.	c #C1C1C2",
"n.	c #C0C0C0",
"o.	c #BFBFBF",
"p.	c #BEBFBF",
"q.	c #B5B6B5",
"r.	c #B4B3B3",
"s.	c #B5B5B5",
"t.	c #B8B8B8",
"u.	c #BBBCBC",
"v.	c #BFC0C0",
"w.	c #BEBEBF",
"x.	c #B3B3B4",
"y.	c #B1B1B1",
"z.	c #B0B1B1",
"A.	c #B3B4B4",
"B.	c #B9B9BA",
"C.	c #BAB9BA",
"D.	c #B1B0B1",
"E.	c #B0B0B1",
"F.	c #B3B3B3",
"G.	c #B7B7B7",
"H.	c #BCBCBC",
"I.	c #BEBDBD",
"J.	c #BCBBBB",
"K.	c #B9B8B8",
"L.	c #B7B6B7",
"M.	c #B5B5B4",
"N.	c #B2B3B2",
"O.	c #B4B4B3",
"P.	c #BABABA",
"Q.	c #BEBEBE",
"R.	c #BBBBBB",
"S.	c #B7B8B7",
"T.	c #B6B6B6",
"U.	c #B8B9B9",
"V.	c #B9BABA",
"W.	c #AEAEAF",
"X.	c #AEADAE",
"Y.	c #AEAFAF",
"Z.	c #C8C9C9",
"`.	c #C3C2C3",
" +	c #C4C3C4",
".+	c #BFBEBF",
"++	c #BABBBB",
"@+	c #B5B5B6",
"#+	c #B9B9B8",
"$+	c #BBBCBB",
"%+	c #BDBEBE",
"&+	c #C0C0C1",
"*+	c #B0B1B0",
"=+	c #B2B2B2",
"-+	c #BABABB",
";+	c #B1B1B0",
">+	c #ADAEAE",
",+	c #AEADAD",
"'+	c #B0B0B0",
")+	c #B6B6B7",
"!+	c #BDBCBC",
"~+	c #C1C0C1",
"{+	c #BEBDBE",
"]+	c #AFAEAE",
"^+	c #ADAEAD",
"/+	c #AFAFAF",
"(+	c #B4B4B4",
"_+	c #BBBABA",
":+	c #B7B8B8",
"<+	c #B0AFB0",
"[+	c #AFB0AF",
"}+	c #B2B3B3",
"|+	c #B7B7B6",
"1+	c #ABACAC",
"2+	c #ACACAD",
"3+	c #B0B0AF",
"4+	c #D1D1D2",
"5+	c #CFD0D0",
"6+	c #BFBFC0",
"7+	c #BFBEBE",
"8+	c #C1C2C1",
"9+	c #B5B4B4",
"0+	c #BCBCBB",
"a+	c #B9B8B9",
"b+	c #AEAEAE",
"c+	c #B7B7B8",
"d+	c #AAABAA",
"e+	c #A9A9A9",
"f+	c #ADADAD",
"g+	c #B2B2B1",
"h+	c #BDBDBE",
"i+	c #C0BFBF",
"j+	c #ABABAB",
"k+	c #ACACAB",
"l+	c #B2B1B1",
"m+	c #BCBCBD",
"n+	c #ADACAC",
"o+	c #ABACAB",
"p+	c #BDBDBC",
"q+	c #B6B7B6",
"r+	c #B1B1B2",
"s+	c #ADADAE",
"t+	c #AAABAB",
"u+	c #D2D1D1",
"v+	c #CBCBCC",
"w+	c #C5C6C6",
"x+	c #BBBBBC",
"y+	c #ADACAD",
"z+	c #ABABAC",
"A+	c #B0AFAF",
"B+	c #A8A8A8",
"C+	c #AAAAAA",
"D+	c #A8A9A9",
"E+	c #A7A7A7",
"F+	c #A8A9A8",
"G+	c #A9A8A9",
"H+	c #A6A7A7",
"I+	c #ACABAB",
"J+	c #B8B7B7",
"K+	c #A9A9A8",
"L+	c #ABAAAB",
"M+	c #CBCCCC",
"N+	c #BBBABB",
"O+	c #B8B7B8",
"P+	c #B6B5B6",
"Q+	c #AAAAA9",
"R+	c #ACACAC",
"S+	c #B4B5B4",
"T+	c #A7A8A7",
"U+	c #A4A5A4",
"V+	c #A5A5A5",
"W+	c #B8B8B9",
"X+	c #A4A5A5",
"Y+	c #A6A6A6",
"Z+	c #AAA9A9",
"`+	c #A5A5A4",
" @	c #A3A4A4",
".@	c #A5A4A4",
"+@	c #B6B6B5",
"@@	c #ABABAA",
"#@	c #A8A8A7",
"$@	c #BABAB9",
"%@	c #CDCECE",
"&@	c #B6B7B7",
"*@	c #AAA9AA",
"=@	c #A1A1A1",
"-@	c #A2A2A2",
";@	c #A4A4A5",
">@	c #B3B2B2",
",@	c #B8B8B7",
"'@	c #A2A1A1",
")@	c #A2A2A3",
"!@	c #B3B4B3",
"~@	c #ACADAD",
"{@	c #A6A5A5",
"]@	c #A1A1A2",
"^@	c #A09FA0",
"/@	c #A0A0A1",
"(@	c #A4A4A4",
"_@	c #A0A1A1",
":@	c #A9AAAA",
"<@	c #D8D7D8",
"[@	c #B8B9B8",
"}@	c #B6B5B5",
"|@	c #A3A4A3",
"1@	c #A3A3A3",
"2@	c #ADADAC",
"3@	c #A7A8A8",
"4@	c #A1A2A2",
"5@	c #9F9F9F",
"6@	c #9E9E9E",
"7@	c #9E9F9F",
"8@	c #A0A09F",
"9@	c #9F9F9E",
"0@	c #9D9D9C",
"a@	c #A2A1A2",
"b@	c #9D9D9D",
"c@	c #ACABAC",
"d@	c #B5B6B6",
"e@	c #A1A0A1",
"f@	c #A4A3A4",
"g@	c #A2A2A1",
"h@	c #9A9B9B",
"i@	c #9A9B9A",
"j@	c #9F9E9F",
"k@	c #A6A6A5",
"l@	c #9FA0A0",
"m@	c #A8A8A9",
"n@	c #9C9C9C",
"o@	c #9A9A9A",
"p@	c #9B9B9B",
"q@	c #999A9A",
"r@	c #999999",
"s@	c #9A9A99",
"t@	c #9E9D9E",
"u@	c #AEAEAD",
"v@	c #A4A4A3",
"w@	c #B3B2B3",
"x@	c #9B9C9B",
"y@	c #979797",
"z@	c #989898",
"A@	c #959595",
"B@	c #979697",
"C@	c #9A9999",
"D@	c #A0A0A0",
"E@	c #A7A6A6",
"F@	c #A6A6A7",
"G@	c #A7A6A7",
"H@	c #CFCECF",
"I@	c #B4B3B4",
"J@	c #939392",
"K@	c #949494",
"L@	c #9C9B9C",
"M@	c #999899",
"N@	c #989999",
"O@	c #9D9C9D",
"P@	c #979796",
"Q@	c #969696",
"R@	c #A2A3A3",
"S@	c #929292",
"T@	c #919292",
"U@	c #939293",
"V@	c #B2B1B2",
"W@	c #8F8F8F",
"X@	c #8E8E8E",
"Y@	c #929192",
"Z@	c #969596",
"`@	c #919191",
" #	c #989798",
".#	c #939393",
"+#	c #929291",
"@#	c #8F8E8F",
"##	c #909191",
"$#	c #959695",
"%#	c #908F90",
". + + @ @ # # # # # # # # # # # # # # # # # # # # # # # # # # # # # # # # # # # # # # # # # # # # # # # # # # # # # # # # # # # # # # # # # # # # # # # # # # # # # # # # # # # # # # # # # @ @ + + . . ",
"$ $ $ $ $ $ $ $ $ $ $ $ $ $ $ $ $ $ $ $ $ $ $ $ $ $ $ $ $ $ $ $ $ $ $ $ $ $ $ $ $ $ $ $ $ $ $ $ $ $ $ $ $ $ $ $ $ $ $ $ $ $ $ $ $ $ $ $ $ $ $ $ $ $ $ $ $ $ $ $ $ $ $ $ $ $ $ $ $ $ $ $ $ $ $ $ $ $ $ $ ",
"$ $ $ $ $ $ $ $ $ $ $ $ $ $ $ $ $ $ $ $ $ $ $ $ $ $ $ $ $ $ $ $ $ $ $ $ $ $ $ $ $ $ $ $ $ $ $ $ $ $ $ $ $ $ $ $ $ $ $ $ $ $ $ $ $ $ $ $ $ $ $ $ $ $ $ $ $ $ $ $ $ $ $ $ $ $ $ $ $ $ $ $ $ $ $ $ $ $ $ $ ",
"% & * = = = = = = = = = = * * * * * & & & & & % - - - - - - - - - - - ; ; ; ; ; ; ; ; ; ; ; ; - - - - - ; ; > > > ; ; - - ; ; > > > ; ; ; ; ; ; ; > > > ; ; ; > > > > > ; ; ; ; ; ; ; ; ; ; ; ; ; ; > , ",
"' ) ; ; ; ; ; ; ; ; ; ; > > ) ) ! ~ ~ ' ' { ] ^ / / / ^ ^ ^ ^ ^ ^ ^ / ( _ _ _ _ / / _ _ / / ^ ^ ] ^ / _ : < < < _ / ^ ^ / [ < } < : _ / / / _ : | < < : : 1 : : : : : : : : : _ _ / / _ _ _ / / _ : } 2 ",
"< ] ' ~ ~ ~ ~ ' ~ ' { ] ^ / / : : 3 } 2 4 5 6 7 8 8 6 9 6 6 6 0 8 8 a b b a 7 7 c 7 7 7 7 8 6 0 0 8 a d e e d a 7 6 8 7 b e f g d a 8 8 7 a h e g g e b b b b b i b i d d d d a 7 7 7 7 a j a 7 b e k l ",
"6 } _ / / / / / _ < 2 5 6 6 m 7 7 b b e n o p p q o o r s t o o p u v w x y p p p p z p p o o o p A B C D B E p F G H I J K K L M p q p u N O K K O P A E Q w w w w R B B R A S H T u u A A u A U K V W ",
"g 8 4 4 4 4 4 5 9 7 e n o q p H H X R Y Z ` ` ` K  ...+.K D  .Z @.#.$.%.&.` Z ` ` W *.` Z =.-.;.>.,.'.'.).!.~.Z Z {.>.'.].^./.#.W (._.@.:.'.<.].[.}.#.|.|.#.1.2.3.4./.'.5.6.7.W W |.8.9.$.0.#.a.'.b.c.d.",
"H g b 7 7 7 a d e.H w B O K Z ` W |.$.'.f.g././.5.5.5.3.a.5.f.h.i.j.k.l.f.'.m.n.n.o.f.'./.'.p.j.q.r.s.t.u.v.f.f.w.i.x.y.z.A.B.o.'.'.o.C.s.D.E.F.G.H.b.o.I.J.K.L.M.N.O.s.P.l.<.v.Q.R.S.T.G.U.V.T.N.W.X.Y.",
"p g b b a b e o u R O K  ._.;.Z.$.5.f.o.o.'.`.`.,./. + +'..+++S.@+#+$+<.f.n.o.%+Q.Q.n.&+o.H.G.F.*+=+T.k.Q.o.Q.-+@+;+>+,+'+)+!+~+~+{+t.=+]+^+/+(+i.I.w.l._+:+F.E.<+[+=+G.H.Q.Q.H.t.s.}+=+(+|+s.=+]+1+2+3+",
"o e b b d g q A 4+5+ . .` @.$./.f.6+o.7+o.f.8+f.f.m.f.6+H.G.9+F.T.P.Q.p.b.d.0+u.h.{+l.$+a+(+'+b+/+(+j.h.I.R.c+F.X.d+e+f+g+j.h+i+d.G.'+j+d+k+l+G.m+{+H.j.9+D.n+d+o+Y.(+j.p+c._+q+=+Y.2+Y.=+O.r+s+t+j+b+r.",
"e.d b b g o u u+C  .Z v+&.w+f.Q.p+!+h.Q.w.o.n.n.^.n.m+j.(+y.y.M.U.H.h.!+++P.j.R.x+R.t.s.y.y+z+X.g+|+-+H.P.s.A+j+B+B+C+b+s.k.h.P.9+f+D+E+F+X.s.P.H.R.L.=+f+G+H+D+I+=+J+P.R.t.A.b+C+K+L+,+'+'+X.C+e+1+'+J+",
"n d b d n H w O  .Z M+8.).^.h.P.P.N+H.h.Q.Q.o.o.Q.P.s.*+b+'+F.O+J.h.R.#+S.O+j.j.a+P+y.f+Q+e+R+y.S+U.P.J+F.f+T+U+V+B+b+(+W+P.j.(+y+E+X+Y+L+=+j.H._+T./+Z+`+ @.@D+W.+@P.N+G.r+R+E+U+Y+F+y+'+b+@@#@D+f+F.$@",
"g d d e o u B K %@W #.'.Q.0+j.G.i.R.d.h.h.h.h.R.:+=+R+d+f+g+T.P.R.V.J+q.T.&@:+G.(+]+*@Y+E+C+/+x.G.O+q.E.t+.@=@-@;@z+>@,@V.:+r+t+V+'@)@B+/+P+j.U.!@~@{@]@^@/@V+R+F.t.C.)+'+C+(@=@_@(@B+R+f+C+B+E+:@f+=+)+",
"n d e g <@A O Z @.a.n.H.j.t.S.[@j.P.H.h.p+H.t.F.b+G+E+K+]+s.j.t.G.s.(+M.}@s.(+'+k+Y+|@1@E+2@=+s.+@F.b+3@4@5@6@4@e+;+G.j.G.*+D+-@7@8@X+R+>@G.L.=+t+1@9@0@6@-@B+'+T.j.T.'+B+a@b@0@9@1@K+c@t+B+E+D+z+f+,+/+",
"e.n g o u B Z &./.I.t.}@s.d@G.t.j.P.H.h.P.T.'+e+)@e@=@e+D.d@d@F.z.D.=+A.A.}+b+e+f@e@g@Y+j+<+O.F.y.j+;@5@h@i@j@k@X.(+G.s./+B+l@b@6@-@C+y.s.s.'+m@-@n@o@p@^@{@f+F.&@s./+E+l@q@r@q@9@(@K+C+G+E+E+e+C+K+Y+(@",
"q o o H w  .Z.f.R.(+y.y.F.s.T.,@j.P.++j.(+f+`+9@q@s@t@E+b+y./+u@b+'+F.F.3+j+Y+a@6@j@v@e+/+w@=+/+e+=@x@r@r@n@1@j+y.(+=+f+V+6@r@o@6@E+b+(+(+/+E+5@q@y@r@0@(@j+y.(+=+R+(@b@z@A@B@C@D@E@*@*@F@Y+G@E+Y+-@t@p@",
"H H u R H@8.n.t.'+~@f+/+F.I@(+G.t.j.T.z.C+-@o@A@J@K@z@l@Y+B+E+e+f+'+l+X.*@1@6@L@b@4@B+f+'+'+2@E+D@M@A@A@N@D@e+'+=+'+C+=@p@y@z@L@1@R+=+F.b+Y+O@P@A@Q@n@1@j+'+=+'+t+R@o@A@S@T@Q@n@1@e+e+D+3@Y+(@-@5@o@Q@U@",
"w R O Z $.o.(+R+H+e+R+'+y.y.V@(+s.F.u@Y+6@y@S@W@X@W@Y@Q@o@n@D@Y+c@/+f+E+=@o@z@p@D@Y+R+/+>+C+(@b@Z@S@`@K@p@V+f+y./+e+7@ #.#J@z@D@e+'+=+f+V+n@A@+#.#z@=@C+'+'+b+B+D@r@.#@#W@##y@5@E+C+t+B+V+-@6@o@$#.#%#W@",
". + + @ # # # # # # # # # # # # # # # # # # # # # # # # # # # # # # # # # # # # # # # # # # # # # # # # # # # # # # # # # # # # # # # # # # # # # # # # # # # # # # # # # # # # # # # # # # # # @ + + . "};
