/* XPM */
static char * max_pressed_xpm[] = {
"18 20 79 1",
" 	c None",
".	c #F5F8FF",
"+	c #ECF0F3",
"@	c #E7EAED",
"#	c #E5E8EB",
"$	c #E4E7EA",
"%	c #E6E7E9",
"&	c #E0E1E2",
"*	c #D4D4D7",
"=	c #C9C9C9",
"-	c #BEBEBE",
";	c #B9B9B9",
">	c #E2E2E1",
",	c #E7E7E7",
"'	c #E7E7E9",
")	c #E5E5E7",
"!	c #DDDDDF",
"~	c #CECECE",
"{	c #B3B3B3",
"]	c #898886",
"^	c #696765",
"/	c #595755",
"(	c #8A8988",
"_	c #B3B2B2",
":	c #CBCBCC",
"<	c #DFDFDF",
"[	c #A8A8A6",
"}	c #6A6965",
"|	c #242320",
"1	c #010001",
"2	c #A6A6A5",
"3	c #030100",
"4	c #7C7A7D",
"5	c #BBBBBB",
"6	c #E4E4E2",
"7	c #DEDEDC",
"8	c #C3C3C0",
"9	c #828282",
"0	c #838383",
"a	c #666666",
"b	c #DBDBDA",
"c	c #BDBDBB",
"d	c #1C1A1C",
"e	c #5C5C5C",
"f	c #565656",
"g	c #CCF6FF",
"h	c #1A1A1A",
"i	c #DADADA",
"j	c #5A5A57",
"k	c #3C3C3C",
"l	c #CBF5FF",
"m	c #3D3D3D",
"n	c #C0C0C0",
"o	c #030303",
"p	c #D0D0D0",
"q	c #6C6A69",
"r	c #F5F5F5",
"s	c #969693",
"t	c #393939",
"u	c #232323",
"v	c #060606",
"w	c #F4F4F5",
"x	c #F2F2F2",
"y	c #EEEDEE",
"z	c #272727",
"A	c #EDEDED",
"B	c #D7D7D7",
"C	c #FAFAFA",
"D	c #D3D3D3",
"E	c #F8F8F7",
"F	c #D5D5D5",
"G	c #999896",
"H	c #595752",
"I	c #D1D1D1",
"J	c #FEFEFE",
"K	c #CDCDCD",
"L	c #C6C6C6",
"M	c #B8B8B8",
"N	c #555555",
"..................",
"+++++@@#$$#@@+++++",
"%%%%&*=-;;-=*>%#,#",
"'%)!~{]^//^(_:!),,",
",)<=[}|1111|}2=<),",
")>~{^314;5411^_~6,",
"678]|190aa001|]8b6",
">bc}1defggfeh1};b6",
">i8j11klgggm11jnb<",
"!!~j11oloogo11jp<<",
"!!)q1h111111h1q)<b",
"bbrs|1tuvvut1|sw!b",
"ibxy}11zeez11}AxbB",
"BB!CD}|1111|}DE!B*",
"FF*bxCG}HH}GEw!FFD",
"IIID*>xCJJCx<FIIII",
"K~~~~II~IIII~~~~~~",
"LLLLLLLLLLLLLLLLLL",
"MMMMMMMMMMMMMMMMMM",
"NNNNNNNNNNNNNNNNNN"};
