/* XPM */
static char * min_pressed_xpm[] = {
"18 20 86 1",
" 	c None",
".	c #F5F8FF",
"+	c #ECF0F3",
"@	c #E7EAED",
"#	c #E5E8EB",
"$	c #E4E7EA",
"%	c #E6E7E9",
"&	c #E0E1E2",
"*	c #D4D4D7",
"=	c #C9C9C9",
"-	c #BEBEBE",
";	c #B9B9B9",
">	c #E2E2E1",
",	c #E6E6E5",
"'	c #E7E7E9",
")	c #E5E5E7",
"!	c #DDDDDF",
"~	c #CECECE",
"{	c #B3B3B3",
"]	c #898886",
"^	c #696765",
"/	c #595755",
"(	c #8A8988",
"_	c #B3B2B2",
":	c #CBCBCC",
"<	c #E7E7E7",
"[	c #DFDFDF",
"}	c #A8A8A6",
"|	c #6A6965",
"1	c #242320",
"2	c #010001",
"3	c #A6A6A5",
"4	c #030100",
"5	c #7C7A7D",
"6	c #BBBBBB",
"7	c #E4E4E2",
"8	c #DEDEDC",
"9	c #C3C3C0",
"0	c #828282",
"a	c #838383",
"b	c #666666",
"c	c #DEDEDE",
"d	c #DBDBDA",
"e	c #BDBDBB",
"f	c #1C1A1C",
"g	c #5C5C5C",
"h	c #565656",
"i	c #575757",
"j	c #1A1A1A",
"k	c #C0C0C0",
"l	c #5A5A57",
"m	c #3C3C3C",
"n	c #4A4A4A",
"o	c #3D3D3D",
"p	c #D0CFD0",
"q	c #5C5A57",
"r	c #040404",
"s	c #3F3F3F",
"t	c #CFCFCF",
"u	c #6A6966",
"v	c #CCF6FF",
"w	c #6C6A69",
"x	c #DDDDDD",
"y	c #F4F4F5",
"z	c #969693",
"A	c #393939",
"B	c #232323",
"C	c #060606",
"D	c #D9D9D9",
"E	c #F2F2F2",
"F	c #EDEDED",
"G	c #272727",
"H	c #F8F8F7",
"I	c #D3D3D3",
"J	c #D7D7D7",
"K	c #D5D5D5",
"L	c #FAFAFA",
"M	c #999896",
"N	c #595752",
"O	c #D1D1D1",
"P	c #FEFEFE",
"Q	c #CDCDCD",
"R	c #CCCCCD",
"S	c #C6C6C6",
"T	c #B8B8B8",
"U	c #555555",
"..................",
"+++++@@#$$#@@+++++",
"%%%%&*=-;;-=*>%#,#",
"'%)!~{]^//^(_:!)#@",
"<)[=}|122221|3=[,,",
")>~{^425;6522^_~>,",
"789]120abbaa21]9c>",
">de|2fghiihgj2|;d>",
">dkl22mnnnno22lkdc",
"!!pq22rmssmr22ltcc",
"![)u2j2vvvv2j2w)cx",
"d!yz12ABCCBA21zyxd",
"DdEF|22GggG22|FEdd",
"*D!HI|122221|IH!JJ",
"K*KdELM|NN|MHy!K**",
"OppI*>ELPPLE[KOOtt",
"OQR~~tttpppItttRtt",
"SSSSSSSSSSSSSSSSSS",
"TTTTTTTTTTTTTTTTTT",
"NNUUUUUhUUUUUUUUUU"};
