/* XPM */
static char * title_xpm[] = {
"5 20 18 1",
" 	c None",
".	c #F5F8FF",
"+	c #ECF0F3",
"@	c #E6E7E9",
"#	c #E7E7E9",
"$	c #E7E7E7",
"%	c #E6E6E5",
"&	c #E4E4E2",
"*	c #E2E2E1",
"=	c #DFDFDF",
"-	c #D9D9D9",
";	c #D4D4D4",
">	c #D7D7D7",
",	c #D1D1D1",
"'	c #CECECE",
")	c #C6C6C6",
"!	c #B8B8B8",
"~	c #555555",
".....",
"+++++",
"@@@@@",
"###@#",
"$$$$$",
"%%%%%",
"&&&&&",
"*****",
"====*",
"=====",
"=====",
"-----",
"-----",
";>>>>",
";;;;;",
",,,,,",
"'''''",
")))))",
"!!!!!",
"~~~~~"};
