/* XPM */
static char * closeD_xpm[] = {
"20 20 192 2",
"  	c None",
". 	c #0175FF",
"+ 	c #035CEC",
"@ 	c #57929D",
"# 	c #8EB66A",
"$ 	c #ABC94F",
"% 	c #ABC950",
"& 	c #ABC957",
"* 	c #0156E5",
"= 	c #8DB366",
"- 	c #FFB579",
"; 	c #FFB174",
"> 	c #FFA66C",
", 	c #FF9A61",
"' 	c #FF9058",
") 	c #FF8750",
"! 	c #FC8148",
"~ 	c #F67B43",
"{ 	c #F2773F",
"] 	c #EF753D",
"^ 	c #EC733A",
"/ 	c #E87039",
"( 	c #E76F39",
"_ 	c #D16233",
": 	c #C75B30",
"< 	c #0053E1",
"[ 	c #AAC64B",
"} 	c #FFAF75",
"| 	c #FFA56E",
"1 	c #FF9A66",
"2 	c #FF8F5C",
"3 	c #FF8552",
"4 	c #F77C4B",
"5 	c #F07544",
"6 	c #EB703F",
"7 	c #E76C3B",
"8 	c #E46A39",
"9 	c #E16737",
"0 	c #DC6436",
"a 	c #DC6435",
"b 	c #C0562E",
"c 	c #B4512D",
"d 	c #0653DF",
"e 	c #ACC64A",
"f 	c #FFA96E",
"g 	c #FF9F69",
"h 	c #FF9561",
"i 	c #FF8B57",
"j 	c #FC814F",
"k 	c #F47A49",
"l 	c #EE7343",
"m 	c #E96F3E",
"n 	c #E66B3B",
"o 	c #E36939",
"p 	c #E16736",
"q 	c #DB6435",
"r 	c #0051E8",
"s 	c #AAC54D",
"t 	c #FF9B63",
"u 	c #FF915F",
"v 	c #FC8857",
"w 	c #F68150",
"x 	c #FEFE00",
"y 	c #E36E3D",
"z 	c #DF6A39",
"A 	c #DC6737",
"B 	c #DA6635",
"C 	c #D15F32",
"D 	c #B7522D",
"E 	c #AD4D2C",
"F 	c #0151E4",
"G 	c #AAC54C",
"H 	c #FF925B",
"I 	c #FF8956",
"J 	c #F5804F",
"K 	c #F27B4B",
"L 	c #EC7645",
"M 	c #DF6939",
"N 	c #DD6737",
"O 	c #D36033",
"P 	c #B8522D",
"Q 	c #AD4D2B",
"R 	c #0153E7",
"S 	c #AAC64D",
"T 	c #FF8952",
"U 	c #F9804D",
"V 	c #EE7848",
"W 	c #EB7545",
"X 	c #E77141",
"Y 	c #E36D3D",
"Z 	c #D86433",
"` 	c #D26033",
" .	c #B7522C",
"..	c #FB8049",
"+.	c #F17846",
"@.	c #E77241",
"#.	c #E6703F",
"$.	c #E06A3A",
"%.	c #DE6838",
"&.	c #DA6535",
"*.	c #D76333",
"=.	c #AC4D2B",
"-.	c #0053E9",
";.	c #AAC64E",
">.	c #F47A43",
",.	c #EA7240",
"'.	c #E16D3C",
").	c #E16C3B",
"!.	c #DD6838",
"~.	c #D66333",
"{.	c #D25F33",
"].	c #0055ED",
"^.	c #AAC64F",
"/.	c #EF753E",
"(.	c #E66E3B",
"_.	c #DD6938",
":.	c #DE6938",
"<.	c #D96535",
"[.	c #D96434",
"}.	c #B6522C",
"|.	c #AC4C2B",
"1.	c #0057F1",
"2.	c #AAC752",
"3.	c #EA703A",
"4.	c #E26B38",
"5.	c #DA6636",
"6.	c #DA6536",
"7.	c #D86334",
"8.	c #D76334",
"9.	c #D76234",
"0.	c #CF5F32",
"a.	c #B6512C",
"b.	c #AB4C2B",
"c.	c #AAC750",
"d.	c #015AF4",
"e.	c #AAC853",
"f.	c #E86E38",
"g.	c #DF6837",
"h.	c #D96435",
"i.	c #D86435",
"j.	c #D66234",
"k.	c #D66233",
"l.	c #D26132",
"m.	c #CA5C31",
"n.	c #AE4E2A",
"o.	c #A74A2A",
"p.	c #AAC851",
"q.	c #035DF9",
"r.	c #ABC95B",
"s.	c #E26B36",
"t.	c #D86535",
"u.	c #D56133",
"v.	c #D96335",
"w.	c #D86335",
"x.	c #D76235",
"y.	c #D26032",
"z.	c #CA5B31",
"A.	c #C95B31",
"B.	c #AF502B",
"C.	c #A34A2B",
"D.	c #ABC953",
"E.	c #0465FF",
"F.	c #ABCC5D",
"G.	c #D86733",
"H.	c #C45A2F",
"I.	c #B8542D",
"J.	c #BA552D",
"K.	c #BA552C",
"L.	c #B9552C",
"M.	c #B9542C",
"N.	c #B2512B",
"O.	c #A86120",
"P.	c #AD6C1F",
"Q.	c #ABCC55",
"R.	c #046EFF",
"S.	c #8FBE72",
"T.	c #E2EF1D",
"U.	c #CB6131",
"V.	c #C15C2D",
"W.	c #C35D2E",
"X.	c #C25D2E",
"Y.	c #C15C2E",
"Z.	c #C25C2E",
"`.	c #BF5B2D",
" +	c #CA6130",
".+	c #0072F2",
"++	c #55A1A1",
"@+	c #8DC06C",
"#+	c #AAD051",
"$+	c #006BFF",
"%+	c #075AFF",
"&+	c #0024CA",
". . . . . . . . . . . . . . . . . . . . ",
"+ + @ # $ $ $ $ $ $ $ $ $ % % & & # @ + ",
"* * = - ; > , ' ) ! ~ { ] ^ / ( _ : = * ",
"< < [ } | 1 2 3 4 5 6 7 8 9 0 a b c [ < ",
"d d e f g h i j k l m n o p 0 q b c e d ",
"r r s t u v w x x y z A B x x C D E s r ",
"F F G H I J K L x x M N x x O O P Q G F ",
"R R S T U V W X Y x x x x Z O `  .Q S R ",
"R R S ..+.@.#.Y $.%.x x &.*.` `  .=.S R ",
"-.-.;.>.,.'.).z !.x x x x ~.{.C  .=.;.-.",
"].].^./.(._.:.N x x <.[.x x C C }.|.^.].",
"1.1.2.3.4.5.6.x x 7.8.8.9.x x 0.a.b.c.1.",
"d.d.e.f.g.8.h.i.7.8.8.j.k.l.m.m.n.o.p.d.",
"q.q.r.s.t.u.v.w.w.x.9.9.j.y.z.A.B.C.D.q.",
"E.E.F.G.H.I.J.K.K.L.L.L.M.}.N.N.O.P.Q.E.",
"R.R.S.T.U.V.W.X.X.X.X.Y.Y.Y.Z.Y.`. +S.R.",
".+.+++@+#+#+#+#+#+#+#+#+#+#+#+#+#+@+++.+",
"$+$+$+$+$+$+$+$+$+$+$+$+$+$+$+$+$+$+$+$+",
"%+%+%+%+%+%+%+%+%+%+%+%+%+%+%+%+%+%+%+%+",
"&+&+&+&+&+&+&+&+&+&+&+&+&+&+&+&+&+&+&+&+"};
