/* XPM */
static char * minA_xpm[] = {
"20 20 197 2",
"  	c None",
". 	c #0175FF",
"+ 	c #035CEC",
"@ 	c #4D8DF2",
"# 	c #7DAEF6",
"$ 	c #97BFF8",
"% 	c #98BFF8",
"& 	c #98C0F8",
"* 	c #99C0F8",
"= 	c #9AC1F8",
"- 	c #9BC1F8",
"; 	c #9CC1F8",
"> 	c #9CC2F8",
", 	c #9DC2F8",
"' 	c #9EC3F8",
") 	c #9FC3F8",
"! 	c #7FAEF4",
"~ 	c #4C8DF0",
"{ 	c #0156E5",
"] 	c #7CABF3",
"^ 	c #86DBFF",
"/ 	c #80D2FF",
"( 	c #77C8FF",
"_ 	c #6DBCFF",
": 	c #63B2FF",
"< 	c #5AA9FF",
"[ 	c #54A2FF",
"} 	c #4E9DFF",
"| 	c #4B99FF",
"1 	c #4896FF",
"2 	c #4693FD",
"3 	c #4591FB",
"4 	c #4491FA",
"5 	c #3F85ED",
"6 	c #397ADF",
"7 	c #78A8F0",
"8 	c #0053E1",
"9 	c #96BCF4",
"0 	c #82D7FF",
"a 	c #75BFFF",
"b 	c #6DB6FF",
"c 	c #64ACFF",
"d 	c #5BA2FF",
"e 	c #5299FF",
"f 	c #4C92FF",
"g 	c #458DFF",
"h 	c #4289FF",
"i 	c #3F87FE",
"j 	c #3E85FC",
"k 	c #3D83F9",
"l 	c #3D83F8",
"m 	c #3778E4",
"n 	c #326DD0",
"o 	c #8AB5EF",
"p 	c #0653DF",
"q 	c #99BCF4",
"r 	c #7CD0FF",
"s 	c #6FB9FF",
"t 	c #68B1FF",
"u 	c #60A8FF",
"v 	c #579EFF",
"w 	c #5097FF",
"x 	c #4A90FF",
"y 	c #448CFF",
"z 	c #4188FF",
"A 	c #3F86FD",
"B 	c #3C82F8",
"C 	c #326CD0",
"D 	c #8CB5EE",
"E 	c #0051E8",
"F 	c #97BCF7",
"G 	c #73C8FF",
"H 	c #67AFFF",
"I 	c #61A9FF",
"J 	c #5AA2FF",
"K 	c #539BFF",
"L 	c #4D94FF",
"M 	c #488FFF",
"N 	c #448BFF",
"O 	c #3E85FD",
"P 	c #3D84FA",
"Q 	c #3C83F9",
"R 	c #3778E3",
"S 	c #326BCD",
"T 	c #8AB4F1",
"U 	c #0151E4",
"V 	c #98BCF5",
"W 	c #69BEFF",
"X 	c #5EA6FF",
"Y 	c #59A1FF",
"Z 	c #549CFF",
"` 	c #4E96FF",
" .	c #4991FF",
"..	c #428AFF",
"+.	c #4087FF",
"@.	c #3777E3",
"#.	c #8AB4F0",
"$.	c #0153E7",
"%.	c #99BEF6",
"&.	c #60B4FF",
"*.	c #569DFF",
"=.	c #529AFF",
"-.	c #4E95FF",
";.	c #4A91FF",
">.	c #468DFF",
",.	c #438AFF",
"'.	c #3F86FE",
").	c #3E84FB",
"!.	c #3C83F8",
"~.	c #3777E2",
"{.	c #316BCC",
"].	c #8AB5F1",
"^.	c #9ABEF6",
"/.	c #58ACFF",
"(.	c #4C93FF",
"_.	c #4990FF",
":.	c #4087FE",
"<.	c #3D84FB",
"[.	c #316ACC",
"}.	c #0053E9",
"|.	c #9BBEF7",
"1.	c #51A5FF",
"2.	c #468EFF",
"3.	c #458CFF",
"4.	c #4086FE",
"5.	c #3F85FC",
"6.	c #3E85FB",
"7.	c #3C82F7",
"8.	c #3676E1",
"9.	c #8AB5F2",
"0.	c #0055ED",
"a.	c #9BBFF8",
"b.	c #4DA0FF",
"c.	c #3D83FA",
"d.	c #3B82F6",
"e.	c #316ACB",
"f.	c #8AB6F3",
"g.	c #0057F1",
"h.	c #9CC0FA",
"i.	c #499DFF",
"j.	c #4188FE",
"k.	c #4087FD",
"l.	c #FFFFFF",
"m.	c #3B81F6",
"n.	c #3676E0",
"o.	c #8AB6F4",
"p.	c #015AF4",
"q.	c #9DC1FB",
"r.	c #479BFC",
"s.	c #3F86FC",
"t.	c #3F85FB",
"u.	c #3B81F5",
"v.	c #3169CA",
"w.	c #8AB7F5",
"x.	c #035DF9",
"y.	c #9EC3FC",
"z.	c #4699FB",
"A.	c #3C80F3",
"B.	c #3C81F5",
"C.	c #3C80F5",
"D.	c #3C80F4",
"E.	c #3B7FF3",
"F.	c #3B7FF2",
"G.	c #3A7DEF",
"H.	c #3571D6",
"I.	c #2F65BF",
"J.	c #8BB8F7",
"K.	c #0465FF",
"L.	c #9FC6FE",
"M.	c #4698F9",
"N.	c #3B80F3",
"O.	c #3B7FF1",
"P.	c #3B7EF1",
"Q.	c #6996E1",
"R.	c #658ECE",
"S.	c #8BBBF9",
"T.	c #046EFF",
"U.	c #80B6FD",
"V.	c #C5DFFB",
"W.	c #4697F8",
"X.	c #4697F7",
"Y.	c #4596F7",
"Z.	c #4596F6",
"`.	c #4596F5",
" +	c #4595F5",
".+	c #4595F4",
"++	c #4495F4",
"@+	c #72AFF9",
"#+	c #0072F2",
"$+	c #4A9BF4",
"%+	c #77B4F5",
"&+	c #8ABFF5",
"*+	c #70B0F4",
"=+	c #4397F3",
"-+	c #006BFF",
";+	c #075AFF",
">+	c #0024CA",
". . . . . . . . . . . . . . . . . . . . ",
"+ + @ # $ % & * = = - ; > , ' ' ) ! ~ + ",
"{ { ] ^ / ( _ : < [ } | 1 2 3 4 5 6 7 { ",
"8 8 9 0 a b c d e f g h i j k l m n o 8 ",
"p p q r s t u v w x y z A j k B m C D p ",
"E E F G H I J K L M N z i O P Q R S T E ",
"U U V W X Y Z `  .g ..+.A j Q Q @.S #.U ",
"$.$.%.&.*.=.-.;.>.,.z '.j ).Q !.~.{.].$.",
"$.$.^./.-.(._.>.,.z :.j ).<.!.B ~.[.].$.",
"}.}.|.1.M 2.3.,.z 4.5.6.<.P 7.7.8.[.9.}.",
"0.0.a.b.N ,.z :.A j ).P c.k 7.d.8.e.f.0.",
"g.g.h.i.j.k.l.l.l.l.l.l.k k m.m.n.e.o.g.",
"p.p.q.r.s.t.l.l.l.l.l.l.l B m.u.n.v.w.p.",
"x.x.y.z.A.B.B.C.D.D.D.E.E.F.G.G.H.I.J.x.",
"K.K.L.M.B.C.D.D.D.N.E.E.F.F.O.P.Q.R.S.K.",
"T.T.U.V.W.W.W.X.X.Y.Z.Z.Z.`. +.+.+++@+T.",
"#+#+$+%+&+&+&+&+&+&+&+&+&+&+&+&+&+*+=+#+",
"-+-+-+-+-+-+-+-+-+-+-+-+-+-+-+-+-+-+-+-+",
";+;+;+;+;+;+;+;+;+;+;+;+;+;+;+;+;+;+;+;+",
">+>+>+>+>+>+>+>+>+>+>+>+>+>+>+>+>+>+>+>+"};
