/* XPM */
static char * minD_xpm[] = {
"20 20 174 2",
"  	c None",
". 	c #0175FF",
"+ 	c #035CEC",
"@ 	c #57929D",
"# 	c #8EB66A",
"$ 	c #ABC94F",
"% 	c #ABC950",
"& 	c #ABC957",
"* 	c #0156E5",
"= 	c #8DB366",
"- 	c #86DBFE",
"; 	c #81D2FE",
"> 	c #78C8FE",
", 	c #6EBCFE",
"' 	c #64B2FE",
") 	c #5BA9FE",
"! 	c #54A2FE",
"~ 	c #4E9DFE",
"{ 	c #4B99FE",
"] 	c #4896FE",
"^ 	c #4693FC",
"/ 	c #4591FA",
"( 	c #4491F9",
"_ 	c #3F85EC",
": 	c #397ADE",
"< 	c #0053E1",
"[ 	c #AAC64B",
"} 	c #82D7FF",
"| 	c #75BFFF",
"1 	c #6DB6FF",
"2 	c #64ACFF",
"3 	c #5BA2FF",
"4 	c #5299FF",
"5 	c #4C92FF",
"6 	c #458DFF",
"7 	c #4289FF",
"8 	c #3F87FE",
"9 	c #3E85FC",
"0 	c #3D83F9",
"a 	c #3D83F8",
"b 	c #3778E4",
"c 	c #326DD0",
"d 	c #0653DF",
"e 	c #ACC64A",
"f 	c #7CD0FF",
"g 	c #6FB9FF",
"h 	c #68B1FF",
"i 	c #60A8FF",
"j 	c #579EFF",
"k 	c #5097FF",
"l 	c #4A90FF",
"m 	c #448CFF",
"n 	c #4188FF",
"o 	c #3F86FD",
"p 	c #3C82F8",
"q 	c #326CD0",
"r 	c #0051E8",
"s 	c #AAC54D",
"t 	c #73C8FF",
"u 	c #67AFFF",
"v 	c #61A9FF",
"w 	c #5AA2FF",
"x 	c #539BFF",
"y 	c #4D94FF",
"z 	c #488FFF",
"A 	c #448BFF",
"B 	c #3E85FD",
"C 	c #3D84FA",
"D 	c #3C83F9",
"E 	c #3778E3",
"F 	c #326BCD",
"G 	c #0151E4",
"H 	c #AAC54C",
"I 	c #69BEFF",
"J 	c #5EA6FF",
"K 	c #59A1FF",
"L 	c #549CFF",
"M 	c #4E96FF",
"N 	c #4991FF",
"O 	c #428AFF",
"P 	c #4087FF",
"Q 	c #3777E3",
"R 	c #0153E7",
"S 	c #AAC64D",
"T 	c #60B4FF",
"U 	c #569DFF",
"V 	c #529AFF",
"W 	c #4E95FF",
"X 	c #4A91FF",
"Y 	c #468DFF",
"Z 	c #438AFF",
"` 	c #3F86FE",
" .	c #3E84FB",
"..	c #3C83F8",
"+.	c #3777E2",
"@.	c #316BCC",
"#.	c #58ACFF",
"$.	c #4C93FF",
"%.	c #4990FF",
"&.	c #4087FE",
"*.	c #3D84FB",
"=.	c #316ACC",
"-.	c #0053E9",
";.	c #AAC64E",
">.	c #51A5FF",
",.	c #468EFF",
"'.	c #458CFF",
").	c #4086FE",
"!.	c #3F85FC",
"~.	c #3E85FB",
"{.	c #3C82F7",
"].	c #3676E1",
"^.	c #0055ED",
"/.	c #AAC64F",
"(.	c #4DA0FF",
"_.	c #3D83FA",
":.	c #3B82F6",
"<.	c #316ACB",
"[.	c #0057F1",
"}.	c #AAC752",
"|.	c #499DFF",
"1.	c #4188FE",
"2.	c #4087FD",
"3.	c #FEFE00",
"4.	c #3B81F6",
"5.	c #3676E0",
"6.	c #AAC750",
"7.	c #015AF4",
"8.	c #AAC853",
"9.	c #479BFC",
"0.	c #3F86FC",
"a.	c #3F85FB",
"b.	c #3B81F5",
"c.	c #3169CA",
"d.	c #AAC851",
"e.	c #035DF9",
"f.	c #ABC95B",
"g.	c #4699FB",
"h.	c #3C80F3",
"i.	c #3C81F5",
"j.	c #3C80F5",
"k.	c #3C80F4",
"l.	c #3B7FF3",
"m.	c #3B7FF2",
"n.	c #3A7DEF",
"o.	c #3572D5",
"p.	c #2F65BE",
"q.	c #ABC953",
"r.	c #0465FF",
"s.	c #ABCC5D",
"t.	c #4698F8",
"u.	c #3B80F3",
"v.	c #3B7FF1",
"w.	c #3B7EF1",
"x.	c #779E8C",
"y.	c #73967B",
"z.	c #ABCC55",
"A.	c #046EFF",
"B.	c #8FBE72",
"C.	c #E2EF1D",
"D.	c #4697F7",
"E.	c #4697F6",
"F.	c #4596F6",
"G.	c #4596F5",
"H.	c #4596F4",
"I.	c #4595F4",
"J.	c #4595F3",
"K.	c #0072F2",
"L.	c #55A1A1",
"M.	c #8DC06C",
"N.	c #AAD051",
"O.	c #006BFF",
"P.	c #075AFF",
"Q.	c #0024CA",
". . . . . . . . . . . . . . . . . . . . ",
"+ + @ # $ $ $ $ $ $ $ $ $ % % & & # @ + ",
"* * = - ; > , ' ) ! ~ { ] ^ / ( _ : = * ",
"< < [ } | 1 2 3 4 5 6 7 8 9 0 a b c [ < ",
"d d e f g h i j k l m n o 9 0 p b q e d ",
"r r s t u v w x y z A n 8 B C D E F s r ",
"G G H I J K L M N 6 O P o 9 D D Q F H G ",
"R R S T U V W X Y Z n ` 9  .D ..+.@.S R ",
"R R S #.W $.%.Y Z n &.9  .*...p +.=.S R ",
"-.-.;.>.z ,.'.Z n ).!.~.*.C {.{.].=.;.-.",
"^.^./.(.A Z n &.o 9  .C _.0 {.:.].<./.^.",
"[.[.}.|.1.2.3.3.3.3.3.3.0 0 4.4.5.<.6.[.",
"7.7.8.9.0.a.3.3.3.3.3.3.a p 4.b.5.c.d.7.",
"e.e.f.g.h.i.i.j.k.k.k.l.l.m.n.n.o.p.q.e.",
"r.r.s.t.i.j.k.k.k.u.l.l.m.m.v.w.x.y.z.r.",
"A.A.B.C.D.D.D.E.E.F.G.G.G.H.I.J.J.J.B.A.",
"K.K.L.M.N.N.N.N.N.N.N.N.N.N.N.N.N.M.L.K.",
"O.O.O.O.O.O.O.O.O.O.O.O.O.O.O.O.O.O.O.O.",
"P.P.P.P.P.P.P.P.P.P.P.P.P.P.P.P.P.P.P.P.",
"Q.Q.Q.Q.Q.Q.Q.Q.Q.Q.Q.Q.Q.Q.Q.Q.Q.Q.Q.Q."};
