/* XPM */
static char * title_xpm[] = {
"8 20 35 1",
" 	c None",
".	c #8BAED5",
"+	c #F1F1F1",
"@	c #6281C5",
"#	c #F0F0F0",
"$	c #EFEFEF",
"%	c #EEEEEE",
"&	c #ECECEC",
"*	c #6281BD",
"=	c #EAEAEA",
"-	c #5A7DBD",
";	c #E4E4E4",
">	c #5A79B4",
",	c #E2E2E2",
"'	c #5A75B4",
")	c #DEDEDE",
"!	c #5275AC",
"~	c #D6D6D6",
"{	c #4A71AC",
"]	c #D3D3D3",
"^	c #4A6DAC",
"/	c #BEBEBE",
"(	c #4A6DA4",
"_	c #B9B9B9",
":	c #41699C",
"<	c #BABABA",
"[	c #39659C",
"}	c #AFAFAF",
"|	c #39619C",
"1	c #A0A0A0",
"2	c #396194",
"3	c #9C9C9C",
"4	c #989898",
"5	c #313031",
"6	c #333333",
".....+++",
"@@@@@###",
"@@@@@$$$",
"@@@@@%%%",
"@@@@@&&&",
"@@@@@&&&",
"*****===",
"-----;;;",
">>>>>,,,",
"''''')))",
"!!!!!~~~",
"{{{{{]]]",
"^^^^^///",
"(((((___",
":::::<<<",
"[[[[[}}}",
"|||||111",
"22222333",
"22222444",
"55555666"};
