/* XPM */
static char * closeD_xpm[] = {
"20 17 10 1",
" 	c None",
".	c #DDE3EB",
"+	c #DBE1E9",
"@	c #616468",
"#	c #D5DBE3",
"$	c #D4DAE2",
"%	c #B1B6BC",
"&	c #CDD2D9",
"*	c #A8ADB3",
"=	c #B3B7BE",
"....................",
"....................",
"....................",
"....................",
"....................",
"......+@@++@@+......",
"......#@@@@@@$......",
"......#%@@@@%$......",
"......+&@@@@&+......",
"......+@@@@@@+......",
"......#@@**@@$......",
"......#=%&&%=$......",
"......+##++##+......",
"....................",
"....................",
"....................",
"...................."};
