/* XPM */
static char * close_pressed_xpm[] = {
"19 19 73 1",
" 	c #8494AE",
".	c #8595AF",
"+	c #8997AE",
"@	c #9FA7B4",
"#	c #C3CEE1",
"$	c #C1CDE1",
"%	c #B8C4DA",
"&	c #7E91B2",
"*	c #A6B6D3",
"=	c #95A5C3",
"-	c #657B9D",
";	c #AFBDD6",
">	c #BAC8DD",
",	c #A4B4CF",
"'	c #667C9D",
")	c #E08D8D",
"!	c #F49999",
"~	c #F79B9B",
"{	c #F99C9C",
"]	c #F49898",
"^	c #E09193",
"/	c #ACBCD6",
"(	c #747D9B",
"_	c #F69A9A",
":	c #C17E80",
"<	c #FB9D9D",
"[	c #F59A9A",
"}	c #F09696",
"|	c #677D9E",
"1	c #A7B7D3",
"2	c #EA9393",
"3	c #F19797",
"4	c #FFFFFF",
"5	c #677D9D",
"6	c #677C9D",
"7	c #E89292",
"8	c #EE9595",
"9	c #DF9092",
"0	c #737D9B",
"a	c #E69090",
"b	c #EC9494",
"c	c #EB9393",
"d	c #DD8E90",
"e	c #E28E8E",
"f	c #E79191",
"g	c #DA8C8E",
"h	c #DD8B8B",
"i	c #E99292",
"j	c #E18D8D",
"k	c #D4898B",
"l	c #727C9A",
"m	c #D68686",
"n	c #DA8989",
"o	c #DF8C8C",
"p	c #D98989",
"q	c #CF8587",
"r	c #717C9A",
"s	c #CE8282",
"t	c #D18383",
"u	c #D48585",
"v	c #D58686",
"w	c #D38585",
"x	c #C88183",
"y	c #8195B7",
"z	c #C97F7F",
"A	c #CB8080",
"B	c #CC8181",
"C	c #A3B3CF",
"D	c #788CAE",
"E	c #677B9B",
"F	c #6D7F9C",
"G	c #8E99A9",
"H	c #E3E2DD",
"                .+@",
"################$%&",
"***=-----------=;>,",
"**=')!~{{{{{~]^'=/*",
"**()]_::<<<::[}^|1*",
"**(23:44:<:44:}^|**",
"**(23:444:444:}^5**",
"**(23_:44444:[}^6**",
"**(7}!~:444:~]896**",
"**0ab3:44444:3cd'**",
"**0ef:444:444:fg'**",
"**0he:44:i:44:jk'**",
"**lmnho)))))ohpq'**",
"**rstuvmmmmmvwtx'**",
"**y'zABBBBBBBAz'y**",
"***y-----------y***",
"*****************CD",
"EEEEEEEEEEEEEEEEEFG",
"HHHHHHHHHHHHHHHHHHH"};
