/* XPM */
static char * close_unpressed_xpm[] = {
"19 19 68 1",
" 	c #8494AE",
".	c #C3CEE1",
"+	c #A6B6D3",
"@	c #95A5C3",
"#	c #7587A3",
"$	c #DAD9D5",
"%	c #F7F6F3",
"&	c #FAF9F6",
"*	c #FBFAF7",
"=	c #F9F8F5",
"-	c #F2F1EE",
";	c #F5F4F1",
">	c #F8F7F4",
",	c #EAE9E6",
"'	c #EFEEEA",
")	c #F2F1ED",
"!	c #93938D",
"~	c #F6F5F1",
"{	c #EEEDE9",
"]	c #E0E2E0",
"^	c #E8E7E2",
"/	c #ECEBE6",
"(	c #EFEEE9",
"_	c #F3F2ED",
":	c #EBEAE6",
"<	c #DFDFDC",
"[	c #E5E4DF",
"}	c #E9E8E4",
"|	c #E8E8E3",
"1	c #DCDCD9",
"2	c #E1E0DB",
"3	c #E6E5E0",
"4	c #EBEAE5",
"5	c #EAE9E4",
"6	c #D8D8D6",
"7	c #DEDDD8",
"8	c #E3E2DC",
"9	c #E6E5DF",
"0	c #E7E6E1",
"a	c #E5E4DE",
"b	c #E2E1DB",
"c	c #D5D5D3",
"d	c #D9D9D4",
"e	c #DDDCD7",
"f	c #E0DFDA",
"g	c #E2E1DC",
"h	c #D1D2CF",
"i	c #D5D4CF",
"j	c #D9D8D3",
"k	c #DBDAD6",
"l	c #D8D7D2",
"m	c #CECECB",
"n	c #CFCFCA",
"o	c #D2D1CD",
"p	c #D4D3CE",
"q	c #D6D5D0",
"r	c #D1D0CC",
"s	c #C8C8C6",
"t	c #B4B5B3",
"u	c #CAC9C5",
"v	c #CCCBC7",
"w	c #CDCCC7",
"x	c #CBCAC6",
"y	c #8195B7",
"z	c #C5C4C0",
"A	c #C6C5C0",
"B	c #677B9B",
"C	c #E3E2DD",
"                   ",
"...................",
"+++@###########@+++",
"++@#$%&*****=%$#@++",
"++#$-;>=====>;-$#++",
"++#,')!!~~~!!){]#++",
"++#^/(!!!_!!!(:<#++",
"++#[}/(!!!!!(/|1#++",
"++#23^4/!!!/5^[6#++",
"++#7890!!!!!0abc#++",
"++#def!!!g!!!feh#++",
"++#ijk!!eee!!$lm#++",
"++#nopiqqqqqiprs#++",
"++#tuvwwwwwwwxut#++",
"++y#tzzAAAAAzzt#y++",
"+++y###########y+++",
"+++++++++++++++++++",
"BBBBBBBBBBBBBBBBBBB",
"CCCCCCCCCCCCCCCCCCC"};
