/* XPM */
static char * max_pressed_xpm[] = {
"19 19 69 1",
" 	c #8494AE",
".	c #8595AF",
"+	c #8997AE",
"@	c #9FA7B4",
"#	c #C3CEE1",
"$	c #C1CDE1",
"%	c #B8C4DA",
"&	c #7E91B2",
"*	c #A6B6D3",
"=	c #95A5C3",
"-	c #657B9D",
";	c #AFBDD6",
">	c #BAC8DD",
",	c #A4B4CF",
"'	c #667C9D",
")	c #E08D8D",
"!	c #F49999",
"~	c #F79B9B",
"{	c #F99C9C",
"]	c #F49898",
"^	c #E09193",
"/	c #ACBCD6",
"(	c #747D9B",
"_	c #F69A9A",
":	c #F19797",
"<	c #F09696",
"[	c #677D9E",
"}	c #A7B7D3",
"|	c #EA9393",
"1	c #FFFFFF",
"2	c #677D9D",
"3	c #677C9D",
"4	c #E89292",
"5	c #EE9595",
"6	c #DF9092",
"7	c #737D9B",
"8	c #E69090",
"9	c #EC9494",
"0	c #EB9393",
"a	c #DD8E90",
"b	c #E28E8E",
"c	c #E79191",
"d	c #DA8C8E",
"e	c #DD8B8B",
"f	c #E18D8D",
"g	c #D4898B",
"h	c #727C9A",
"i	c #D68686",
"j	c #DA8989",
"k	c #DF8C8C",
"l	c #D98989",
"m	c #CF8587",
"n	c #717C9A",
"o	c #CE8282",
"p	c #D18383",
"q	c #D48585",
"r	c #D58686",
"s	c #D38585",
"t	c #C88183",
"u	c #8195B7",
"v	c #C97F7F",
"w	c #CB8080",
"x	c #CC8181",
"y	c #A3B3CF",
"z	c #788CAE",
"A	c #677B9B",
"B	c #6D7F9C",
"C	c #8E99A9",
"D	c #E3E2DD",
"                .+@",
"################$%&",
"***=-----------=;>,",
"**=')!~{{{{{~]^'=/*",
"**()]_::::::::<^[}*",
"**(|::::::::::<^[**",
"**(|::1111111:<^2**",
"**(|:_1111111:<^3**",
"**(4<!1:::::1:563**",
"**789:1:::::1:0a'**",
"**7bc:1:::::1:cd'**",
"**7ebb1111111bfg'**",
"**hijek)))))kelm'**",
"**nopqriiiiirspt'**",
"**u'vwxxxxxxxwv'u**",
"***u-----------u***",
"*****************yz",
"AAAAAAAAAAAAAAAAABC",
"DDDDDDDDDDDDDDDDDDD"};
