/* XPM */
static char * min_unpressed_xpm[] = {
"19 19 72 1",
" 	c #8494AE",
".	c #C3CEE1",
"+	c #A6B6D3",
"@	c #95A5C3",
"#	c #7587A3",
"$	c #DAD9D5",
"%	c #F7F6F3",
"&	c #FAF9F6",
"*	c #FBFAF7",
"=	c #F9F8F5",
"-	c #F2F1EE",
";	c #F5F4F1",
">	c #F8F7F4",
",	c #EAE9E6",
"'	c #EFEEEA",
")	c #F2F1ED",
"!	c #F5F4F0",
"~	c #F6F5F1",
"{	c #EEEDE9",
"]	c #E0E2E0",
"^	c #E8E7E2",
"/	c #ECEBE6",
"(	c #EFEEE9",
"_	c #F2F1EC",
":	c #F3F2ED",
"<	c #EBEAE6",
"[	c #DFDFDC",
"}	c #E5E4DF",
"|	c #E9E8E4",
"1	c #F0EFEA",
"2	c #E8E8E3",
"3	c #DCDCD9",
"4	c #E1E0DB",
"5	c #E6E5E0",
"6	c #EBEAE5",
"7	c #EAE9E4",
"8	c #D8D8D6",
"9	c #DEDDD8",
"0	c #E3E2DC",
"a	c #E6E5DF",
"b	c #E7E6E1",
"c	c #93938D",
"d	c #E5E4DE",
"e	c #E2E1DB",
"f	c #D5D5D3",
"g	c #D9D9D4",
"h	c #DDDCD7",
"i	c #E0DFDA",
"j	c #E2E1DC",
"k	c #D1D2CF",
"l	c #D5D4CF",
"m	c #D9D8D3",
"n	c #DBDAD6",
"o	c #DCDBD7",
"p	c #D8D7D2",
"q	c #CECECB",
"r	c #CFCFCA",
"s	c #D2D1CD",
"t	c #D4D3CE",
"u	c #D6D5D0",
"v	c #D1D0CC",
"w	c #C8C8C6",
"x	c #B4B5B3",
"y	c #CAC9C5",
"z	c #CCCBC7",
"A	c #CDCCC7",
"B	c #CBCAC6",
"C	c #8195B7",
"D	c #C5C4C0",
"E	c #C6C5C0",
"F	c #677B9B",
"G	c #E3E2DD",
"                   ",
"...................",
"+++@###########@+++",
"++@#$%&*****=%$#@++",
"++#$-;>=====>;-$#++",
"++#,')!~~~~~!){]#++",
"++#^/(_:::::_(<[#++",
"++#}|/(11111(/23#++",
"++#45^6/////7^}8#++",
"++#90abcccccbdef#++",
"++#ghijcccccjihk#++",
"++#lmnohhhhho$pq#++",
"++#rstluuuuultvw#++",
"++#xyzAAAAAAAByx#++",
"++C#xDDEEEEEDDx#C++",
"+++C###########C+++",
"+++++++++++++++++++",
"FFFFFFFFFFFFFFFFFFF",
"GGGGGGGGGGGGGGGGGGG"};
