/* XPM */
static char * title_xpm[] = {
"3 19 5 1",
" 	c #8494AE",
".	c #C3CEE1",
"+	c #A6B6D3",
"@	c #677B9B",
"#	c #E3E2DD",
"   ",
"...",
"+++",
"+++",
"+++",
"+++",
"+++",
"+++",
"+++",
"+++",
"+++",
"+++",
"+++",
"+++",
"+++",
"+++",
"+++",
"@@@",
"###"};
