/* XPM */
static char * close_pressed_xpm[] = {
"20 21 66 1",
" 	c #FAFAFA",
".	c #F7F7F8",
"+	c #F5F6F7",
"@	c #F4F4F6",
"#	c #DBDEEA",
"$	c #667BD7",
"%	c #F2F3F5",
"&	c #CFD4E5",
"*	c #F0F2F3",
"=	c #B5BECE",
"-	c #7889A9",
";	c #D2D7E0",
">	c #D3D9E1",
",	c #EEF0F2",
"'	c #7284A4",
")	c #455C89",
"!	c #516690",
"~	c #CDD4DD",
"{	c #D0D6DF",
"]	c #536891",
"^	c #6C7EA1",
"/	c #ECEEF1",
"(	c #CAD0DC",
"_	c #CCD2DD",
":	c #CED4DE",
"<	c #526891",
"[	c #4E648E",
"}	c #C8CFDB",
"|	c #EAECF0",
"1	c #526791",
"2	c #C6CDDA",
"3	c #E8EBEE",
"4	c #C7CED9",
"5	c #506690",
"6	c #C5CCD9",
"7	c #E6E9ED",
"8	c #C9D0DB",
"9	c #506590",
"0	c #E4E7EB",
"a	c #C8CEDA",
"b	c #526790",
"c	c #4D648E",
"d	c #C5CDD8",
"e	c #E1E5EA",
"f	c #C5CDD9",
"g	c #4D638E",
"h	c #BEC6D4",
"i	c #C1C9D6",
"j	c #C3CBD7",
"k	c #DFE2E8",
"l	c #6E80A2",
"m	c #BCC3D2",
"n	c #BFC7D5",
"o	c #50658F",
"p	c #6A7DA0",
"q	c #DCE0E7",
"r	c #A6B1C5",
"s	c #BAC2D1",
"t	c #BDC5D4",
"u	c #A1ACC2",
"v	c #DADEE5",
"w	c #C2C9DC",
"x	c #D7DCE3",
"y	c #D5DAE2",
"z	c #D2D8E0",
"A	c #D0D6DE",
"                    ",
"....................",
"++++++++++++++++++++",
"@@@#$$$$$$$$$$$$#@@@",
"%%%$&%%%%%%%%%%&$%%%",
"***$*=-;****>-=*$***",
",,,$,')!~,,{])^,$,,,",
"///$/(!)!_:<)[}/$///",
"|||$||}!)!1)[2||$|||",
"333$33345))[6333$333",
"777$77781))94777$777",
"000$00ab)c9)9d00$000",
"eee$efb)ghi9)9je$eee",
"kkk$kl)gmkkno)pk$kkk",
"qqq$qr^sqqqqtluq$qqq",
"vvv$wvvvvvvvvvvw$vvv",
"xxxw$$$$$$$$$$$$wxxx",
"yyyyyyyyyyyyyyyyyyyy",
"zzzzzzzzzzzzzzzzzzzz",
"AAAAAAAAAAAAAAAAAAAA",
"~~~~~~~~~~~~~~~~~~~~"};
