/* XPM */
static char * max_unpressed_xpm[] = {
"20 21 31 1",
" 	c #FAFAFA",
".	c #F7F7F8",
"+	c #F5F6F7",
"@	c #F4F4F6",
"#	c #DBDEEA",
"$	c #A4ADD3",
"%	c #8F9ACA",
"&	c #F2F3F5",
"*	c #98A2CD",
"=	c #CFD4E5",
"-	c #F0F2F3",
";	c #EEF0F2",
">	c #6D7EA1",
",	c #455C89",
"'	c #ECEEF1",
")	c #EAECF0",
"!	c #E8EBEE",
"~	c #E6E9ED",
"{	c #E4E7EB",
"]	c #E1E5EA",
"^	c #DFE2E8",
"/	c #DCE0E7",
"(	c #DADEE5",
"_	c #96A1CC",
":	c #C2C9DC",
"<	c #D7DCE3",
"[	c #95A0CB",
"}	c #D5DAE2",
"|	c #D2D8E0",
"1	c #D0D6DE",
"2	c #CDD4DD",
"                    ",
"....................",
"++++++++++++++++++++",
"@@@#$%%%%%%%%%%$#@@@",
"&&&*=&&&&&&&&&&=*&&&",
"---%------------%---",
";;;%;;>,,,,,,>;;%;;;",
"'''%'',,,,,,,,''%'''",
")))%)),)))))),))%)))",
"!!!%!!,!!!!!!,!!%!!!",
"~~~%~~,~~~~~~,~~%~~~",
"{{{%{{,{{{{{{,{{%{{{",
"]]]%]],]]]]]],]]%]]]",
"^^^%^^>,,,,,,>^^%^^^",
"///%////////////%///",
"(((_:((((((((((:_(((",
"<<<:[%%%%%%%%%%[:<<<",
"}}}}}}}}}}}}}}}}}}}}",
"||||||||||||||||||||",
"11111111111111111111",
"22222222222222222222"};
