/* XPM */
static char * close_xpm[] = {
"20 20 12 1",
" 	c None",
".	c #6C6C6C",
"+	c #6E6E6E",
"@	c #FFFFFF",
"#	c #E6E6E6",
"$	c #E5E5E5",
"%	c #D3D3D3",
"&	c #000000",
"*	c #E2E2E2",
"=	c #2D2D2D",
"-	c #2C2C2C",
";	c #696969",
"                    ",
"                    ",
"  .++++++++++++++.  ",
"  +@@@@@@@@@@@@@@+  ",
"  +@##$$######$#%+  ",
"  +@#####$#####$%+  ",
"  +@$#&&#*$#&&##%+  ",
"  +@$#&&&##&&&##%+  ",
"  +@###&&&&&&###%+  ",
"  +@#$##=&&&####%+  ",
"  +@##$#-&&&####%+  ",
"  +@###&&==&&###%+  ",
"  +@##&&&##&&&##%+  ",
"  +@##&&####&&##%+  ",
"  +@############%+  ",
"  +@############%+  ",
"  +%%%%%%%%%%%%%%+  ",
"  ;++++++++++++++;  ",
"                    ",
"                    "};
