/* XPM */
static char * max_xpm[] = {
"20 20 13 1",
" 	c None",
".	c #6E6E6E",
"+	c #FFFFFF",
"@	c #6D6D6D",
"#	c #E6E6E6",
"$	c #D3D3D3",
"%	c #696969",
"&	c #000000",
"*	c #0A0A0A",
"=	c #E5E5E5",
"-	c #E4E4E4",
";	c #E3E3E3",
">	c #6A6A6A",
"                    ",
"                    ",
"  ................  ",
"  .++++++++++++++@  ",
"  .+############$%  ",
"  .+############$%  ",
"  .+##&&&&&&&*##$%  ",
"  .+=#&&&&&&&&##$%  ",
"  .+=#&&&&&&&&##$%  ",
"  .+=#&##---;&##$%  ",
"  .+=#&#-###=&##$%  ",
"  .+=#&#-###=&##$%  ",
"  .+=#&#-====&##$%  ",
"  .+=#&&&&&&&&##$%  ",
"  .+############$%  ",
"  .+############$%  ",
"  >$$$$$$$$$$$$$$%  ",
"  .%%%%%%%%%%%%%%.  ",
"                    ",
"                    "};
