/* XPM */
static char * max_xpm[] = {
"20 20 105 2",
"  	c None",
". 	c #000000",
"+ 	c #8B8B8B",
"@ 	c #8E8E8E",
"# 	c #929291",
"$ 	c #959595",
"% 	c #999999",
"& 	c #9D9C9C",
"* 	c #9F9F9F",
"= 	c #A3A3A3",
"- 	c #A7A6A7",
"; 	c #AAAAAA",
"> 	c #ADADAD",
", 	c #B1B0B0",
"' 	c #B4B4B4",
") 	c #B7B8B8",
"! 	c #8E8F8E",
"~ 	c #E4E4E4",
"{ 	c #DFE0E0",
"] 	c #DCDCDC",
"^ 	c #D7D7D8",
"/ 	c #D4D3D4",
"( 	c #D0CFCF",
"_ 	c #CCCCCC",
": 	c #C8C8C7",
"< 	c #C4C4C4",
"[ 	c #C0C0C0",
"} 	c #BCBCBB",
"| 	c #B8B7B7",
"1 	c #929292",
"2 	c #E0E0E0",
"3 	c #D4D4D4",
"4 	c #D0CFD0",
"5 	c #C8C7C8",
"6 	c #C3C4C4",
"7 	c #BFC0C0",
"8 	c #BBBCBB",
"9 	c #B8B8B7",
"0 	c #B3B3B3",
"a 	c #959596",
"b 	c #9C9C9C",
"c 	c #A0A09F",
"d 	c #D0D0D0",
"e 	c #C4C4C3",
"f 	c #BFC0BF",
"g 	c #BBBCBC",
"h 	c #B7B7B7",
"i 	c #B0B0AF",
"j 	c #ABABAC",
"k 	c #A7A7A7",
"l 	c #A3A4A3",
"m 	c #CBCCCC",
"n 	c #C8C8C8",
"o 	c #BBBBBC",
"p 	c #AFB0AF",
"q 	c #A7A7A8",
"r 	c #A4A4A3",
"s 	c #A09F9F",
"t 	c #A6A6A7",
"u 	c #C7C7C8",
"v 	c #C3C3C3",
"w 	c #ACACAB",
"x 	c #A8A7A8",
"y 	c #A09FA0",
"z 	c #9B9B9B",
"A 	c #D2D3D3",
"B 	c #AAAAA9",
"C 	c #C4C3C3",
"D 	c #C0C0BF",
"E 	c #B8B7B8",
"F 	c #AFB0B0",
"G 	c #ABABAB",
"H 	c #9B9B9C",
"I 	c #979797",
"J 	c #D6D6D6",
"K 	c #BFBFBF",
"L 	c #BCBCBC",
"M 	c #AFAFAF",
"N 	c #A7A8A7",
"O 	c #9C9B9B",
"P 	c #989797",
"Q 	c #939393",
"R 	c #DADAD9",
"S 	c #B1B1B1",
"T 	c #B3B4B3",
"U 	c #B0AFAF",
"V 	c #9F9FA0",
"W 	c #8F8F8F",
"X 	c #DDDDDE",
"Y 	c #B7B7B8",
"Z 	c #B3B4B4",
"` 	c #A3A3A4",
" .	c #8F8F90",
"..	c #E1E1E1",
"+.	c #BBBBBB",
"@.	c #BEBEBE",
"#.	c #C2C2C2",
"$.	c #C5C5C5",
"%.	c #C9C9C8",
"&.	c #CFD0D0",
"*.	c #D3D3D3",
"=.	c #D7D6D7",
"-.	c #D9DADA",
";.	c #DDDDDD",
">.	c #E0E0E1",
"                                        ",
"                                        ",
"    . . . . . . . . . . . . . . . .     ",
"    . + @ # $ % & * = - ; > , ' ) .     ",
"    . ! ~ { ] ^ / ( _ : < [ } | ~ .     ",
"    . 1 2 ] ^ 3 4 _ 5 6 7 8 9 0 ~ .     ",
"    . a ~ ~ ~ ~ ~ ~ ~ ~ ~ ~ ~ ~ ~ .     ",
"    . . . . . . . . . . . . . . . .     ",
"    . b + + + + + + + + + + + + + .     ",
"    . c d _ 5 e f g h ' i j k l _ .     ",
"    . = m n < [ o ) ' p j q r s 4 .     ",
"    . t u v f 8 h 0 i w x = y z A .     ",
"    . B C D o E ' F G k = s H I J .     ",
"    . > K L h ' M G N = * O P Q R .     ",
"    . S } 9 T U G q r V O I Q W X .     ",
"    . ' Y Z M j k ` s H I Q  .+ ...     ",
"    . | +.@.#.$.%._ &.*.=.-.;.>.~ .     ",
"    . . . . . . . . . . . . . . . .     ",
"                                        ",
"                                        "};
