/* XPM */
static char * min_xpm[] = {
"20 20 112 2",
"  	c None",
". 	c #000000",
"+ 	c #8B8B8B",
"@ 	c #8E8E8E",
"# 	c #929291",
"$ 	c #959595",
"% 	c #999999",
"& 	c #9D9C9C",
"* 	c #9F9F9F",
"= 	c #A3A3A3",
"- 	c #A7A6A7",
"; 	c #AAAAAA",
"> 	c #ADADAD",
", 	c #B1B0B0",
"' 	c #B4B4B4",
") 	c #B7B8B8",
"! 	c #8E8F8E",
"~ 	c #E4E4E4",
"{ 	c #DFE0E0",
"] 	c #DCDCDC",
"^ 	c #D7D7D8",
"/ 	c #D4D3D4",
"( 	c #D0CFCF",
"_ 	c #CCCCCC",
": 	c #C8C8C7",
"< 	c #C4C4C4",
"[ 	c #C0C0C0",
"} 	c #BCBCBB",
"| 	c #B8B7B7",
"1 	c #BBBBBB",
"2 	c #929292",
"3 	c #E0E0E0",
"4 	c #D4D4D4",
"5 	c #D0CFD0",
"6 	c #C8C7C8",
"7 	c #C3C4C4",
"8 	c #BFC0C0",
"9 	c #BBBCBB",
"0 	c #B8B8B7",
"a 	c #B3B3B3",
"b 	c #BFBFBE",
"c 	c #959596",
"d 	c #D8D8D8",
"e 	c #CFD0D0",
"f 	c #CCCBCC",
"g 	c #C8C7C7",
"h 	c #C4C4C3",
"i 	c #C0C0BF",
"j 	c #BCBBBC",
"k 	c #AFAFAF",
"l 	c #C2C1C2",
"m 	c #D8D8D7",
"n 	c #D0D0D0",
"o 	c #C3C3C4",
"p 	c #BCBCBC",
"q 	c #B8B7B8",
"r 	c #B3B3B4",
"s 	c #AFB0AF",
"t 	c #ACABAB",
"u 	c #C5C5C5",
"v 	c #9C9C9C",
"w 	c #CBCCCC",
"x 	c #C7C8C7",
"y 	c #BFBFC0",
"z 	c #B7B7B7",
"A 	c #B3B4B3",
"B 	c #AFB0B0",
"C 	c #ABABAC",
"D 	c #A8A8A7",
"E 	c #C9C8C9",
"F 	c #A0A09F",
"G 	c #B0B0AF",
"H 	c #A7A7A7",
"I 	c #A3A4A3",
"J 	c #A7A7A8",
"K 	c #A4A4A3",
"L 	c #A09F9F",
"M 	c #ACACAB",
"N 	c #A8A7A8",
"O 	c #A09FA0",
"P 	c #9B9B9B",
"Q 	c #D2D3D3",
"R 	c #AAAAA9",
"S 	c #C4C3C3",
"T 	c #B6B6B7",
"U 	c #B4B3B4",
"V 	c #9B9B9C",
"W 	c #979797",
"X 	c #D6D6D6",
"Y 	c #BFBFBF",
"Z 	c #B8B8B8",
"` 	c #B6B6B6",
" .	c #9C9B9B",
"..	c #989797",
"+.	c #939393",
"@.	c #DADAD9",
"#.	c #B1B1B1",
"$.	c #9F9FA0",
"%.	c #8F8F8F",
"&.	c #DDDDDE",
"*.	c #B7B7B8",
"=.	c #B3B4B4",
"-.	c #8F8F90",
";.	c #E1E1E1",
">.	c #BEBEBE",
",.	c #C2C2C2",
"'.	c #C9C9C8",
").	c #D3D3D3",
"!.	c #D7D6D7",
"~.	c #D9DADA",
"{.	c #DDDDDD",
"].	c #E0E0E1",
"                                        ",
"                                        ",
"    . . . . . . . . . . . . . . . .     ",
"    . + @ # $ % & * = - ; > , ' ) .     ",
"    . ! ~ { ] ^ / ( _ : < [ } | 1 .     ",
"    . 2 3 ] ^ 4 5 _ 6 7 8 9 0 a b .     ",
"    . c ] d 4 e f g h i j ) a k l .     ",
"    . % m 4 n f g o [ p q r s t u .     ",
"    . v / e w x < y } z A B C D E .     ",
"    . F ~ ~ ~ ~ ~ ~ z ' G C H I _ .     ",
"    . . . . . . . . + s C J K L 5 .     ",
"    . + + + + + ~ . + M N = O P Q .     ",
"    . R S } T U ~ . + H = L V W X .     ",
"    . > Y Z ` a ~ . + = *  ...+.@..     ",
"    . #.} 0 s t ~ . + $. .W +.%.&..     ",
"    . ' *.=.k C ~ . + V W +.-.+ ;..     ",
"    . | 1 >.,.u '.. e ).!.~.{.].~ .     ",
"    . . . . . . . . . . . . . . . .     ",
"                                        ",
"                                        "};
