/* XPM */
static char * links_unclicked_xpm[] = {
"19 19 3 1",
" 	c None",
".	c #1D6FAE",
"+	c #E1E1E1",
"...................",
".+++++++++++++++++.",
".+...............+.",
".+...............+.",
".+...............+.",
".+...............+.",
".+...............+.",
".+...............+.",
".+...............+.",
".+...............+.",
".+...............+.",
".+...............+.",
".+...............+.",
".+...............+.",
".+...............+.",
".+++++++++++++++++.",
".+++++++++++++++++.",
".+++++++++++++++++.",
"..................."};
