/* XPM */
static char * links_clicked_xpm[] = {
"19 19 4 1",
" 	c None",
".	c #1D6FAE",
"+	c #E1E1E1",
"@	c #FF5900",
"...................",
".+++++++++++++++++.",
".+...............+.",
".+...............+.",
".+...............+.",
".+...............+.",
".+...............+.",
".+...............+.",
".+...............+.",
".+...............+.",
".+...............+.",
".+...............+.",
".+@@@@@@@@@@@@@@@+.",
".+@@@@@@@@@@@@@@@+.",
".+@@@@@@@@@@@@@@@+.",
".+++++++++++++++++.",
".+++++++++++++++++.",
".+++++++++++++++++.",
"..................."};
