/* XPM */
static char * mitte_unclicked_xpm[] = {
"19 19 2 1",
" 	c #1D6FAE",
".	c #E1E1E1",
"                   ",
" ................. ",
" ................. ",
" ................. ",
" .               . ",
" .               . ",
" .               . ",
" .............   . ",
" .............   . ",
" .............   . ",
" .           .   . ",
" .           .   . ",
" .           .   . ",
" .           .   . ",
" .           .   . ",
" .           .   . ",
" .           .   . ",
" ................. ",
"                   "};
