/* XPM */
static char * max_xpm[] = {
"20 20 5 1",
" 	c None",
".	c #000000",
"+	c #494949",
"@	c #C3C3C3",
"#	c #8B8B8B",
"                    ",
"                    ",
"                    ",
"                    ",
"                    ",
"      ........      ",
"     .+@@@@@@+.     ",
"     .@#######.     ",
"     .@#+..+@#.     ",
"     .@#.  .@#.     ",
"     .@#.  .@#.     ",
"     .@#+..+@#.     ",
"     .@#@@@@##.     ",
"     .+######+.     ",
"      ........      ",
"                    ",
"                    ",
"                    ",
"                    ",
"                    "};
