/* XPM */
static char * minD_xpm[] = {
"20 20 4 1",
" 	c None",
".	c #000000",
"+	c #E4E4E4",
"@	c #8B8B8B",
"                    ",
"                    ",
"                    ",
"                    ",
"                    ",
"                    ",
"                    ",
"                    ",
"        ....        ",
"        .+@.        ",
"        .@@.        ",
"        ....        ",
"                    ",
"                    ",
"                    ",
"                    ",
"                    ",
"                    ",
"                    ",
"                    "};
