/* XPM */
static char * maxD_xpm[] = {
"20 20 162 2",
"  	c None",
". 	c #0175FF",
"+ 	c #035CEC",
"@ 	c #57929D",
"# 	c #8EB66A",
"$ 	c #ABC94F",
"% 	c #ABC950",
"& 	c #ABC957",
"* 	c #0156E5",
"= 	c #8DB366",
"- 	c #86DBFE",
"; 	c #81D2FE",
"> 	c #78C8FE",
", 	c #6EBCFE",
"' 	c #64B2FE",
") 	c #5BA9FE",
"! 	c #54A2FE",
"~ 	c #4E9DFE",
"{ 	c #4B99FE",
"] 	c #4896FE",
"^ 	c #4693FC",
"/ 	c #4591FA",
"( 	c #4491F9",
"_ 	c #3F85EC",
": 	c #397ADE",
"< 	c #0053E1",
"[ 	c #AAC64B",
"} 	c #82D7FF",
"| 	c #75BFFF",
"1 	c #6DB6FF",
"2 	c #64ACFF",
"3 	c #5BA2FF",
"4 	c #5299FF",
"5 	c #4C92FF",
"6 	c #458DFF",
"7 	c #4289FF",
"8 	c #3F87FE",
"9 	c #3E85FC",
"0 	c #3D83F9",
"a 	c #3D83F8",
"b 	c #3778E4",
"c 	c #326DD0",
"d 	c #0653DF",
"e 	c #ACC64A",
"f 	c #7CD0FF",
"g 	c #6FB9FF",
"h 	c #68B1FF",
"i 	c #FEFE00",
"j 	c #3C82F8",
"k 	c #326CD0",
"l 	c #0051E8",
"m 	c #AAC54D",
"n 	c #73C8FF",
"o 	c #67AFFF",
"p 	c #61A9FF",
"q 	c #3C83F9",
"r 	c #3778E3",
"s 	c #326BCD",
"t 	c #0151E4",
"u 	c #AAC54C",
"v 	c #69BEFF",
"w 	c #5EA6FF",
"x 	c #59A1FF",
"y 	c #4E96FF",
"z 	c #4991FF",
"A 	c #428AFF",
"B 	c #4087FF",
"C 	c #3F86FD",
"D 	c #3777E3",
"E 	c #0153E7",
"F 	c #AAC64D",
"G 	c #60B4FF",
"H 	c #569DFF",
"I 	c #529AFF",
"J 	c #4A91FF",
"K 	c #468DFF",
"L 	c #438AFF",
"M 	c #4188FF",
"N 	c #3F86FE",
"O 	c #3E84FB",
"P 	c #3C83F8",
"Q 	c #3777E2",
"R 	c #316BCC",
"S 	c #58ACFF",
"T 	c #4E95FF",
"U 	c #4C93FF",
"V 	c #4087FE",
"W 	c #3D84FB",
"X 	c #316ACC",
"Y 	c #0053E9",
"Z 	c #AAC64E",
"` 	c #51A5FF",
" .	c #488FFF",
"..	c #468EFF",
"+.	c #4086FE",
"@.	c #3F85FC",
"#.	c #3E85FB",
"$.	c #3D84FA",
"%.	c #3C82F7",
"&.	c #3676E1",
"*.	c #0055ED",
"=.	c #AAC64F",
"-.	c #4DA0FF",
";.	c #448BFF",
">.	c #3D83FA",
",.	c #3B82F6",
"'.	c #316ACB",
").	c #0057F1",
"!.	c #AAC752",
"~.	c #499DFF",
"{.	c #4188FE",
"].	c #4087FD",
"^.	c #3B81F6",
"/.	c #3676E0",
"(.	c #AAC750",
"_.	c #015AF4",
":.	c #AAC853",
"<.	c #479BFC",
"[.	c #3F86FC",
"}.	c #3F85FB",
"|.	c #3B81F5",
"1.	c #3169CA",
"2.	c #AAC851",
"3.	c #035DF9",
"4.	c #ABC95B",
"5.	c #4699FB",
"6.	c #3C80F3",
"7.	c #3C81F5",
"8.	c #3C80F5",
"9.	c #3C80F4",
"0.	c #3B7FF3",
"a.	c #3B7FF2",
"b.	c #3A7DEF",
"c.	c #3572D5",
"d.	c #2F65BE",
"e.	c #ABC953",
"f.	c #0465FF",
"g.	c #ABCC5D",
"h.	c #4698F8",
"i.	c #3B80F3",
"j.	c #3B7FF1",
"k.	c #3B7EF1",
"l.	c #779E8C",
"m.	c #73967B",
"n.	c #ABCC55",
"o.	c #046EFF",
"p.	c #8FBE72",
"q.	c #E2EF1D",
"r.	c #4697F7",
"s.	c #4697F6",
"t.	c #4596F6",
"u.	c #4596F5",
"v.	c #4596F4",
"w.	c #4595F4",
"x.	c #4595F3",
"y.	c #0072F2",
"z.	c #55A1A1",
"A.	c #8DC06C",
"B.	c #AAD051",
"C.	c #006BFF",
"D.	c #075AFF",
"E.	c #0024CA",
". . . . . . . . . . . . . . . . . . . . ",
"+ + @ # $ $ $ $ $ $ $ $ $ % % & & # @ + ",
"* * = - ; > , ' ) ! ~ { ] ^ / ( _ : = * ",
"< < [ } | 1 2 3 4 5 6 7 8 9 0 a b c [ < ",
"d d e f g h i i i i i i i i i j b k e d ",
"l l m n o p i i i i i i i i i q r s m l ",
"t t u v w x i y z 6 A B C 9 i q D s u t ",
"E E F G H I i J K L M N 9 O i P Q R F E ",
"E E F S T U i K L M V 9 O W i j Q X F E ",
"Y Y Z `  ...i L M +.@.#.W $.i %.&.X Z Y ",
"*.*.=.-.;.L i V C 9 O $.>.0 i ,.&.'.=.*.",
").).!.~.{.].i @.9 O $.>.0 0 i ^./.'.(.).",
"_._.:.<.[.}.i i i i i i i i i |./.1.2._.",
"3.3.4.5.6.7.7.8.9.9.9.0.0.a.b.b.c.d.e.3.",
"f.f.g.h.7.8.9.9.9.i.0.0.a.a.j.k.l.m.n.f.",
"o.o.p.q.r.r.r.s.s.t.u.u.u.v.w.x.x.x.p.o.",
"y.y.z.A.B.B.B.B.B.B.B.B.B.B.B.B.B.A.z.y.",
"C.C.C.C.C.C.C.C.C.C.C.C.C.C.C.C.C.C.C.C.",
"D.D.D.D.D.D.D.D.D.D.D.D.D.D.D.D.D.D.D.D.",
"E.E.E.E.E.E.E.E.E.E.E.E.E.E.E.E.E.E.E.E."};
