/* XPM */
static char *close[] = {
/* width height num_colors chars_per_pixel */
"    20    20        2            1",
/* colors */
". c #8199b1",
"# c #e0e6ec",
/* pixels */
"....................",
"....................",
"....................",
"....................",
"........###.........",
"........###.........",
"........###.........",
"........###.........",
"........###.........",
"........###.........",
"........###.........",
"........###.........",
"........###.........",
"........###.........",
"........###.........",
"........###.........",
"....................",
"....................",
"....................",
"...................."
};
