/* XPM */
static char * close_xpm[] = {
"20 20 3 1",
" 	c None",
".	c #000000",
"+	c #E0E6EC",
"....................",
"....................",
"....................",
"....................",
"........+++.........",
"........+++.........",
"........+++.........",
"........+++.........",
"........+++.........",
"........+++.........",
"........+++.........",
"........+++.........",
"........+++.........",
"........+++.........",
"........+++.........",
"........+++.........",
"....................",
"....................",
"....................",
"...................."};
