/* XPM */
static char * closeD_xpm[] = {
"20 20 93 2",
"  	c None",
". 	c #000000",
"+ 	c #8E8E8E",
"@ 	c #929291",
"# 	c #959595",
"$ 	c #999999",
"% 	c #9D9C9C",
"& 	c #9F9F9F",
"* 	c #A3A3A3",
"= 	c #A7A6A7",
"- 	c #AAAAAA",
"; 	c #ADADAD",
"> 	c #B1B0B0",
", 	c #B4B4B4",
"' 	c #C3C3C3",
") 	c #DCDCDC",
"! 	c #D7D7D8",
"~ 	c #D4D3D4",
"{ 	c #D0CFCF",
"] 	c #CCCCCC",
"^ 	c #C8C8C7",
"/ 	c #C4C4C4",
"( 	c #C0C0C0",
"_ 	c #E4E4E4",
": 	c #8E8F8E",
"< 	c #D4D4D4",
"[ 	c #D0CFD0",
"} 	c #C8C7C8",
"| 	c #C3C4C4",
"1 	c #BFC0C0",
"2 	c #8B8B8B",
"3 	c #929292",
"4 	c #CCCBCC",
"5 	c #C8C7C7",
"6 	c #C4C4C3",
"7 	c #C0C0BF",
"8 	c #BFBFBE",
"9 	c #959596",
"0 	c #C3C3C4",
"a 	c #AFAFAF",
"b 	c #C2C1C2",
"c 	c #D8D8D7",
"d 	c #AFB0AF",
"e 	c #ACABAB",
"f 	c #C5C5C5",
"g 	c #9C9C9C",
"h 	c #CFD0D0",
"i 	c #CBCCCC",
"j 	c #AFB0B0",
"k 	c #ABABAC",
"l 	c #A8A8A7",
"m 	c #C9C8C9",
"n 	c #A0A09F",
"o 	c #D0D0D0",
"p 	c #B0B0AF",
"q 	c #A7A7A7",
"r 	c #A3A4A3",
"s 	c #C8C8C8",
"t 	c #A7A7A8",
"u 	c #A4A4A3",
"v 	c #A09F9F",
"w 	c #A6A6A7",
"x 	c #C7C7C8",
"y 	c #BFC0BF",
"z 	c #A09FA0",
"A 	c #9B9B9B",
"B 	c #D2D3D3",
"C 	c #AAAAA9",
"D 	c #C4C3C3",
"E 	c #9B9B9C",
"F 	c #979797",
"G 	c #D6D6D6",
"H 	c #BFBFBF",
"I 	c #ABABAB",
"J 	c #939393",
"K 	c #DADAD9",
"L 	c #B1B1B1",
"M 	c #A7A8A7",
"N 	c #DDDDDE",
"O 	c #B0AFAF",
"P 	c #9F9FA0",
"Q 	c #9C9B9B",
"R 	c #E1E1E1",
"S 	c #A3A3A4",
"T 	c #8F8F90",
"U 	c #BEBEBE",
"V 	c #C2C2C2",
"W 	c #C9C9C8",
"X 	c #D3D3D3",
"Y 	c #D7D6D7",
"Z 	c #D9DADA",
"` 	c #DDDDDD",
" .	c #E0E0E1",
"                                        ",
"    . . . . . . . . . . . . . . .       ",
"      . + @ # $ % & * = - ; > , .       ",
"  . .   . ' ) ! ~ { ] ^ / ( _ .   . .   ",
"  . : .   . ' < [ ] } | 1 _ .   . 2 .   ",
"  . 3 ' .   . ' 4 5 6 7 _ .   . 2 8 .   ",
"  . 9 ) ' .   . ' 0 ( _ .   . 2 a b .   ",
"  . $ c < ' .   . _ _ .   . 2 d e f .   ",
"  . g ~ h i ' .   . .   . 2 j k l m .   ",
"  . n o ] } 6 _ .     . 2 p k q r ] .   ",
"  . * i s / ( _ .     . 2 k t u v [ .   ",
"  . w x ' y _ .   . .   . 2 * z A B .   ",
"  . C D 7 _ .   . 2 2 .   . 2 E F G .   ",
"  . ; H _ .   . 2 j I q .   . 2 J K .   ",
"  . L _ .   . 2 a I M * & .   . 2 N .   ",
"  . , .   . 2 O I t u P Q F .   . R .   ",
"  . .   . 2 a k q S v E F J T .   . .   ",
"  .   . 2 U V f W ] h X Y Z `  ..       ",
"      . . . . . . . . . . . . . . .     ",
"                                        "};
