/* XPM */
static char * max_pressed_xpm[] = {
"17 22 41 1",
" 	c None",
".	c #D6DCEE",
"+	c #97A9C7",
"@	c #95A7C5",
"#	c #92A4C3",
"$	c #8FA2C1",
"%	c #7E93B5",
"&	c #4C5E7C",
"*	c #8C9FBF",
"=	c #ACA79B",
"-	c #D6D2C7",
";	c #899DBD",
">	c #D9D6CC",
",	c #879ABB",
"'	c #DDDAD1",
")	c #3D5F89",
"!	c #8498B9",
"~	c #E1DED6",
"{	c #FFFFFF",
"]	c #5F7CA1",
"^	c #8398B5",
"/	c #8195B7",
"(	c #E9E6E0",
"_	c #ECE9E5",
":	c #7C91B3",
"<	c #EFECE9",
"[	c #798FB1",
"}	c #F6F3F2",
"|	c #768CAE",
"1	c #F9F7F6",
"2	c #7389AC",
"3	c #FCFAFA",
"4	c #7086AA",
"5	c #BBBDC4",
"6	c #FFFEFF",
"7	c #6D84A8",
"8	c #768BAC",
"9	c #6A81A5",
"0	c #677EA3",
"a	c #647BA1",
"b	c #61799F",
".................",
"+++++++++++++++++",
"@@@@@@@@@@@@@@@@@",
"#################",
"$$%&&&&&&&&&&%$$$",
"*%&=--------=&%**",
";&=>>>>>>>>>>=&;;",
",&''''')))))''&,,",
"!&~~~~~{]^^]~~&!!",
"/&(((((({]^]((&//",
"%&__)____{]]__&%%",
":&<<))<<<<{]<<&::",
"[&}})^)}}}}{}}&[[",
"|&11)^^)111111&||",
"2&33]]]]]33333&22",
"4&56{{{{{66665&44",
"78&5{{{{{{{{5&877",
"99:&&&&&&&&&&:999",
"000::::::::::0000",
"aaaaaaaaaaaaaaaaa",
"bbbbbbbbbbbbbbbbb",
"&&&&&&&&&&&&&&&&&"};
