/* XPM */
static char * close_unpressed_xpm[] = {
"20 21 70 1",
" 	c #FAFAFA",
".	c #F7F7F8",
"+	c #F5F6F7",
"@	c #F4F4F6",
"#	c #DBDEEA",
"$	c #A4ADD3",
"%	c #8F9ACA",
"&	c #F2F3F5",
"*	c #98A2CD",
"=	c #CFD4E5",
"-	c #F0F2F3",
";	c #B5BECE",
">	c #7889A9",
",	c #D2D7E0",
"'	c #D3D9E1",
")	c #EEF0F2",
"!	c #7284A4",
"~	c #455C89",
"{	c #516690",
"]	c #CDD4DD",
"^	c #D0D6DF",
"/	c #536891",
"(	c #6C7EA1",
"_	c #ECEEF1",
":	c #CAD0DC",
"<	c #CCD2DD",
"[	c #CED4DE",
"}	c #526891",
"|	c #4E648E",
"1	c #C8CFDB",
"2	c #EAECF0",
"3	c #526791",
"4	c #C6CDDA",
"5	c #E8EBEE",
"6	c #C7CED9",
"7	c #506690",
"8	c #C5CCD9",
"9	c #E6E9ED",
"0	c #C9D0DB",
"a	c #506590",
"b	c #E4E7EB",
"c	c #C8CEDA",
"d	c #526790",
"e	c #4D648E",
"f	c #C5CDD8",
"g	c #E1E5EA",
"h	c #C5CDD9",
"i	c #4D638E",
"j	c #BEC6D4",
"k	c #C1C9D6",
"l	c #C3CBD7",
"m	c #DFE2E8",
"n	c #6E80A2",
"o	c #BCC3D2",
"p	c #BFC7D5",
"q	c #50658F",
"r	c #6A7DA0",
"s	c #DCE0E7",
"t	c #A6B1C5",
"u	c #BAC2D1",
"v	c #BDC5D4",
"w	c #A1ACC2",
"x	c #DADEE5",
"y	c #96A1CC",
"z	c #C2C9DC",
"A	c #D7DCE3",
"B	c #95A0CB",
"C	c #D5DAE2",
"D	c #D2D8E0",
"E	c #D0D6DE",
"                    ",
"....................",
"++++++++++++++++++++",
"@@@#$%%%%%%%%%%$#@@@",
"&&&*=&&&&&&&&&&=*&&&",
"---%-;>,----'>;-%---",
")))%)!~{]))^/~()%)))",
"___%_:{~{<[}~|1_%___",
"222%221{~{3~|422%222",
"555%55567~~|8555%555",
"999%99903~~a6999%999",
"bbb%bbcd~ea~afbb%bbb",
"ggg%ghd~ijka~alg%ggg",
"mmm%mn~iommpq~rm%mmm",
"sss%st(ussssvnws%sss",
"xxxyzxxxxxxxxxxzyxxx",
"AAAzB%%%%%%%%%%BzAAA",
"CCCCCCCCCCCCCCCCCCCC",
"DDDDDDDDDDDDDDDDDDDD",
"EEEEEEEEEEEEEEEEEEEE",
"]]]]]]]]]]]]]]]]]]]]"};
