/* XPM */
static char * min_pressed_xpm[] = {
"20 21 28 1",
" 	c #FAFAFA",
".	c #F7F7F8",
"+	c #F5F6F7",
"@	c #F4F4F6",
"#	c #DBDEEA",
"$	c #667BD7",
"%	c #F2F3F5",
"&	c #CFD4E5",
"*	c #F0F2F3",
"=	c #EEF0F2",
"-	c #ECEEF1",
";	c #EAECF0",
">	c #E8EBEE",
",	c #E6E9ED",
"'	c #E4E7EB",
")	c #E1E5EA",
"!	c #DFE2E8",
"~	c #6D7EA1",
"{	c #455C89",
"]	c #DCE0E7",
"^	c #6F81A3",
"/	c #DADEE5",
"(	c #C2C9DC",
"_	c #D7DCE3",
":	c #D5DAE2",
"<	c #D2D8E0",
"[	c #D0D6DE",
"}	c #CDD4DD",
"                    ",
"....................",
"++++++++++++++++++++",
"@@@#$$$$$$$$$$$$#@@@",
"%%%$&%%%%%%%%%%&$%%%",
"***$************$***",
"===$============$===",
"---$------------$---",
";;;$;;;;;;;;;;;;$;;;",
">>>$>>>>>>>>>>>>$>>>",
",,,$,,,,,,,,,,,,$,,,",
"'''$''''''''''''$'''",
")))$))))))))))))$)))",
"!!!$!!~{{{{{{~!!$!!!",
"]]]$]]^{{{{{{^]]$]]]",
"///$(//////////($///",
"___($$$$$$$$$$$$(___",
"::::::::::::::::::::",
"<<<<<<<<<<<<<<<<<<<<",
"[[[[[[[[[[[[[[[[[[[[",
"}}}}}}}}}}}}}}}}}}}}"};
