/* XPM */
static char * minD_xpm[] = {
"20 20 218 2",
"  	c None",
". 	c #F0F0F0",
"+ 	c #EDEDED",
"@ 	c #EFF0EF",
"# 	c #EEEFEF",
"$ 	c #EEEEEE",
"% 	c #EFEFEF",
"& 	c #EDEDEC",
"* 	c #EFEFEE",
"= 	c #EFF0F0",
"- 	c #EEEEEF",
"; 	c #EDEEEF",
"> 	c #ECECEE",
", 	c #EDEDEE",
"' 	c #F1F1F0",
") 	c #EFEFEC",
"! 	c #EAEAEE",
"~ 	c #EBEBEE",
"{ 	c #EFF0F1",
"] 	c #ECECEC",
"^ 	c #EBEBEB",
"/ 	c #F7F7F7",
"( 	c #F2F3EB",
"_ 	c #F5F5F2",
": 	c #E8E8EC",
"< 	c #EEEEF3",
"[ 	c #F8F9FE",
"} 	c #F9F9F9",
"| 	c #FAFAFA",
"1 	c #F1F1F1",
"2 	c #E6EAEC",
"3 	c #E4E7E9",
"4 	c #DFE2E4",
"5 	c #D5D8D9",
"6 	c #C1C3C4",
"7 	c #B6B8B9",
"8 	c #B2B4B5",
"9 	c #B4B5B6",
"0 	c #B3B5B5",
"a 	c #B8B9BA",
"b 	c #C0C2C3",
"c 	c #C2C4C5",
"d 	c #CACCCD",
"e 	c #D4D7D8",
"f 	c #E1E4E6",
"g 	c #EAEAEA",
"h 	c #DCDFE2",
"i 	c #D1D4D6",
"j 	c #B6B7B8",
"k 	c #999999",
"l 	c #979797",
"m 	c #808080",
"n 	c #654F52",
"o 	c #4C3932",
"p 	c #635C4A",
"q 	c #8E8B90",
"r 	c #AAABAC",
"s 	c #BEC0C2",
"t 	c #C3C5C7",
"u 	c #BFC1C2",
"v 	c #D2D5D7",
"w 	c #E8E8E8",
"x 	c #E9E9E9",
"y 	c #D0D2D4",
"z 	c #B0B1B1",
"A 	c #9C9C9C",
"B 	c #696969",
"C 	c #6E6E6E",
"D 	c #DCC15A",
"E 	c #DDCB5F",
"F 	c #C9C258",
"G 	c #766F52",
"H 	c #7F7C7D",
"I 	c #B1B2B3",
"J 	c #C3C5C6",
"K 	c #C8C9CA",
"L 	c #C9CBCC",
"M 	c #E4E4E4",
"N 	c #C1C2C4",
"O 	c #A1A1A1",
"P 	c #9A9A9A",
"Q 	c #7B7B7B",
"R 	c #4D4D4D",
"S 	c #727272",
"T 	c #EBC268",
"U 	c #E8CB67",
"V 	c #D5C563",
"W 	c #6A5A4D",
"X 	c #4F4752",
"Y 	c #A4A4A4",
"Z 	c #BFBFC0",
"` 	c #C4C5C6",
" .	c #C7C8CA",
"..	c #E7E7E7",
"+.	c #E2E2E2",
"@.	c #BEC0C1",
"#.	c #9B9B9B",
"$.	c #534C50",
"%.	c #69555E",
"&.	c #766063",
"*.	c #E2C569",
"=.	c #E7C44C",
"-.	c #DFBE53",
";.	c #644E40",
">.	c #4C4D45",
",.	c #727670",
"'.	c #C5C5C5",
").	c #C7C8C8",
"!.	c #C5C6C7",
"~.	c #E3E3E3",
"{.	c #DEDEDE",
"].	c #BCBEBF",
"^.	c #A0A0A0",
"/.	c #484330",
"(.	c #C4C076",
"_.	c #D4D166",
":.	c #DCBF59",
"<.	c #DFC236",
"[.	c #DEB644",
"}.	c #D7B937",
"|.	c #B0AA32",
"1.	c #575664",
"2.	c #D2D2D2",
"3.	c #CDCDCD",
"4.	c #C7C8C9",
"5.	c #D6D6D6",
"6.	c #BABBBC",
"7.	c #A5A5A5",
"8.	c #A3A3A3",
"9.	c #57534E",
"0.	c #5D592C",
"a.	c #C7C767",
"b.	c #E4C12F",
"c.	c #DBB53A",
"d.	c #DAB62A",
"e.	c #C6AB28",
"f.	c #543F3C",
"g.	c #7A7D75",
"h.	c #DADADA",
"i.	c #D7D7D7",
"j.	c #C9CACB",
"k.	c #D3D3D3",
"l.	c #B9BABB",
"m.	c #AAAAAA",
"n.	c #88858B",
"o.	c #3A3136",
"p.	c #665B5F",
"q.	c #D7B643",
"r.	c #D7B728",
"s.	c #CDB628",
"t.	c #543E4B",
"u.	c #322B4A",
"v.	c #AFB2A6",
"w.	c #DFDFDF",
"x.	c #D8D8D8",
"y.	c #C8C9C9",
"z.	c #CFCFCF",
"A.	c #BEBEBE",
"B.	c #B7B9B9",
"C.	c #B8B8B8",
"D.	c #AEAEAE",
"E.	c #A6A6A6",
"F.	c #797772",
"G.	c #373133",
"H.	c #544143",
"I.	c #BCB63C",
"J.	c #4C3231",
"K.	c #3F3130",
"L.	c #8D8B85",
"M.	c #CCCCCC",
"N.	c #C4C5C5",
"O.	c #C6C6C6",
"P.	c #B9B9B9",
"Q.	c #B0B2B2",
"R.	c #BABBBB",
"S.	c #BCBCBC",
"T.	c #BABABA",
"U.	c #AAACA2",
"V.	c #747579",
"W.	c #525065",
"X.	c #7D7D76",
"Y.	c #B4AFB2",
"Z.	c #CBCBCB",
"`.	c #E1E1E1",
" +	c #CFD0D0",
".+	c #B8B9B9",
"++	c #B7B7B7",
"@+	c #A9AAAB",
"#+	c #AEAFAF",
"$+	c #C4C4C4",
"%+	c #D9D9D9",
"&+	c #DDDDDD",
"*+	c #D0D0D0",
"=+	c #B7B8B8",
"-+	c #AFAFB0",
";+	c #B1B1B1",
">+	c #AFAFAF",
",+	c #A1A2A3",
"'+	c #A2A3A4",
")+	c #A6A7A8",
"!+	c #ACADAE",
"~+	c #B6B6B7",
"{+	c #BDBEBE",
"]+	c #C2C2C3",
"^+	c #C6C7C7",
"/+	c #C9CACA",
"(+	c #C0C0C1",
"_+	c #ABACAD",
":+	c #A3A4A5",
"<+	c #ABABAB",
"[+	c #9B9B9C",
"}+	c #9F9F9F",
"|+	c #9D9D9D",
"1+	c #989898",
"2+	c #959595",
"3+	c #939393",
"4+	c #9E9E9E",
"5+	c #333333",
". . . . + . @ . . # . $ % . . $ $ . . . ",
". % $ + + & * = - ; > , $ . . . % . % $ ",
"% $ + + & ' ) - - ! ~ { = + + + + % $ + ",
"$ ] ^ + ' / ( _ - : < [ } | 1 % % $ ] ^ ",
"] ] 2 3 4 5 6 7 8 9 0 a b c d e f ] ] g ",
"] g h i j k l m n o p q r s t u v ] g w ",
"g x y z A l B C D E F G H I J K L g x x ",
"M M N O P Q R S T U V W X Y Z `  .M M ..",
"+.+.@.O #.$.%.&.*.=.-.;.>.,.'.).!.+.+.~.",
"{.{.].Y ^./.(._.:.<.[.}.|.1.2.3.4.{.{.~.",
"5.5.6.7.8.9.0.a.b.c.d.e.f.g.h.i.j.5.5.5.",
"k.k.l.m.Y n.o.p.q.r.s.t.u.v.w.x.y.k.k.z.",
"A.A.B.C.D.E.F.G.H.I.J.K.L.M.w.x.N.A.A.O.",
"P.P.Q.R.S.T.A.U.V.W.X.Y.Z.w.`. +.+P.P.++",
"T.T.@+#+S.$+Z.2.%+5.5.&+`.`.*+=+-+T.T.;+",
">+>+,+'+)+!+~+{+]+^+/+^+(+9 _+)+:+>+>+<+",
"^.^.[+[+[+[+[+[+[+[+[+[+[+[+[+[+[+^.^.}+",
"A A [+[+[+[+[+[+[+[+[+[+[+[+[+[+[+A A |+",
"1+1+|+|+A #.P 1+2+3+3+2+1+P P 4+^.1+1+|+",
"5+5+5+5+5+5+5+5+5+5+5+5+5+5+5+5+5+5+5+5+"};
