/* XPM */
static char * maxA_xpm[] = {
"20 20 185 2",
"  	c None",
". 	c #0175FF",
"+ 	c #035CEC",
"@ 	c #4D8DF2",
"# 	c #7DAEF6",
"$ 	c #97BFF8",
"% 	c #98BFF8",
"& 	c #98C0F8",
"* 	c #99C0F8",
"= 	c #9AC1F8",
"- 	c #9BC1F8",
"; 	c #9CC1F8",
"> 	c #9CC2F8",
", 	c #9DC2F8",
"' 	c #9EC3F8",
") 	c #9FC3F8",
"! 	c #7FAEF4",
"~ 	c #4C8DF0",
"{ 	c #0156E5",
"] 	c #7CABF3",
"^ 	c #86DBFF",
"/ 	c #80D2FF",
"( 	c #77C8FF",
"_ 	c #6DBCFF",
": 	c #63B2FF",
"< 	c #5AA9FF",
"[ 	c #54A2FF",
"} 	c #4E9DFF",
"| 	c #4B99FF",
"1 	c #4896FF",
"2 	c #4693FD",
"3 	c #4591FB",
"4 	c #4491FA",
"5 	c #3F85ED",
"6 	c #397ADF",
"7 	c #78A8F0",
"8 	c #0053E1",
"9 	c #96BCF4",
"0 	c #82D7FF",
"a 	c #75BFFF",
"b 	c #6DB6FF",
"c 	c #64ACFF",
"d 	c #5BA2FF",
"e 	c #5299FF",
"f 	c #4C92FF",
"g 	c #458DFF",
"h 	c #4289FF",
"i 	c #3F87FE",
"j 	c #3E85FC",
"k 	c #3D83F9",
"l 	c #3D83F8",
"m 	c #3778E4",
"n 	c #326DD0",
"o 	c #8AB5EF",
"p 	c #0653DF",
"q 	c #99BCF4",
"r 	c #7CD0FF",
"s 	c #6FB9FF",
"t 	c #68B1FF",
"u 	c #FFFFFF",
"v 	c #3C82F8",
"w 	c #326CD0",
"x 	c #8CB5EE",
"y 	c #0051E8",
"z 	c #97BCF7",
"A 	c #73C8FF",
"B 	c #67AFFF",
"C 	c #61A9FF",
"D 	c #3C83F9",
"E 	c #3778E3",
"F 	c #326BCD",
"G 	c #8AB4F1",
"H 	c #0151E4",
"I 	c #98BCF5",
"J 	c #69BEFF",
"K 	c #5EA6FF",
"L 	c #59A1FF",
"M 	c #4E96FF",
"N 	c #4991FF",
"O 	c #428AFF",
"P 	c #4087FF",
"Q 	c #3F86FD",
"R 	c #3777E3",
"S 	c #8AB4F0",
"T 	c #0153E7",
"U 	c #99BEF6",
"V 	c #60B4FF",
"W 	c #569DFF",
"X 	c #529AFF",
"Y 	c #4A91FF",
"Z 	c #468DFF",
"` 	c #438AFF",
" .	c #4188FF",
"..	c #3F86FE",
"+.	c #3E84FB",
"@.	c #3C83F8",
"#.	c #3777E2",
"$.	c #316BCC",
"%.	c #8AB5F1",
"&.	c #9ABEF6",
"*.	c #58ACFF",
"=.	c #4E95FF",
"-.	c #4C93FF",
";.	c #4087FE",
">.	c #3D84FB",
",.	c #316ACC",
"'.	c #0053E9",
").	c #9BBEF7",
"!.	c #51A5FF",
"~.	c #488FFF",
"{.	c #468EFF",
"].	c #4086FE",
"^.	c #3F85FC",
"/.	c #3E85FB",
"(.	c #3D84FA",
"_.	c #3C82F7",
":.	c #3676E1",
"<.	c #8AB5F2",
"[.	c #0055ED",
"}.	c #9BBFF8",
"|.	c #4DA0FF",
"1.	c #448BFF",
"2.	c #3D83FA",
"3.	c #3B82F6",
"4.	c #316ACB",
"5.	c #8AB6F3",
"6.	c #0057F1",
"7.	c #9CC0FA",
"8.	c #499DFF",
"9.	c #4188FE",
"0.	c #4087FD",
"a.	c #3B81F6",
"b.	c #3676E0",
"c.	c #8AB6F4",
"d.	c #015AF4",
"e.	c #9DC1FB",
"f.	c #479BFC",
"g.	c #3F86FC",
"h.	c #3F85FB",
"i.	c #3B81F5",
"j.	c #3169CA",
"k.	c #8AB7F5",
"l.	c #035DF9",
"m.	c #9EC3FC",
"n.	c #4699FB",
"o.	c #3C80F3",
"p.	c #3C81F5",
"q.	c #3C80F5",
"r.	c #3C80F4",
"s.	c #3B7FF3",
"t.	c #3B7FF2",
"u.	c #3A7DEF",
"v.	c #3571D6",
"w.	c #2F65BF",
"x.	c #8BB8F7",
"y.	c #0465FF",
"z.	c #9FC6FE",
"A.	c #4698F9",
"B.	c #3B80F3",
"C.	c #3B7FF1",
"D.	c #3B7EF1",
"E.	c #6996E1",
"F.	c #658ECE",
"G.	c #8BBBF9",
"H.	c #046EFF",
"I.	c #80B6FD",
"J.	c #C5DFFB",
"K.	c #4697F8",
"L.	c #4697F7",
"M.	c #4596F7",
"N.	c #4596F6",
"O.	c #4596F5",
"P.	c #4595F5",
"Q.	c #4595F4",
"R.	c #4495F4",
"S.	c #72AFF9",
"T.	c #0072F2",
"U.	c #4A9BF4",
"V.	c #77B4F5",
"W.	c #8ABFF5",
"X.	c #70B0F4",
"Y.	c #4397F3",
"Z.	c #006BFF",
"`.	c #075AFF",
" +	c #0024CA",
". . . . . . . . . . . . . . . . . . . . ",
"+ + @ # $ % & * = = - ; > , ' ' ) ! ~ + ",
"{ { ] ^ / ( _ : < [ } | 1 2 3 4 5 6 7 { ",
"8 8 9 0 a b c d e f g h i j k l m n o 8 ",
"p p q r s t u u u u u u u u u v m w x p ",
"y y z A B C u u u u u u u u u D E F G y ",
"H H I J K L u M N g O P Q j u D R F S H ",
"T T U V W X u Y Z `  ...j +.u @.#.$.%.T ",
"T T &.*.=.-.u Z `  .;.j +.>.u v #.,.%.T ",
"'.'.).!.~.{.u `  .].^./.>.(.u _.:.,.<.'.",
"[.[.}.|.1.` u ;.Q j +.(.2.k u 3.:.4.5.[.",
"6.6.7.8.9.0.u ^.j +.(.2.k k u a.b.4.c.6.",
"d.d.e.f.g.h.u u u u u u u u u i.b.j.k.d.",
"l.l.m.n.o.p.p.q.r.r.r.s.s.t.u.u.v.w.x.l.",
"y.y.z.A.p.q.r.r.r.B.s.s.t.t.C.D.E.F.G.y.",
"H.H.I.J.K.K.K.L.L.M.N.N.N.O.P.Q.Q.R.S.H.",
"T.T.U.V.W.W.W.W.W.W.W.W.W.W.W.W.W.X.Y.T.",
"Z.Z.Z.Z.Z.Z.Z.Z.Z.Z.Z.Z.Z.Z.Z.Z.Z.Z.Z.Z.",
"`.`.`.`.`.`.`.`.`.`.`.`.`.`.`.`.`.`.`.`.",
" + + + + + + + + + + + + + + + + + + + +"};
